<?xml version="1.0" encoding="UTF-8" standalone="no"?>
<!DOCTYPE svg PUBLIC "-//W3C//DTD SVG 1.1//EN" "http://www.w3.org/Graphics/SVG/1.1/DTD/svg11.dtd">
<svg width="100%" height="100%" viewBox="0 0 53 227" version="1.1" xmlns="http://www.w3.org/2000/svg" xmlns:xlink="http://www.w3.org/1999/xlink" xml:space="preserve" xmlns:serif="http://www.serif.com/" style="fill-rule:evenodd;clip-rule:evenodd;stroke-miterlimit:10;">
    <path d="M52.353,119.263C51.35,116.915 51.912,113.956 52.23,111.535C52.988,105.666 52.646,99.651 52.548,93.708C52.401,85.712 51.912,77.715 51.888,69.694C51.888,67.2 51.741,64.681 51.619,62.187C51.497,59.839 51.766,57.443 51.717,55.095C51.668,53.456 51.619,51.818 51.497,50.179C51.203,46.756 50.641,42.745 48.293,40.056C47.413,39.053 46.337,38.442 45.114,38.001C42.498,37.072 39.954,36.241 37.387,35.14C35.968,34.529 34.525,34.015 33.4,32.89C31.982,31.472 31.982,29.222 32.153,27.364C32.153,27.29 32.178,27.217 32.202,27.168C32.569,26.752 32.789,26.386 32.936,25.872C33.352,24.331 33.743,22.791 33.987,21.201C33.963,21.372 34.672,20.957 34.721,20.932C34.941,20.712 35.088,20.419 35.234,20.15C35.504,19.587 35.699,19 35.895,18.413C36.115,17.778 36.359,17.044 36.335,16.359C36.311,16.017 36.213,15.65 35.944,15.43C35.675,15.21 35.357,15.406 35.332,15.014C35.259,13.474 35.234,11.835 34.476,10.466C33.914,9.439 33.107,8.583 32.325,7.727C31.224,6.553 30.099,5.379 28.632,4.719C26.798,3.888 24.646,3.985 22.69,4.499C21.809,4.719 20.904,5.061 20.269,5.722C19.779,6.235 19.51,6.92 19.29,7.58C18.777,9.072 18.483,10.637 18.41,12.227C18.386,12.52 18.41,15.772 18.386,15.772C18.116,15.772 17.774,15.699 17.578,15.919C17.407,16.09 17.383,16.433 17.358,16.653C17.31,17.386 17.53,18.144 17.774,18.829C18.019,19.465 19.095,21.91 20.146,21.055C20.097,21.079 20.391,22.399 20.415,22.522C20.611,23.916 20.88,25.701 21.76,26.826C21.834,26.899 21.883,26.997 21.931,27.095C21.956,27.193 21.956,27.266 21.956,27.364C21.98,28.489 22.005,29.589 21.956,30.714C21.883,32.401 19.633,34.064 18.263,34.7C16.625,35.483 14.791,35.825 13.103,36.51C12.076,36.925 11,37.121 9.973,37.586C8.873,38.075 7.821,38.637 6.819,39.273C4.055,41.058 3.542,43.748 3.004,46.756C2.343,50.546 2.564,54.532 2.417,58.323C2.27,62.48 2.319,66.711 1.805,70.843C0.778,78.913 0.656,87.081 0.925,95.2C1.047,99.21 1.414,103.196 1.732,107.183C2.001,110.606 2.833,114.128 2.246,117.551C2.001,118.945 1.316,120.143 1.194,121.562C1.023,123.445 0.974,125.303 0.998,127.186C0.998,127.504 0.998,127.822 1.17,128.091C1.341,128.36 1.61,128.507 1.879,128.678C2.466,129.069 2.93,129.607 3.468,130.047C4.006,130.488 4.667,130.879 5.376,130.83C6.77,130.732 7.137,130.952 8.041,132.102C8.628,132.86 9.264,132.957 10.12,133.275C10.242,133.324 10.34,133.349 10.438,133.446C10.511,133.544 10.536,133.691 10.56,133.813C10.731,135.256 10.609,136.65 10.682,138.093C10.78,139.658 10.927,141.223 11.123,142.764C11.514,145.771 12.101,148.804 12.859,151.714C13.323,153.548 13.959,155.309 14.497,157.118C15.133,159.27 15.964,160.86 15.842,163.11C15.671,166.9 15.598,170.544 16.136,174.285C16.503,176.926 16.454,179.518 16.209,182.159C15.989,184.654 16.307,187.222 16.503,189.74C17.163,198.153 18.41,206.394 18.948,214.782C18.997,215.417 18.972,215.809 18.997,216.469C18.997,217.912 16.674,218.988 15.72,219.672C14.351,220.675 13.103,221.971 11.563,222.729C10.487,223.243 8.971,222.509 7.821,222.754C6.256,223.072 5.498,224.49 7.259,225.272C9.435,226.251 12.883,225.762 15.182,225.444C16.894,225.199 18.655,224.979 20.391,225.077C22.323,225.175 24.695,225.737 26.553,224.93C26.969,224.759 27.336,224.392 27.434,223.976C27.434,224.148 27.458,224.343 27.507,224.514C27.752,225.272 28.632,225.444 29.317,225.517C31.2,225.713 32.96,225.321 34.843,225.444C37.753,225.639 43.06,227.082 45.554,225.297C45.921,225.028 46.263,224.661 46.263,224.221C46.263,223.61 45.603,223.169 44.992,223.12C43.182,222.974 42.351,222.876 40.761,221.727C38.927,220.382 37.191,218.914 35.357,217.618C35.21,217.52 35.063,217.423 35.014,217.251C34.966,217.129 34.966,217.007 34.99,216.885C35.137,215.124 35.161,213.51 35.357,211.725C36.09,205.22 36.457,198.691 36.873,192.161C37.069,189.105 37.533,185.974 37.435,182.918C37.362,180.814 37.313,178.736 37.558,176.633C37.851,174.163 37.876,171.571 37.68,169.125C37.46,166.338 37.484,163.354 37.753,160.591C38.047,157.583 39.587,154.844 40.37,151.958C41.813,146.652 41.96,141.223 42.718,135.745C42.791,135.281 42.84,134.816 43.06,134.425C43.256,134.058 43.573,133.789 43.891,133.52C44.796,132.713 45.725,131.881 46.63,131.074C46.753,130.977 46.875,130.854 47.022,130.805C47.193,130.732 47.388,130.757 47.584,130.781C49.076,130.879 50.445,129.167 51.545,128.262C51.839,128.018 52.157,127.773 52.328,127.431C52.499,127.113 52.524,126.722 52.548,126.379C52.695,124.594 52.622,122.784 52.646,120.975C52.646,120.706 52.646,120.461 52.597,120.192C52.622,119.85 52.475,119.556 52.353,119.263ZM10.951,98.77C10.927,99.357 10.903,99.944 10.609,100.458C10.487,100.678 10.316,100.849 10.193,101.069C10.071,101.314 10.047,101.607 9.998,101.876C9.753,104.126 9.484,106.376 9.24,108.625C9.02,102.365 8.946,96.105 8.971,89.869C8.971,86.739 9.02,83.609 9.068,80.478C9.142,75.245 10.144,70.061 10.071,64.828C10.071,68.007 11.049,71.308 11.269,74.512L11.269,74.683C11.783,82.655 11.22,90.749 10.951,98.77ZM26.504,134.449C26.529,133.838 26.578,133.177 27.067,132.786C27.067,133.153 27.091,133.544 27.091,133.936C27.214,137.09 27.287,140.22 27.409,143.375C27.483,145.013 27.458,146.676 27.507,148.315C27.556,149.782 27.752,151.274 27.776,152.741C27.8,154.013 27.116,155.04 26.7,156.213C26.333,154.893 25.697,153.646 25.722,152.227C25.893,146.285 26.309,140.392 26.504,134.449ZM28.265,213.192C28.167,215.54 27.434,217.789 27.287,220.137C27.287,219.183 26.48,217.789 26.186,216.885C25.82,215.784 25.428,214.757 25.282,213.608C24.988,211.26 24.964,208.888 25.159,206.516C25.502,202.212 25.526,197.908 26.847,193.775C27.311,194.802 27.483,195.927 27.629,197.028C28.02,200.06 28.241,203.19 28.241,206.247C28.192,208.57 28.338,210.869 28.265,213.192ZM27.776,180.252C27.531,181.793 26.602,183.896 26.945,185.485C26.235,182.208 25.575,178.883 25.208,175.508C24.841,171.986 26.382,168.587 26.749,165.09C27.409,167.756 28.216,170.446 28.558,173.185C28.656,173.992 28.705,174.799 28.705,175.606C28.73,177.195 28.02,178.663 27.776,180.252ZM44.234,101.9C44.014,101.534 43.867,101.289 43.476,101.142C43.427,101.118 42.864,100.947 42.864,101.069C42.84,94.735 41.984,88.402 42.057,82.044C42.131,75.221 42.4,68.447 43.231,61.673C43.231,68.374 44.674,75.074 44.576,81.775C44.527,85.932 44.698,90.065 44.87,94.222C44.943,96.08 44.87,97.914 44.87,99.724C44.894,101.411 44.796,103.197 45.261,104.835C44.967,103.857 44.772,102.781 44.234,101.9Z" style="fill:rgb(226,168,138);fill-rule:nonzero;"/>
    <path d="M17.97,14.036C18.141,14.574 18.288,15.112 18.41,15.65C18.434,15.699 18.434,15.772 18.386,15.821C18.361,15.846 18.337,15.846 18.312,15.846C18.043,15.846 17.701,15.772 17.505,15.992C17.334,16.163 17.31,16.506 17.285,16.726C17.236,17.46 17.456,18.218 17.701,18.902C17.945,19.538 19.021,21.984 20.073,21.128C20.024,21.152 20.317,22.473 20.342,22.595C20.538,23.989 20.807,25.774 21.687,26.899C21.76,26.972 21.809,27.07 21.858,27.168C21.883,27.266 21.883,27.339 21.883,27.437C21.907,28.562 21.931,29.662 21.883,30.787C21.809,32.475 19.559,34.137 18.19,34.773C16.551,35.556 14.717,35.898 13.03,36.583C12.003,36.999 10.927,37.194 9.9,37.659C8.799,38.148 7.748,38.71 6.745,39.346C3.982,41.131 3.468,43.821 2.93,46.829C2.343,50.546 2.564,54.532 2.417,58.323C2.27,62.48 2.319,66.711 1.805,70.843C0.778,78.913 0.656,87.081 0.925,95.2C1.047,99.21 1.414,103.196 1.732,107.182C2.001,110.606 2.833,114.127 2.246,117.551C2.001,118.945 1.316,120.143 1.194,121.562C1.023,123.445 0.974,125.303 0.998,127.186C0.998,127.504 0.998,127.822 1.17,128.091C1.341,128.36 1.61,128.507 1.879,128.678C2.466,129.069 2.93,129.607 3.468,130.047C4.006,130.487 4.667,130.879 5.376,130.83C6.77,130.732 7.137,130.952 8.041,132.101C8.628,132.859 9.264,132.957 10.12,133.275C10.242,133.324 10.34,133.349 10.438,133.446C10.511,133.544 10.536,133.691 10.56,133.813C10.731,135.256 10.609,136.65 10.682,138.093C10.78,139.658 10.927,141.223 11.123,142.763C11.514,145.771 12.101,148.804 12.859,151.714C13.323,153.548 13.959,155.309 14.497,157.118C15.133,159.27 15.964,160.86 15.842,163.109C15.671,166.9 15.598,170.544 16.136,174.285C16.503,176.926 16.454,179.518 16.209,182.159C15.989,184.654 16.307,187.221 16.503,189.74C17.163,198.153 18.41,206.394 18.948,214.781C18.997,215.417 18.972,215.809 18.997,216.469C18.997,217.912 16.674,218.988 15.72,219.672C14.351,220.675 13.103,221.971 11.563,222.729C10.487,223.243 8.971,222.509 7.821,222.754C6.256,223.071 5.498,224.49 7.259,225.272C9.435,226.251 12.883,225.761 15.182,225.444C16.894,225.199 18.655,224.979 20.391,225.077C22.323,225.175 24.695,225.737 26.553,224.93C27.116,224.685 27.605,224.099 27.434,223.487C27.409,223.83 27.409,224.172 27.507,224.49C27.752,225.248 28.632,225.419 29.317,225.492C31.2,225.688 32.96,225.297 34.843,225.419C37.753,225.615 43.06,227.057 45.554,225.272C45.921,225.003 46.263,224.637 46.263,224.196C46.263,223.585 45.603,223.145 44.992,223.096C43.182,222.949 42.351,222.851 40.761,221.702C38.927,220.357 37.191,218.89 35.357,217.594C35.21,217.496 35.063,217.398 35.014,217.227C34.966,217.105 34.966,216.982 34.99,216.86C35.137,215.099 35.161,213.485 35.357,211.7C36.09,205.195 36.457,198.666 36.873,192.137C37.069,189.08 37.533,185.95 37.435,182.893C37.362,180.79 37.313,178.711 37.558,176.608C37.851,174.138 37.876,171.546 37.68,169.101C37.46,166.313 37.484,163.33 37.753,160.566C38.047,157.558 39.587,154.819 40.37,151.934C41.813,146.627 41.96,141.198 42.718,135.721C42.791,135.256 42.84,134.791 43.06,134.4C43.256,134.033 43.573,133.764 43.891,133.495C44.796,132.688 45.725,131.857 46.63,131.05C46.753,130.952 46.875,130.83 47.022,130.781C47.193,130.708 47.388,130.732 47.584,130.756C49.076,130.854 50.445,129.142 51.545,128.238C51.839,127.993 52.157,127.749 52.328,127.406C52.499,127.088 52.524,126.697 52.548,126.355C52.695,124.569 52.622,122.76 52.646,120.95C52.646,120.681 52.646,120.437 52.597,120.168C52.548,119.85 52.401,119.556 52.279,119.263C51.277,116.915 51.839,113.956 52.157,111.535C52.915,105.666 52.573,99.65 52.475,93.708C52.328,85.712 51.839,77.715 51.815,69.694C51.815,67.2 51.668,64.681 51.545,62.187C51.423,59.839 51.692,57.442 51.643,55.095C51.594,53.456 51.545,51.818 51.423,50.179C51.13,46.756 50.567,42.745 48.22,40.055C47.339,39.053 46.263,38.441 45.041,38.001C42.424,37.072 39.881,36.241 37.313,35.14C35.895,34.529 34.452,34.015 33.327,32.89C31.909,31.472 31.909,29.222 32.08,27.364C32.08,27.29 32.104,27.217 32.129,27.168C32.496,26.752 32.716,26.385 32.863,25.872C33.278,24.331 33.669,22.791 33.914,21.201C33.89,21.372 34.599,20.957 34.648,20.932C34.868,20.712 35.014,20.419 35.161,20.15C35.43,19.587 35.626,19 35.821,18.413C36.042,17.778 36.286,17.044 36.262,16.359C36.237,16.017 36.139,15.65 35.87,15.43C35.601,15.21 35.283,15.405 35.259,15.014C35.234,14.525 35.21,14.012 35.186,13.523" style="fill:none;fill-rule:nonzero;stroke:rgb(31,0,0);stroke-width:0.29px;"/>
    <path d="M11.294,74.463C11.074,71.284 10.096,67.958 10.096,64.779C10.145,70.013 9.167,75.197 9.093,80.43C9.044,83.56 9.02,86.69 8.995,89.821C8.971,96.081 9.044,102.341 9.264,108.577C9.509,106.327 9.778,104.077 10.022,101.828C10.047,101.559 10.096,101.265 10.218,101.021C10.316,100.8 10.512,100.629 10.634,100.409C10.927,99.92 10.952,99.309 10.976,98.722C11.245,90.701 11.808,82.607 11.319,74.61C11.294,74.586 11.294,74.537 11.294,74.463Z" style="fill:none;fill-rule:nonzero;stroke:rgb(31,0,0);stroke-width:0.29px;"/>
    <path d="M31.983,26.509C30.32,28.171 27.997,28.954 25.673,28.098C24.108,27.511 22.763,26.386 21.785,25.041C21.345,24.43 21.296,23.721 21.149,22.987C21.027,22.351 20.954,21.74 20.758,21.129C20.538,20.444 20.391,19.686 20.367,18.977C20.293,16.482 20.367,13.792 20.954,11.371C21.247,10.1 21.932,9.17 23.252,8.779C23.937,8.584 24.695,8.608 25.331,8.926C25.527,9.024 25.698,9.146 25.918,9.195C26.334,9.293 26.749,9.122 27.165,8.999C28.119,8.681 28.999,8.681 29.977,8.632C30.442,8.608 31.053,8.657 31.445,8.926C31.909,9.219 32.007,9.88 32.178,10.369C32.203,10.467 32.252,10.564 32.276,10.662C32.863,12.472 33.328,14.33 33.523,16.213C33.597,17.069 33.523,17.901 33.572,18.757C33.621,19.759 33.67,20.762 33.719,21.764C33.768,21.764 33.817,21.74 33.841,21.74C33.866,21.544 33.914,21.349 33.939,21.153C33.914,21.324 34.624,20.909 34.673,20.884C34.893,20.664 35.039,20.371 35.186,20.102C35.333,19.833 35.431,19.539 35.553,19.246L35.553,19.221C35.406,19.637 35.162,20.004 34.819,20.273C34.722,20.346 34.575,20.419 34.477,20.346C34.404,20.297 34.404,20.199 34.379,20.126C34.281,18.952 34.477,17.73 34.942,16.654C35.039,16.409 35.211,16.116 35.48,16.091C35.626,16.067 35.773,16.14 35.92,16.116C36.066,16.067 36.14,15.944 36.164,15.798C36.091,15.651 36.018,15.504 35.895,15.406C35.626,15.186 35.308,15.382 35.284,14.991C35.211,13.45 35.186,11.812 34.428,10.442C33.866,9.415 33.059,8.559 32.276,7.703C31.298,6.676 30.295,5.625 29.048,4.94C28.632,4.769 28.217,4.646 27.801,4.524C26.969,4.28 26.113,4.133 25.233,4.108C24.353,4.133 23.497,4.28 22.641,4.5C21.761,4.72 20.856,5.062 20.22,5.722C19.731,6.236 19.462,6.921 19.242,7.581C18.728,9.073 18.435,10.638 18.362,12.227C18.337,12.521 18.362,15.773 18.337,15.773L17.946,15.773C19.315,16.164 19.34,18.732 19.438,19.808C19.438,19.881 19.438,19.955 19.413,20.028C19.389,20.077 19.315,20.102 19.242,20.126C19.046,20.199 18.802,20.224 18.582,20.224C18.508,20.273 18.557,20.395 18.606,20.468C18.655,20.542 18.704,20.615 18.753,20.713C19.169,21.202 19.633,21.471 20.098,21.08C20.049,21.104 20.342,22.425 20.367,22.547C20.562,23.941 20.831,25.726 21.712,26.851C21.785,26.924 21.834,27.022 21.883,27.12C21.907,27.218 21.907,27.291 21.907,27.389C21.932,28.514 21.956,29.614 21.907,30.739C21.883,31.619 21.223,32.5 20.44,33.234C21.663,32.549 22.372,31.204 22.983,29.908C23.057,29.737 23.155,29.565 23.301,29.443C23.521,29.247 23.839,29.223 24.133,29.296C25.331,29.614 26.138,30.275 27.483,30.177C29.121,30.054 30.662,29.272 31.787,28.098C31.885,28 31.958,27.902 32.056,27.805C32.056,27.658 32.08,27.511 32.08,27.365C32.08,27.291 32.105,27.218 32.129,27.169C32.496,26.753 32.716,26.386 32.863,25.873C32.961,25.53 33.059,25.188 33.132,24.846C32.863,25.482 32.472,26.044 31.983,26.509Z" style="fill:rgb(174,106,83);fill-opacity:0.71;fill-rule:nonzero;"/>
    <path d="M27.091,58.47C27.14,58.47 27.189,58.445 27.238,58.421C27.311,58.347 27.335,58.274 27.384,58.176C27.776,57.1 28.142,55.78 28.118,54.63C28.118,53.261 27.702,51.94 27.776,50.571C27.824,49.96 27.898,49.348 27.849,48.737C27.751,47.808 27.311,46.952 27.189,45.998C27.14,45.631 27.115,45.264 27.091,44.922C27.066,44.653 26.822,43.846 26.895,43.626C26.43,44.873 26.333,46.096 26.235,47.416C26.162,48.517 26.553,49.691 26.626,50.791C26.724,52.136 26.675,53.506 26.675,54.85C26.675,55.902 26.553,57.32 26.895,58.299C26.92,58.347 26.92,58.396 26.969,58.421C27.017,58.445 27.066,58.47 27.091,58.47Z" style="fill:rgb(174,106,83);fill-opacity:0.71;fill-rule:nonzero;"/>
    <path d="M25.672,104.273C28.216,104.078 30.759,103.907 33.302,103.564C35.112,103.32 36.921,103.344 38.707,103.075C39.416,102.977 39.978,102.904 40.59,102.464C40.834,102.268 41.543,101.07 41.666,101.045C38.976,101.657 36.114,102.17 33.376,102.219C32.202,102.244 30.979,102.439 29.927,101.828C28.46,100.997 28.265,98.307 28.191,96.815C27.996,92.804 27.8,88.794 27.604,84.783C27.164,89.87 26.7,94.932 26.259,100.018C26.235,100.385 26.186,100.776 26.015,101.094C25.795,101.486 25.355,101.755 24.939,101.926C22.224,103.002 17.896,102.293 15.108,101.706C14.888,101.657 14.644,101.608 14.472,101.437C14.326,101.29 14.277,101.07 14.252,100.874C13.788,98.649 13.91,96.766 13.861,94.492C13.812,92.413 13.959,90.31 14.057,88.231C14.326,83.145 15.01,78.278 13.543,73.314C13.201,72.14 12.761,70.967 12.589,69.768C12.32,68.008 12.81,66.345 13.543,64.755C13.641,64.56 13.739,64.34 13.959,64.242C14.228,64.119 14.546,64.242 14.839,64.34C16.111,64.804 17.749,64.878 19.094,64.853C19.877,64.853 20.757,64.731 21.197,64.095C19.217,64.242 15.989,62.774 14.374,61.698C11.954,60.06 11.905,56.71 10.731,54.289C10.486,53.775 10.046,53.091 9.484,52.822C9.166,52.675 8.383,52.504 8.237,52.944C8.09,53.335 8.97,54.167 9.044,54.68C9.288,56.343 8.897,58.275 8.897,59.962L8.897,64.388C8.921,71.847 8.041,79.257 6.916,86.617C6.182,91.362 6.623,96.032 6.989,100.776C7.43,106.572 7.552,112.392 7.747,118.212C7.821,120.218 8.603,120.315 10.022,121.196C11.856,122.321 12.932,124.693 13.25,126.747C13.323,127.187 13.323,127.701 12.956,127.945C12.712,128.116 12.345,128.043 12.1,127.872C11.856,127.701 11.685,127.432 11.538,127.163C11.098,126.405 10.731,125.598 10.462,124.742C11.122,126.722 10.633,129.657 8.872,130.929C8.726,131.026 8.579,131.124 8.408,131.075C8.261,131.026 8.188,130.904 8.09,130.782C7.234,129.633 6.329,130.097 5.204,129.926C4.055,129.755 4.055,128.997 3.101,128.385C2.612,128.043 1.903,128.043 1.536,127.603C1.267,127.285 1.145,126.722 1.047,126.136L1.047,127.236C1.047,127.554 1.047,127.872 1.218,128.141C1.389,128.41 1.658,128.557 1.927,128.728C2.514,129.119 2.979,129.657 3.517,130.097C4.055,130.537 4.715,130.929 5.424,130.88C6.818,130.782 7.185,131.002 8.09,132.151C8.677,132.909 9.312,133.007 10.168,133.325C10.291,133.374 10.389,133.398 10.486,133.496C10.56,133.594 10.584,133.741 10.609,133.863C10.78,135.306 10.658,136.7 10.731,138.143C10.829,139.708 10.975,141.273 11.171,142.813C11.562,145.821 12.149,148.854 12.907,151.764C13.372,153.598 14.008,155.358 14.546,157.168C15.182,159.32 16.013,160.91 15.891,163.159C15.72,166.95 15.646,170.593 16.184,174.335C16.551,176.976 16.502,179.568 16.258,182.209C16.037,184.704 16.355,187.271 16.551,189.79C17.211,198.202 18.458,206.444 18.996,214.831C19.045,215.467 19.021,215.858 19.045,216.519C19.045,217.179 18.556,217.766 17.945,218.279C18.141,218.255 18.336,218.206 18.507,218.084C19.143,217.644 19.143,216.47 19.314,215.81C20.268,212.41 19.803,209.011 19.681,205.539C19.51,200.305 18.874,195.072 18.361,189.863C17.872,184.826 18.556,179.422 18.825,174.335C19.021,170.52 18.996,166.607 20.268,162.939C20.562,162.108 20.879,161.227 20.757,160.347C20.733,160.151 20.659,159.931 20.464,159.907C20.317,159.907 20.219,160.005 20.121,160.103C16.6,163.575 14.815,155.31 14.399,153.5C13.812,150.981 13.421,148.413 13.225,145.821C12.932,142.324 11.929,136.969 13.592,133.692C15.059,130.831 21.002,132.763 23.08,133.863C23.203,133.936 23.325,133.985 23.398,134.108C23.496,134.23 23.496,134.401 23.496,134.572C23.472,136.26 23.765,137.874 23.716,139.561C23.692,141.346 23.692,143.131 23.741,144.916C23.838,148.585 24.083,152.253 24.45,155.921C24.988,161.521 24.352,167.121 23.741,172.672C23.496,174.897 24.083,177.294 24.645,179.446C25.452,182.527 26.382,185.413 26.333,188.641C26.259,193.018 25.77,197.395 25.012,201.724C24.254,206.101 22.934,210.919 24.425,215.345C25.208,217.644 28.265,221.972 25.55,224.1C24.23,225.127 21.246,224.222 19.73,224.148C17.92,224.051 16.551,224.369 14.741,224.735C13.03,225.078 10.682,225.347 8.995,224.882C8.554,224.76 7.503,224.124 6.574,223.61C6.158,224.173 6.305,224.858 7.381,225.347C9.557,226.325 13.005,225.836 15.304,225.518C17.016,225.273 18.776,225.053 20.513,225.151C22.445,225.249 24.817,225.811 26.675,225.004C27.091,224.833 27.458,224.466 27.555,224.051C27.555,224.222 27.58,224.417 27.629,224.589C27.873,225.347 28.754,225.518 29.438,225.591C31.321,225.787 33.082,225.396 34.965,225.518C37.875,225.714 43.182,227.156 45.676,225.371C46.043,225.102 46.385,224.735 46.385,224.295C46.385,224.002 46.239,223.757 46.018,223.562C46.239,223.904 46.19,224.417 45.969,224.784C45.701,225.2 45.211,225.469 44.722,225.616C42.081,226.521 39.025,224.955 36.408,224.54C35.503,224.393 34.5,224.295 33.596,224.246C32.593,224.173 31.395,224.662 30.465,224.246C29.218,223.684 29.243,222.119 29.316,220.969C29.707,216.054 30.759,211.383 30.857,206.395C30.906,204.438 31.004,202.409 30.93,200.452C30.857,198.178 30.221,195.879 30.001,193.605C29.707,190.67 29.145,187.638 29.072,184.704C28.998,180.987 30.612,177.587 30.49,173.968C30.368,170.202 29.243,166.461 28.925,162.793C28.705,160.103 29.169,157.241 29.341,154.527C29.536,151.079 29.781,147.631 29.952,144.207C30.074,141.835 29.365,137.751 31.615,136.211C33.18,135.159 35.454,135.942 37.19,135.819C38.878,135.697 41.201,135.453 43.035,134.792C43.059,134.695 43.108,134.621 43.157,134.548C43.353,134.181 43.671,133.912 43.989,133.643C44.894,132.836 45.823,132.005 46.728,131.198C46.85,131.1 46.972,130.978 47.119,130.929C47.29,130.855 47.486,130.88 47.681,130.904C49.173,131.002 50.542,129.29 51.643,128.385C51.888,128.19 52.132,127.994 52.303,127.725C52.328,127.652 52.377,127.578 52.401,127.481C51.472,128.336 50.494,129.217 49.271,129.584C48.488,129.828 47.657,129.828 46.85,129.853C46.654,129.07 46.434,128.288 46.239,127.505C46.19,127.334 45.994,127.138 45.896,127.26C45.872,128.19 45.847,129.119 45.823,130.048C45.823,130.317 45.798,130.611 45.725,130.88C45.187,132.469 43.72,131.833 43.451,130.709C43.035,129.021 43.182,126.894 43.182,125.157C43.182,124.619 43.182,124.106 43.328,123.592C43.72,122.37 44.918,121.636 46.043,121C48.073,119.851 46.997,116.183 47.094,114.349C47.241,110.632 47.07,106.914 46.923,103.222C46.923,90.897 45.945,78.499 45.236,66.198C45.114,64.119 44.625,61.747 44.991,59.693C45.309,57.859 45.236,56.001 45.823,54.191C46.043,53.531 46.287,52.846 46.116,52.186C46.092,52.137 46.067,52.063 46.018,52.039C45.945,51.99 45.872,52.015 45.774,52.039C44.282,52.455 43.377,53.262 42.644,54.607C41.788,56.196 41.69,58.177 40.785,59.644C39.929,61.063 37.973,62.114 36.481,62.75C35.87,62.995 33.84,63.997 33.204,63.606C35.234,64.829 38.095,64.217 40.052,63.141C40.443,62.921 40.834,62.628 41.274,62.554C42.693,64.804 42.35,69.035 42.277,71.602C42.204,74.61 41.984,77.618 41.837,80.626C41.69,83.561 41.592,86.471 41.763,89.405C41.886,91.777 42.472,93.978 42.57,96.375C42.644,98.184 42.717,100.043 42.081,101.755C40.736,105.349 39.611,108.871 38.951,112.71C38.266,116.745 38.071,120.853 38.095,124.937C38.095,126.674 38.242,129.853 36.506,130.855C35.259,131.564 32.642,131.491 31.248,131.515C27.947,131.589 24.474,130.684 23.276,127.236C22.665,125.475 22.445,123.592 21.833,121.832C21.075,119.729 19.779,117.846 18.41,116.085C17.065,114.349 15.499,112.637 14.717,110.534C14.252,109.311 13.739,107.135 15.255,106.425C18.434,104.787 22.102,104.518 25.672,104.273ZM10.951,98.771C10.927,99.358 10.902,99.945 10.609,100.459C10.486,100.679 10.315,100.85 10.193,101.07C10.071,101.314 10.046,101.608 9.997,101.877C9.753,104.127 9.484,106.376 9.239,108.626C9.019,102.366 8.946,96.106 8.97,89.87C8.97,86.74 9.019,83.61 9.068,80.479C9.141,75.246 10.144,70.062 10.071,64.829C10.071,68.008 11.049,71.309 11.269,74.513L11.269,74.684C11.782,82.656 11.22,90.75 10.951,98.771ZM26.504,134.45C26.528,133.839 26.577,133.178 27.066,132.787C27.066,133.154 27.091,133.545 27.091,133.936C27.213,137.091 27.286,140.221 27.409,143.376C27.482,145.014 27.458,146.677 27.507,148.316C27.555,149.783 27.751,151.275 27.776,152.742C27.8,154.013 27.115,155.041 26.7,156.214C26.333,154.894 25.697,153.647 25.721,152.228C25.892,146.286 26.308,140.392 26.504,134.45ZM28.265,213.193C28.167,215.541 27.433,217.79 27.286,220.138C27.286,219.184 26.479,217.79 26.186,216.886C25.819,215.785 25.428,214.758 25.281,213.609C24.988,211.261 24.963,208.889 25.159,206.517C25.501,202.213 25.526,197.909 26.846,193.776C27.311,194.803 27.482,195.928 27.629,197.029C28.02,200.061 28.24,203.191 28.24,206.248C28.191,208.571 28.338,210.87 28.265,213.193ZM27.776,180.253C27.531,181.794 26.602,183.897 26.944,185.486C26.235,182.209 25.575,178.884 25.208,175.509C24.841,171.987 26.382,168.588 26.748,165.091C27.409,167.757 28.216,170.447 28.558,173.186C28.656,173.993 28.705,174.8 28.705,175.607C28.729,177.196 28.02,178.663 27.776,180.253ZM42.864,101.07C42.839,94.736 41.984,88.403 42.057,82.044C42.13,75.222 42.399,68.448 43.231,61.674C43.231,68.375 44.673,75.075 44.576,81.775C44.527,85.933 44.698,90.065 44.869,94.223C44.942,96.081 44.869,97.915 44.869,99.725C44.894,101.412 44.796,103.197 45.26,104.836C44.967,103.833 44.796,102.757 44.233,101.901C44.013,101.535 43.866,101.29 43.475,101.143C43.426,101.119 42.864,100.948 42.864,101.07Z" style="fill:rgb(174,106,83);fill-opacity:0.71;fill-rule:nonzero;"/>
    <path d="M45.237,104.836C44.943,103.833 44.772,102.757 44.21,101.901C43.99,101.534 43.843,101.29 43.452,101.143C43.403,101.119 42.84,100.947 42.84,101.07C42.816,94.736 41.96,88.402 42.033,82.044C42.107,75.222 42.376,68.448 43.207,61.674C43.207,68.374 44.65,75.075 44.552,81.775C44.503,85.933 44.674,90.065 44.846,94.223C44.919,96.081 44.846,97.915 44.846,99.725C44.87,101.437 44.772,103.197 45.237,104.836Z" style="fill:none;fill-rule:nonzero;stroke:rgb(31,0,0);stroke-width:0.29px;"/>
    <path d="M10.438,100.702C12.37,101.925 14.546,102.365 16.771,102.658C19.241,102.976 21.735,103.123 24.205,103.148C26.773,103.196 29.341,103.099 31.884,102.952C33.84,102.83 35.797,102.61 37.753,102.292C39.318,102.023 41.715,101.925 43.084,101.069" style="fill:none;fill-rule:nonzero;stroke:rgb(31,0,0);stroke-width:0.29px;"/>
    <path d="M9.166,107.672C9.313,108.357 9.092,109.212 9.117,109.922C9.141,111.633 9.166,113.345 9.215,115.057C9.264,116.402 9.019,118.578 9.704,119.777C9.973,120.241 10.389,120.633 10.78,120.999C11.611,121.782 12.492,122.344 12.736,123.543C13.005,124.814 13.543,127.724 12.296,128.654C12.149,128.751 11.978,128.849 11.856,128.972C11.514,129.338 11.66,129.852 11.514,130.268C11.318,130.757 10.78,130.806 10.609,131.221C10.535,131.368 10.535,131.564 10.56,131.735C10.584,132.689 10.511,133.814 9.288,133.031" style="fill:none;fill-rule:nonzero;stroke:rgb(31,0,0);stroke-width:0.29px;"/>
    <path d="M45.065,132.444C44.601,133.08 43.818,133.838 43.011,134.009C42.595,134.107 42.155,134.156 41.74,134.205C40.884,134.278 40.003,134.278 39.147,134.303C37.998,134.327 36.824,134.449 35.675,134.4C33.376,134.303 31.102,134.18 28.803,133.985C28.314,133.936 27.825,133.96 27.336,133.838C27.165,133.789 26.994,133.74 26.847,133.618C26.725,133.496 26.651,133.3 26.725,133.129C26.504,133.52 26.015,133.716 25.575,133.813C24.524,134.082 23.448,133.985 22.372,134.009C21.271,134.034 20.146,134.058 19.046,134.082C17.432,134.107 15.793,133.985 14.155,133.985C12.835,133.985 11.734,133.422 10.438,133.227C10.414,133.227 10.365,133.227 10.34,133.178C10.316,133.153 10.34,133.104 10.34,133.08C10.487,132.591 10.536,132.175 10.536,131.662C10.536,131.49 10.536,131.319 10.585,131.148C10.756,130.732 11.294,130.683 11.49,130.194C11.636,129.779 11.514,129.265 11.832,128.898C11.954,128.776 12.125,128.678 12.272,128.58C13.519,127.651 12.981,124.741 12.712,123.469C12.468,122.296 11.587,121.709 10.756,120.926C10.365,120.559 9.949,120.168 9.68,119.703C8.995,118.481 9.215,116.329 9.191,114.984C9.142,113.272 9.117,111.56 9.093,109.848C9.093,109.041 9.24,108.259 9.313,107.476C9.46,105.74 9.729,104.004 9.949,102.292C10.022,101.681 10.12,101.02 10.536,100.58C10.878,100.922 11.343,101.143 11.807,101.314C12.712,101.656 13.642,101.974 14.571,102.194C16.992,102.781 19.437,102.854 21.907,102.952C23.594,103.001 25.282,103.05 26.969,103.05C27.801,103.05 28.681,102.977 29.512,103.05C30.319,103.123 31.249,102.928 32.08,102.879C33.303,102.805 34.477,102.683 35.65,102.512C36.555,102.365 37.484,102.341 38.414,102.17C39.294,101.998 40.199,101.901 41.079,101.729C41.813,101.583 42.473,101.265 43.207,101.118C43.305,100.971 43.329,101.094 43.476,101.191C44.234,101.681 44.87,102.805 44.919,103.71C44.992,105.08 45.188,106.474 45.359,107.843C45.457,108.503 45.579,109.164 45.628,109.848C45.677,110.484 45.554,111.071 45.628,111.731C45.75,113.174 45.774,114.641 45.799,116.109C45.823,116.867 45.823,117.625 45.872,118.383C45.897,118.847 45.97,119.312 45.872,119.777C45.774,120.241 45.554,120.413 45.212,120.706C44.014,121.782 42.522,122.882 42.595,124.643C42.62,125.548 42.889,126.404 43.084,127.284C43.402,128.678 43.06,130.145 43.158,131.564C43.182,131.759 43.207,131.979 43.329,132.151C43.476,132.322 43.696,132.371 43.916,132.395C44.332,132.469 44.698,132.493 45.065,132.444Z" style="fill:rgb(175,25,0);fill-rule:nonzero;"/>
    <path d="M44.895,103.343C45.286,105.275 45.31,107.329 45.506,109.285C45.848,112.635 45.775,115.961 45.971,119.336C45.971,119.507 45.995,119.678 45.946,119.849C45.897,120.021 45.775,120.167 45.653,120.314C44.772,121.415 43.305,122.099 42.791,123.493C42.449,124.398 42.694,125.278 42.865,126.208C43.06,127.235 43.354,128.335 43.281,129.387C43.232,130.267 42.987,131.294 43.354,132.125C43.403,132.248 43.476,132.37 43.574,132.443C43.672,132.517 43.77,132.566 43.892,132.59C44.552,132.761 44.943,132.492 45.457,132.101C45.628,131.954 45.579,132.003 45.75,131.857" style="fill:none;fill-rule:nonzero;stroke:rgb(31,0,0);stroke-width:0.29px;"/>
    <path d="M27.092,133.936C27.067,133.545 27.067,133.178 27.067,132.787C26.602,133.154 26.529,133.839 26.505,134.45C26.309,140.392 25.869,146.286 25.747,152.228C25.722,153.647 26.333,154.894 26.725,156.214C27.14,155.041 27.825,154.013 27.801,152.742C27.752,151.275 27.581,149.783 27.532,148.316C27.483,146.677 27.507,145.014 27.434,143.376C27.287,140.221 27.214,137.091 27.092,133.936Z" style="fill:none;fill-rule:nonzero;stroke:rgb(31,0,0);stroke-width:0.29px;"/>
    <path d="M10.29,133.154C12.418,134.058 14.79,134.181 17.089,134.156C18.947,134.156 20.83,134.107 22.689,134.01C23.765,133.961 26.504,134.352 26.822,132.958C26.748,133.227 26.846,133.496 27.066,133.643C27.286,133.789 27.58,133.838 27.849,133.863C30.416,134.107 32.984,134.279 35.552,134.303C36.872,134.327 38.193,134.303 39.513,134.23C40.834,134.156 42.472,134.303 43.695,133.741" style="fill:none;fill-rule:nonzero;stroke:rgb(31,0,0);stroke-width:0.29px;"/>
    <path d="M21.859,113.37C22.152,114.251 22.446,115.156 22.788,116.011C23.081,116.892 23.424,117.772 23.815,118.604C24.206,119.435 24.671,120.266 25.209,121.025C25.478,121.391 25.747,121.783 26.065,122.101C26.383,122.418 26.774,122.687 27.19,122.687C27.605,122.687 27.972,122.37 28.266,122.027C28.559,121.685 28.804,121.294 29.048,120.902C29.293,120.511 29.513,120.095 29.733,119.68C29.977,119.288 30.173,118.873 30.369,118.457C30.76,117.625 31.078,116.745 31.371,115.865C31.714,114.984 31.983,114.104 32.301,113.224C32.105,114.128 31.86,115.058 31.616,115.963C31.322,116.843 30.98,117.748 30.589,118.579C30.393,118.995 30.173,119.435 29.929,119.826C29.684,120.218 29.488,120.633 29.244,121.049C28.999,121.465 28.755,121.856 28.437,122.223C28.266,122.394 28.119,122.59 27.899,122.712C27.703,122.859 27.434,122.956 27.165,122.956C26.896,122.956 26.652,122.883 26.432,122.761C26.212,122.639 26.016,122.492 25.845,122.321C25.502,121.978 25.233,121.587 24.964,121.196C24.426,120.413 23.962,119.606 23.57,118.75C23.179,117.894 22.837,117.014 22.519,116.134C22.274,115.18 22.054,114.275 21.859,113.37Z" style="fill:rgb(31,0,0);fill-rule:nonzero;"/>
    <path d="M27.017,133.3L26.944,131.98L26.944,130.684C26.944,129.803 26.92,128.948 26.895,128.067C26.846,127.187 26.895,126.306 26.944,125.451C26.969,125.01 26.969,124.57 26.969,124.154C27.017,123.714 27.017,123.299 27.017,122.858C27.115,123.299 27.164,123.714 27.213,124.154C27.213,124.595 27.189,125.035 27.189,125.475C27.14,126.355 27.115,127.211 27.14,128.092C27.164,128.972 27.189,129.828 27.189,130.708L27.189,132.029C27.14,132.42 27.091,132.86 27.017,133.3Z" style="fill:rgb(31,0,0);fill-rule:nonzero;"/>
    <path d="M28.558,173.161C28.216,170.422 27.409,167.756 26.749,165.066C26.382,168.563 24.841,171.963 25.208,175.484C25.551,178.834 26.235,182.16 26.944,185.461C26.602,183.896 27.531,181.793 27.776,180.228C28.02,178.663 28.73,177.171 28.705,175.582C28.705,174.775 28.656,173.968 28.558,173.161Z" style="fill:none;fill-rule:nonzero;stroke:rgb(31,0,0);stroke-width:0.29px;"/>
    <path d="M27.605,197.029C27.458,195.928 27.287,194.803 26.822,193.776C25.477,197.885 25.477,202.213 25.135,206.517C24.939,208.865 24.964,211.261 25.257,213.609C25.404,214.783 25.795,215.785 26.162,216.886C26.48,217.791 27.262,219.184 27.262,220.138C27.409,217.79 28.143,215.541 28.241,213.193C28.338,210.87 28.192,208.571 28.192,206.248C28.216,203.191 27.996,200.061 27.605,197.029Z" style="fill:none;fill-rule:nonzero;stroke:rgb(31,0,0);stroke-width:0.29px;"/>
    <path d="M26.749,193.873C26.871,190.596 27.165,187.27 26.724,184.018" style="fill:none;fill-rule:nonzero;stroke:rgb(31,0,0);stroke-width:0.29px;"/>
    <path d="M26.552,155.504C26.748,156.335 26.797,157.118 26.797,157.974C26.822,158.903 26.797,159.808 26.822,160.737C26.846,162.498 26.773,164.259 26.552,166.019" style="fill:none;fill-rule:nonzero;stroke:rgb(31,0,0);stroke-width:0.29px;"/>
    <path d="M27.066,219.085C27.653,220.479 27.604,222.484 27.531,223.976" style="fill:none;fill-rule:nonzero;stroke:rgb(31,0,0);stroke-width:0.29px;"/>
    <path d="M19.926,72.752C21.344,71.725 22.665,70.576 23.961,69.402C24.621,68.815 25.281,68.252 25.942,67.69C26.113,67.543 26.284,67.421 26.455,67.274C26.626,67.128 26.846,67.005 27.091,66.956C27.36,66.908 27.58,67.005 27.8,67.103C27.996,67.201 28.191,67.348 28.363,67.494C29.047,68.081 29.61,68.766 30.172,69.426C30.441,69.769 30.735,70.111 31.004,70.429C31.15,70.6 31.297,70.722 31.468,70.894C31.639,71.04 31.786,71.187 31.957,71.334C32.593,71.921 33.278,72.459 34.011,72.948C34.745,73.437 35.503,73.853 36.335,74.17C35.503,73.901 34.696,73.51 33.963,73.046C33.204,72.581 32.52,72.043 31.835,71.48C31.493,71.187 31.175,70.918 30.857,70.576C30.563,70.258 30.294,69.915 30.001,69.573C29.438,68.913 28.876,68.228 28.216,67.69C28.045,67.543 27.873,67.421 27.702,67.323C27.531,67.225 27.335,67.177 27.14,67.201C26.773,67.274 26.455,67.617 26.113,67.886C25.428,68.448 24.792,69.01 24.107,69.573C23.447,70.135 22.762,70.698 22.078,71.236C21.369,71.774 20.659,72.287 19.926,72.752Z" style="fill:rgb(31,0,0);fill-rule:nonzero;"/>
    <path d="M27.384,85.468C27.458,86.813 27.507,88.182 27.531,89.527C27.58,90.872 27.58,92.242 27.629,93.587C27.629,94.932 27.653,96.301 27.653,97.646L27.653,99.676C27.653,100.36 27.653,101.021 27.629,101.705C27.58,101.021 27.58,100.36 27.531,99.676L27.458,97.646C27.409,96.301 27.409,94.932 27.36,93.587C27.36,92.242 27.335,90.872 27.335,89.527C27.36,88.182 27.36,86.813 27.384,85.468Z" style="fill:rgb(31,0,0);fill-rule:nonzero;"/>
    <path d="M13.03,105.594C14.081,106.058 15.231,106.303 16.355,106.474L19.779,106.963C22.053,107.281 24.377,107.403 26.675,107.33C28.974,107.306 31.273,107.061 33.571,106.768C34.721,106.621 35.846,106.425 36.995,106.23C38.144,106.034 39.269,105.789 40.394,105.569C38.144,106.132 35.895,106.621 33.596,106.963C33.033,107.037 32.446,107.134 31.884,107.208C31.322,107.281 30.735,107.33 30.148,107.379C29.561,107.428 28.998,107.477 28.412,107.501C27.825,107.526 27.262,107.575 26.675,107.575C24.352,107.599 22.029,107.501 19.755,107.134L16.331,106.596C15.206,106.376 14.081,106.107 13.03,105.594Z" style="fill:rgb(31,0,0);fill-rule:nonzero;"/>
    <path d="M9.802,124.667C10.145,124.96 10.438,125.327 10.683,125.719C10.805,125.914 10.903,126.11 11.025,126.33C11.123,126.526 11.221,126.77 11.27,126.99C11.367,127.43 11.441,127.895 11.636,128.262C11.685,128.36 11.759,128.433 11.832,128.506C11.905,128.58 12.003,128.629 12.101,128.653C12.297,128.702 12.541,128.678 12.688,128.482C12.639,128.58 12.541,128.678 12.443,128.726C12.321,128.775 12.199,128.775 12.077,128.775C11.954,128.751 11.832,128.726 11.734,128.653C11.636,128.58 11.563,128.482 11.465,128.384C11.196,127.968 11.123,127.504 11.025,127.064C10.976,126.843 10.903,126.648 10.805,126.452C10.707,126.257 10.609,126.036 10.512,125.841C10.316,125.425 10.096,125.034 9.802,124.667Z" style="fill:rgb(31,0,0);fill-rule:nonzero;"/>
    <path d="M46.019,126.502C45.994,126.771 45.994,127.04 45.97,127.309L45.921,128.116C45.897,128.654 45.823,129.192 45.75,129.754C45.676,130.292 45.579,130.83 45.432,131.368C45.359,131.637 45.261,131.906 45.139,132.151C45.065,132.273 44.992,132.395 44.894,132.493C44.796,132.591 44.649,132.664 44.503,132.616C44.649,132.64 44.772,132.542 44.845,132.444C44.918,132.347 44.992,132.224 45.041,132.102C45.139,131.857 45.212,131.588 45.261,131.344C45.383,130.806 45.456,130.292 45.53,129.754L45.75,128.14C45.823,127.578 45.872,127.04 46.019,126.502Z" style="fill:rgb(31,0,0);fill-rule:nonzero;"/>
    <path d="M37.289,160.151C36.995,160.274 36.702,160.323 36.384,160.347C36.066,160.371 35.748,160.371 35.455,160.323C35.137,160.274 34.843,160.2 34.55,160.078C34.256,159.956 33.987,159.785 33.792,159.54C34.33,159.858 34.892,160.005 35.479,160.078C36.066,160.2 36.677,160.2 37.289,160.151Z" style="fill:rgb(31,0,0);fill-rule:nonzero;"/>
    <path d="M19.754,160.445C19.437,160.69 19.094,160.934 18.703,161.057C18.312,161.203 17.847,161.203 17.456,161.032C17.064,160.861 16.747,160.568 16.478,160.274C16.209,159.956 15.988,159.638 15.768,159.296C16.062,159.565 16.331,159.858 16.624,160.127C16.918,160.396 17.211,160.665 17.554,160.812C17.896,160.959 18.263,160.983 18.654,160.885C19.021,160.788 19.388,160.616 19.754,160.445Z" style="fill:rgb(31,0,0);fill-rule:nonzero;"/>
    <path d="M27.165,57.345C27.14,56.783 27.165,56.221 27.214,55.658C27.263,55.096 27.312,54.533 27.312,53.971C27.312,52.846 27.263,51.745 27.165,50.62C27.092,49.496 26.994,48.371 26.945,47.27C26.92,46.708 26.896,46.145 26.896,45.583C26.896,45.02 26.92,44.458 26.945,43.896C26.969,45.02 27.043,46.145 27.14,47.246L27.434,50.596C27.507,51.721 27.581,52.846 27.532,53.971C27.434,55.12 27.214,56.221 27.165,57.345Z" style="fill:rgb(31,0,0);fill-rule:nonzero;"/>
    <path d="M30.759,28.269C31.003,27.951 31.297,27.682 31.59,27.438C31.884,27.193 32.202,26.973 32.52,26.729C32.324,27.095 32.031,27.364 31.737,27.609C31.444,27.878 31.101,28.074 30.759,28.269Z" style="fill:rgb(31,0,0);fill-rule:nonzero;"/>
    <path d="M21.54,26.606C21.906,26.923 22.249,27.192 22.665,27.437C23.056,27.682 23.471,27.877 23.912,28.073C23.423,28.073 22.958,27.901 22.542,27.657C22.127,27.413 21.76,27.046 21.54,26.606Z" style="fill:rgb(31,0,0);fill-rule:nonzero;"/>
    <path d="M36.139,63.313C36.8,63.141 37.436,62.995 38.071,62.775C38.707,62.579 39.319,62.31 39.905,61.968C41.055,61.307 41.935,60.207 42.228,58.935C42.4,58.3 42.498,57.639 42.669,56.979C42.815,56.319 43.011,55.658 43.28,55.047C43.549,54.436 43.891,53.824 44.332,53.311C44.772,52.797 45.285,52.333 45.848,51.966C44.772,52.773 43.94,53.873 43.476,55.12C43.231,55.732 43.036,56.368 42.889,57.028C42.742,57.688 42.644,58.348 42.473,59.009C42.155,60.354 41.201,61.503 40.003,62.139C38.805,62.799 37.46,63.068 36.139,63.313Z" style="fill:rgb(31,0,0);fill-rule:nonzero;"/>
    <path d="M42.62,65.562C42.645,64.926 42.767,64.315 42.865,63.704C42.962,63.092 43.06,62.481 43.085,61.845C43.109,61.234 43.085,60.598 43.109,59.962C43.109,59.644 43.134,59.326 43.158,59.008C43.207,58.691 43.256,58.373 43.329,58.079C43.305,58.397 43.28,58.691 43.28,59.008L43.28,59.938C43.305,60.573 43.329,61.185 43.305,61.821C43.28,62.456 43.158,63.092 43.011,63.704L42.791,64.608C42.742,64.951 42.693,65.244 42.62,65.562Z" style="fill:rgb(31,0,0);fill-rule:nonzero;"/>
    <path d="M17.7,63.802C16.428,63.557 15.157,63.141 14.032,62.457C13.47,62.114 12.956,61.674 12.516,61.161C12.1,60.623 11.807,60.036 11.586,59.4C11.391,58.764 11.244,58.128 11.146,57.468C11.097,57.15 11.049,56.808 11.024,56.49C11,56.172 10.951,55.854 10.828,55.561C10.633,54.949 10.266,54.411 9.826,53.922C9.41,53.433 8.921,52.993 8.407,52.577C8.945,52.944 9.459,53.36 9.899,53.824C10.339,54.313 10.731,54.851 10.975,55.487C11.024,55.634 11.073,55.805 11.122,55.976C11.146,56.148 11.171,56.319 11.195,56.465C11.244,56.783 11.293,57.101 11.342,57.419C11.44,58.055 11.586,58.691 11.807,59.302C12.002,59.913 12.296,60.5 12.663,61.014C13.054,61.503 13.567,61.919 14.081,62.286C14.619,62.652 15.206,62.921 15.793,63.166C16.453,63.435 17.089,63.606 17.7,63.802Z" style="fill:rgb(31,0,0);fill-rule:nonzero;"/>
    <path d="M10.145,66.467C10.12,65.807 10.096,65.171 10.023,64.535C9.949,63.899 9.876,63.239 9.778,62.603C9.705,61.967 9.607,61.307 9.558,60.671C9.533,60.353 9.509,60.011 9.509,59.693C9.509,59.375 9.509,59.033 9.533,58.715C9.558,58.886 9.558,59.033 9.582,59.204L9.631,59.693C9.656,60.011 9.705,60.329 9.754,60.647L10.023,62.579C10.096,63.214 10.169,63.875 10.194,64.535C10.243,65.171 10.243,65.831 10.145,66.467Z" style="fill:rgb(31,0,0);fill-rule:nonzero;"/>
    <path d="M33.425,3.545C33.107,3.276 32.764,3.032 32.447,2.787C32.006,2.469 30.441,1.32 29.854,1.736C30.27,1.442 30.71,1.149 31.126,0.855C29.61,1.149 27.971,1.565 26.431,1.565C25.82,1.565 25.208,1.442 24.597,1.393C24.157,1.345 22.909,1.393 22.592,1.1C22.763,1.247 22.934,1.393 23.13,1.565C22.151,1.883 21.173,2.225 20.195,2.592C20.391,2.616 20.586,2.641 20.782,2.69C19.73,3.717 18.826,4.597 18.165,5.942C17.774,6.749 17.456,7.629 17.285,8.534C17.114,9.488 17.212,10.491 16.991,11.469C16.991,11.469 17.53,11.273 17.554,11.249C17.481,12.178 17.798,13.058 17.872,13.963C17.921,14.599 17.652,15.21 17.921,15.822C18.214,15.773 18.508,15.895 18.679,16.139C18.85,16.384 18.923,16.677 18.972,16.971C19.119,15.601 19.339,14.232 19.584,12.863C19.779,11.787 19.877,10.124 20.806,9.341C20.709,9.439 20.66,9.586 20.709,9.708C21.1,9.39 21.491,9.048 21.907,8.73C21.956,8.852 21.98,8.95 22.029,9.072C22.445,8.828 22.983,8.485 23.472,8.461C24.499,8.412 25.428,8.803 26.406,8.925C26.627,8.95 26.847,8.901 27.067,8.828C28.387,8.461 29.512,8.069 30.882,8.118C31.151,8.118 31.444,8.143 31.64,8.314C31.811,8.436 31.909,8.607 32.006,8.803C32.3,9.39 32.569,9.977 32.813,10.588C32.74,10.564 32.642,10.539 32.569,10.539C32.52,10.539 33.131,12.325 33.18,12.471C33.449,13.205 33.596,13.987 33.718,14.77C33.841,15.553 33.963,16.311 34.085,17.093C34.207,16.726 34.33,16.335 34.476,15.968C34.501,15.87 34.574,15.773 34.648,15.773C34.745,15.773 34.794,15.944 34.917,15.919C34.99,15.919 35.014,15.846 35.039,15.797C35.234,15.332 36.164,12.765 35.919,12.422C36.041,12.594 36.164,12.814 36.31,12.985C36.262,12.471 36.066,11.958 36.041,11.42C35.993,10.368 36.066,9.317 35.919,8.241C35.821,7.605 35.626,5.6 34.794,5.428C35.088,5.477 35.357,5.551 35.65,5.6C34.965,4.866 34.207,4.181 33.425,3.545Z" style="fill:rgb(31,0,0);fill-rule:nonzero;"/>
    <path d="M40.248,105.301C39.71,105.57 39.148,105.741 38.561,105.912C34.599,107.086 30.833,108.284 26.652,108.578C23.888,108.773 20.856,108.162 18.19,107.526C16.919,107.233 15.672,106.866 14.4,106.474C13.3,106.132 11.979,105.447 10.854,105.35C12.982,105.521 15.109,105.667 17.261,105.765C16.943,105.423 16.625,105.105 16.307,104.763C17.139,104.591 17.946,104.274 18.68,103.833C15.892,103.589 13.177,102.684 10.805,101.217C14.473,102.929 18.875,103.002 22.837,103.271C27.63,103.589 32.301,103.198 37.094,102.635C34.624,103.589 31.934,103.736 29.342,104.029C26.529,104.322 23.717,104.469 20.88,104.64C21.443,104.909 22.054,105.129 22.69,105.252C22.079,105.374 21.492,105.594 20.954,105.936C21.076,105.863 22.715,106.646 22.959,106.695C23.766,106.915 24.597,107.037 25.453,107.135C29.66,107.575 34.33,106.572 38.341,105.35C39.246,105.081 40.15,104.763 41.08,104.787C40.835,104.983 40.542,105.154 40.248,105.301Z" style="fill-opacity:0.28;fill-rule:nonzero;"/>
    <path d="M30.392,117.404C29.585,118.798 29.194,120.975 27.189,120.559C25.648,120.241 24.474,118.725 23.838,117.404C23.154,116.01 22.713,114.494 21.833,113.198C22.2,116.524 22.836,119.801 24.132,122.882C25.575,126.281 25.746,130.17 25.648,133.813C25.795,133.618 25.941,133.398 26.161,133.275C26.382,133.153 26.699,133.153 26.846,133.349C26.993,130.585 26.968,127.797 27.433,125.059C27.506,124.618 27.604,124.178 27.8,123.787C27.947,123.518 28.142,123.298 28.338,123.078C30.368,120.657 31.37,117.576 32.299,114.568C32.324,114.47 32.348,114.397 32.373,114.299C32.446,114.03 32.544,113.761 32.52,113.492C31.859,114.812 31.126,116.108 30.392,117.404Z" style="fill-opacity:0.28;fill-rule:nonzero;"/>
    <path d="M42.865,38.637C43.011,38.637 43.158,38.662 43.28,38.686C43.403,38.711 43.549,38.76 43.672,38.809C43.818,38.858 43.941,38.906 44.063,38.955C44.21,39.029 44.356,39.078 44.503,39.151C44.552,39.175 44.625,39.2 44.723,39.273C44.821,39.322 44.968,39.396 45.139,39.493C45.188,39.518 45.286,39.567 45.359,39.616C45.432,39.664 45.53,39.713 45.628,39.762C45.701,39.811 45.775,39.86 45.848,39.909C45.897,39.934 45.946,39.958 45.946,39.958C45.946,39.958 46.068,40.031 46.19,40.129C46.264,40.178 46.337,40.227 46.411,40.3C46.484,40.349 46.557,40.423 46.606,40.472C46.704,40.545 46.802,40.643 46.875,40.716C46.949,40.789 47.022,40.863 47.095,40.912C47.218,41.034 47.315,41.132 47.364,41.181C47.487,41.303 47.584,41.425 47.707,41.523C47.804,41.621 47.878,41.719 48,41.841C48.098,41.939 48.171,42.061 48.245,42.159C48.318,42.281 48.391,42.403 48.465,42.526C48.22,41.963 48.098,41.548 47.658,40.936C47.609,40.863 47.511,40.765 47.389,40.618C47.34,40.545 47.266,40.472 47.169,40.398C47.095,40.3 46.997,40.227 46.875,40.129C46.826,40.08 46.753,40.007 46.679,39.958C46.606,39.909 46.533,39.836 46.459,39.787C46.313,39.664 46.19,39.591 46.19,39.591C46.19,39.591 46.166,39.567 46.093,39.518C46.044,39.469 45.946,39.42 45.873,39.371C45.775,39.322 45.677,39.273 45.579,39.224C45.481,39.175 45.408,39.127 45.335,39.102C45.139,39.004 44.992,38.955 44.87,38.906C44.748,38.858 44.674,38.833 44.625,38.809C43.916,38.589 43.476,38.637 42.865,38.637Z" style="fill:white;fill-opacity:0.1;fill-rule:nonzero;"/>
    <path d="M6.843,40.055C6.916,40.007 7.014,40.055 7.112,40.031C7.136,40.031 7.21,40.007 7.259,39.982C7.332,39.958 7.405,39.933 7.479,39.909C7.625,39.835 7.723,39.762 7.723,39.762C7.723,39.762 7.845,39.689 7.968,39.591C8.017,39.542 8.09,39.493 8.139,39.42C8.188,39.371 8.212,39.322 8.237,39.297C8.286,39.2 8.31,39.102 8.383,39.053C8.31,39.102 8.212,39.053 8.114,39.077C8.09,39.077 8.017,39.102 7.968,39.126C7.894,39.151 7.821,39.175 7.748,39.2C7.601,39.273 7.503,39.346 7.503,39.346C7.503,39.346 7.381,39.42 7.259,39.517C7.21,39.566 7.136,39.615 7.087,39.689C7.038,39.737 7.014,39.786 6.99,39.811C6.916,39.909 6.916,40.007 6.843,40.055Z" style="fill:white;fill-opacity:0.1;fill-rule:nonzero;"/>
    <path d="M26.357,81.995C26.333,82.607 26.26,83.022 26.211,83.756C26.211,83.878 26.186,84.074 26.186,84.514C26.162,85.15 26.137,86.226 26.137,87.131C26.113,88.035 26.088,88.793 26.088,88.793C26.088,88.793 26.088,88.94 26.064,89.209C26.039,89.478 26.039,89.821 26.015,90.236C25.966,91.043 25.942,92.021 25.917,92.731C25.917,93.293 25.893,93.635 25.893,93.831C25.893,94.565 25.942,94.98 25.893,95.592C25.942,94.98 26.039,94.565 26.137,93.831C26.162,93.66 26.186,93.318 26.26,92.755C26.333,92.046 26.431,91.068 26.48,90.261C26.553,89.454 26.553,88.818 26.553,88.818C26.553,88.818 26.577,88.06 26.577,87.131C26.577,86.201 26.529,85.15 26.504,84.49C26.48,84.074 26.48,83.878 26.48,83.756C26.406,83.022 26.333,82.607 26.357,81.995Z" style="fill:white;fill-opacity:0.1;fill-rule:nonzero;"/>
    <path d="M1.732,122.59C1.708,123.201 1.561,123.617 1.488,124.351C1.463,124.473 1.463,124.668 1.414,125.084C1.39,125.28 1.365,125.647 1.39,125.94C1.39,126.258 1.488,126.527 1.488,126.527C1.488,126.527 1.512,126.576 1.536,126.674C1.561,126.772 1.61,126.894 1.708,127.016C1.781,127.138 1.903,127.285 2.026,127.383C2.148,127.481 2.27,127.554 2.368,127.627C2.612,127.774 2.784,127.896 2.906,127.994C3.028,128.092 3.126,128.19 3.199,128.239C3.444,128.483 3.615,128.703 3.762,128.924C3.909,129.144 4.031,129.388 4.104,129.682C4.031,129.388 3.982,129.119 3.909,128.85C3.811,128.581 3.688,128.312 3.468,127.994C3.419,127.921 3.322,127.799 3.199,127.676C3.077,127.554 2.881,127.383 2.637,127.236C2.539,127.163 2.441,127.089 2.343,127.016C2.246,126.943 2.172,126.845 2.123,126.747C2.074,126.649 2.026,126.576 2.001,126.503C1.977,126.429 1.977,126.38 1.977,126.38C1.977,126.38 1.928,126.185 1.903,125.891C1.879,125.622 1.879,125.28 1.879,125.06L1.879,124.302C1.83,123.617 1.708,123.201 1.732,122.59Z" style="fill:white;fill-opacity:0.1;fill-rule:nonzero;"/>
    <path d="M44.943,122.59C44.821,122.688 44.699,122.712 44.552,122.81C44.503,122.834 44.43,122.883 44.332,122.981C44.234,123.054 44.136,123.152 44.063,123.275C43.892,123.495 43.769,123.715 43.769,123.715C43.769,123.715 43.647,123.935 43.549,124.204C43.5,124.326 43.476,124.473 43.451,124.595C43.427,124.717 43.427,124.815 43.427,124.864C43.427,125.06 43.476,125.158 43.451,125.304C43.476,125.158 43.574,125.084 43.647,124.913C43.696,124.84 43.818,124.595 43.94,124.351C44.063,124.13 44.161,123.935 44.161,123.935C44.161,123.935 44.283,123.739 44.405,123.519C44.478,123.421 44.527,123.299 44.601,123.201C44.65,123.103 44.699,123.03 44.723,122.981C44.796,122.81 44.845,122.712 44.943,122.59Z" style="fill:white;fill-opacity:0.1;fill-rule:nonzero;"/>
    <path d="M16.967,159.32C16.747,158.758 16.649,158.342 16.453,157.633C16.429,157.51 16.356,157.315 16.233,156.923C16.111,156.557 15.989,156.092 15.842,155.554C15.695,155.04 15.549,154.478 15.402,153.94C15.28,153.426 15.157,152.937 15.06,152.595C14.986,152.253 14.913,152.033 14.913,152.033C14.913,152.033 14.864,151.861 14.815,151.543C14.742,151.25 14.668,150.834 14.57,150.37C14.473,149.905 14.375,149.392 14.277,148.902C14.179,148.413 14.106,147.924 14.033,147.509C13.935,146.946 13.886,146.604 13.861,146.433C13.739,145.699 13.641,145.308 13.592,144.696C13.641,145.308 13.592,145.723 13.641,146.457C13.641,146.628 13.69,146.995 13.715,147.557C13.764,147.973 13.812,148.462 13.886,148.976C13.959,149.489 14.033,150.003 14.13,150.468C14.228,150.932 14.302,151.348 14.375,151.641C14.448,151.935 14.473,152.13 14.473,152.13C14.473,152.13 14.522,152.35 14.619,152.693C14.693,153.035 14.839,153.524 14.986,154.038C15.133,154.551 15.304,155.114 15.5,155.627C15.671,156.141 15.842,156.63 15.989,156.972C16.136,157.364 16.209,157.559 16.258,157.657C16.527,158.391 16.722,158.758 16.967,159.32Z" style="fill:white;fill-opacity:0.1;fill-rule:nonzero;"/>
    <path d="M34.378,158.367C34.452,158.44 34.476,158.538 34.574,158.66C34.598,158.685 34.672,158.734 34.745,158.782C34.843,158.831 34.941,158.88 35.039,158.905C35.136,158.929 35.259,158.929 35.332,158.929C35.405,158.929 35.454,158.905 35.454,158.905C35.454,158.905 35.503,158.905 35.577,158.88C35.65,158.856 35.748,158.831 35.846,158.758C35.943,158.709 36.041,158.636 36.09,158.562C36.164,158.489 36.188,158.416 36.212,158.391C36.286,158.244 36.261,158.147 36.31,158.049C36.237,158.147 36.139,158.147 36.041,158.196C36.017,158.22 35.943,158.244 35.895,158.269C35.87,158.293 35.821,158.293 35.772,158.318C35.723,158.342 35.699,158.342 35.65,158.342C35.577,158.367 35.503,158.391 35.454,158.391C35.405,158.391 35.356,158.416 35.356,158.416L35.259,158.416C35.21,158.416 35.136,158.44 35.039,158.44L34.794,158.44C34.721,158.44 34.647,158.416 34.623,158.416C34.55,158.416 34.452,158.416 34.378,158.367Z" style="fill:white;fill-opacity:0.1;fill-rule:nonzero;"/>
    <path d="M13.152,222.485C13.666,222.167 14.081,222.045 14.717,221.678C14.815,221.605 15.011,221.507 15.353,221.287C15.549,221.164 16.013,220.847 16.013,220.847C16.013,220.847 16.404,220.578 16.6,220.431C17.04,220.088 17.309,219.868 17.456,219.771C18.018,219.306 18.287,218.939 18.752,218.572C18.263,218.939 17.847,219.061 17.236,219.453C17.089,219.55 16.796,219.746 16.331,220.04C16.111,220.186 15.744,220.455 15.744,220.455C15.744,220.455 15.304,220.773 15.108,220.92C14.766,221.164 14.619,221.287 14.521,221.36C13.935,221.8 13.641,222.143 13.152,222.485Z" style="fill:white;fill-opacity:0.1;fill-rule:nonzero;"/>
    <path d="M34.942,217.936C35.431,218.302 35.675,218.669 36.262,219.134C36.36,219.207 36.507,219.329 36.849,219.574C37.24,219.867 37.583,220.063 37.754,220.185C38.365,220.577 38.805,220.699 39.319,221.041C38.83,220.674 38.585,220.308 37.998,219.843C37.852,219.721 37.534,219.476 37.143,219.207C37.118,219.207 37.143,219.207 37.143,219.207C36.8,218.963 36.629,218.865 36.531,218.791C35.871,218.376 35.455,218.278 34.942,217.936Z" style="fill:white;fill-opacity:0.1;fill-rule:nonzero;"/>
    <path d="M33.083,19.392C33.009,20.003 32.838,20.394 32.667,21.103C32.642,21.226 32.593,21.421 32.496,21.813C32.447,22.057 32.3,22.62 32.3,22.62C32.3,22.62 32.178,23.109 32.104,23.353C31.958,23.891 31.884,24.234 31.835,24.405C31.64,25.114 31.615,25.554 31.395,26.116C31.64,25.554 31.909,25.212 32.178,24.527C32.251,24.356 32.373,24.038 32.545,23.5C32.593,23.378 32.642,23.182 32.667,23.011C32.716,22.864 32.74,22.742 32.74,22.742C32.74,22.742 32.765,22.595 32.814,22.424C32.838,22.253 32.887,22.033 32.911,21.91C32.985,21.495 33.009,21.299 33.009,21.152C33.132,20.443 33.034,20.003 33.083,19.392Z" style="fill:white;fill-opacity:0.1;fill-rule:nonzero;"/>
</svg>
