<?xml version="1.0" encoding="UTF-8" standalone="no"?>
<!DOCTYPE svg PUBLIC "-//W3C//DTD SVG 1.1//EN" "http://www.w3.org/Graphics/SVG/1.1/DTD/svg11.dtd">
<svg width="100%" height="100%" viewBox="0 0 76 230" version="1.1" xmlns="http://www.w3.org/2000/svg" xmlns:xlink="http://www.w3.org/1999/xlink" xml:space="preserve" xmlns:serif="http://www.serif.com/" style="fill-rule:evenodd;clip-rule:evenodd;stroke-miterlimit:10;">
    <path d="M75.236,98.11C75.361,95.814 75.486,93.543 75.161,91.246C74.862,89.05 73.714,87.228 72.691,85.232C72.566,84.982 72.416,84.708 72.391,84.408C72.341,84.084 72.441,83.759 72.541,83.435C73.539,79.991 73.24,77.096 73.539,73.652C73.764,70.757 73.464,68.111 73.589,65.316C73.639,63.943 73.19,62.571 72.765,61.273C72.366,60.1 71.617,58.977 71.268,57.854C70.619,55.683 71.218,53.262 71.043,51.041C70.844,48.295 69.197,44.652 67.25,42.705C65.977,41.457 64.33,40.658 62.658,40.035C60.936,39.386 59.538,39.985 57.791,40.06C57.617,40.06 57.442,40.085 57.292,40.035C55.695,39.61 54.048,37.514 52.575,36.665C50.703,35.592 48.807,34.844 46.885,33.845C46.76,33.77 46.61,33.696 46.511,33.596C45.887,32.997 46.061,30.95 45.937,30.127C45.862,29.553 46.486,28.729 46.61,28.055C46.86,26.757 47.135,25.485 47.384,24.187C47.709,24.212 47.983,23.962 48.183,23.688C49.331,22.19 49.456,19.844 49.555,18.022C49.58,17.698 49.58,17.349 49.456,17.049C49.206,16.4 48.782,16.151 48.532,15.402C48.258,14.628 48.083,13.805 47.783,13.006C47.184,11.434 46.386,9.936 45.562,8.464C44.514,6.542 43.291,4.496 41.27,3.647C40.122,3.173 38.849,3.123 37.626,3.248C34.282,3.572 30.912,5.219 29.29,8.139C28.342,9.861 28.042,11.858 28.017,13.83C28.017,14.528 28.042,15.926 27.269,16.25C26.62,16.55 25.996,15.527 25.372,16.525C25.172,16.85 25.122,17.249 25.097,17.648C25.048,18.547 25.073,19.47 25.222,20.368C25.347,21.117 25.547,21.891 26.021,22.49C26.495,23.089 27.294,23.463 28.042,23.263C28.591,24.636 28.616,26.358 28.791,27.806C28.841,28.255 28.916,28.704 29.215,29.054C29.365,29.228 29.59,29.353 29.715,29.578C29.839,29.802 29.814,30.102 29.789,30.376C29.615,31.799 29.24,33.521 27.968,34.394C26.894,35.118 25.522,35.268 24.374,35.817C22.727,36.591 21.254,37.963 19.807,39.061C18.933,39.735 18.334,39.735 17.286,39.81C16.188,39.885 15.115,40.109 14.041,40.209C10.298,40.584 7.603,43.479 6.055,46.723C4.732,49.493 4.009,52.538 3.959,55.633C3.934,57.105 4.608,58.628 4.233,60.075C3.834,61.597 3.16,62.92 2.985,64.592C2.362,70.532 3.385,76.597 3.909,82.536C3.959,83.111 4.009,83.709 3.834,84.283C3.734,84.633 3.535,84.957 3.36,85.282C2.012,87.553 1.089,89.2 1.039,91.895C0.989,95.789 0.864,99.857 0.989,103.825C1.114,107.643 1.912,111.387 2.436,115.155C2.686,117.002 2.836,118.849 2.911,120.721C2.985,122.617 2.237,123.94 1.713,125.712C1.139,127.659 1.238,129.93 1.089,131.951C1.039,132.476 1.014,133 1.238,133.474C1.513,134.023 2.087,134.322 2.611,134.622C3.709,135.271 4.383,136.494 5.282,137.392C5.756,137.866 6.355,138.365 7.029,138.315C7.503,138.29 7.927,138.016 8.376,138.041C9.749,138.116 9.899,140.112 11.496,139.788C12.17,139.638 12.744,139.189 13.243,138.715C13.792,141.735 13.767,144.754 14.316,147.749C14.79,150.245 15.09,152.89 15.938,155.311C16.787,157.682 18.584,159.878 18.534,162.449C18.509,163.971 18.883,165.519 18.783,167.041C18.609,169.337 17.311,171.134 17.211,173.505C17.111,176.425 17.011,179.32 17.161,182.24C17.411,188.055 18.808,193.72 19.931,199.385C21.079,205.2 21.479,210.816 21.379,216.731C21.379,217.155 21.354,217.604 21.179,218.003C20.98,218.428 20.605,218.752 20.256,219.027C18.534,220.424 16.837,221.822 15.115,223.219C14.316,223.868 13.492,224.542 12.519,224.941C11.022,225.54 8.925,224.941 7.627,225.54C5.681,226.414 6.979,227.861 8.501,228.435C9.674,228.86 10.997,228.735 12.245,228.635C15.589,228.361 18.908,228.66 22.252,228.51C23.875,228.435 25.447,227.936 27.069,227.986C29.49,228.061 34.157,229.284 34.082,225.441C34.032,223.544 32.984,222.346 32.385,220.599C31.711,218.652 31.362,216.606 31.137,214.559C30.688,210.566 30.837,206.523 30.863,202.53C30.863,201.557 30.887,200.583 31.087,199.61C31.811,195.966 34.631,192.921 35.005,189.303C35.579,183.488 35.654,177.872 33.882,172.257C32.834,168.963 34.656,166.217 35.33,163.148C36.054,159.928 36.353,156.634 36.503,153.34C36.653,150.12 36.478,146.876 36.628,143.656C36.727,141.485 36.902,139.314 37.177,137.142C37.202,137.043 37.202,136.918 37.252,136.843C37.326,136.693 37.451,136.593 37.576,136.494C38,136.094 38.25,135.52 38.225,134.946C38.375,135.495 38.574,135.994 38.824,136.494C39.048,136.993 39.223,137.043 39.747,137.242C39.947,137.317 39.947,139.813 39.972,140.162C40.172,141.66 40.072,143.157 40.072,144.655C40.072,146.277 40.072,147.899 40.122,149.521C40.246,152.915 40.147,156.309 40.446,159.704C40.596,161.451 40.845,163.198 41.27,164.895C41.644,166.342 42.617,167.715 42.842,169.162C43.391,172.706 41.17,175.651 40.995,179.02C40.795,182.514 41.02,185.958 41.22,189.477C41.394,192.447 42.717,194.469 43.915,197.089C46.81,203.354 44.888,211.29 44.439,217.928C44.339,219.426 44.215,220.973 43.541,222.321C42.992,223.419 42.068,224.392 42.068,225.615C42.068,226.938 43.241,228.011 44.514,228.361C47.06,229.059 49.78,227.936 52.376,227.986C55.021,228.011 57.567,228.535 60.162,228.735C62.483,228.935 66.551,229.633 68.573,228.036C69.122,227.612 69.022,226.688 68.523,226.189C68.024,225.715 67.3,225.565 66.601,225.59C65.902,225.615 65.228,225.715 64.53,225.665C62.708,225.49 61.909,223.694 60.661,222.57C59.139,221.198 57.417,220.1 55.545,219.301C55.271,219.176 54.971,219.052 54.796,218.827C54.597,218.552 54.572,218.203 54.547,217.879C54.222,211.065 54.946,204.277 56.094,197.563C57.267,190.725 59.039,184.211 58.615,177.223C58.465,174.628 57.766,172.182 57.342,169.637C56.843,166.717 57.716,163.797 57.242,160.902C57.192,160.502 57.092,160.103 57.192,159.729C57.267,159.454 57.442,159.229 57.592,159.03C61.784,153.34 61.61,144.68 63.057,138.016C62.982,139.064 64.33,139.788 65.328,139.463C66.327,139.139 66.975,138.141 67.375,137.167C67.774,137.766 68.223,138.44 68.947,138.54C69.771,138.665 70.494,137.991 71.068,137.367C72.017,136.319 73.913,134.946 74.487,133.673C75.136,132.176 74.637,129.506 74.637,127.883C74.637,127.384 74.637,126.86 74.537,126.386C74.163,124.789 73.04,123.441 72.84,121.819C72.541,119.448 73.265,116.553 73.514,114.182C74.088,108.741 74.962,103.45 75.236,98.11ZM11.471,125.063C11.321,124.988 11.171,124.914 11.097,124.764C11.022,124.639 11.022,124.514 10.997,124.389C10.822,122.093 10.498,119.897 10.697,117.576C10.922,114.881 11.671,112.335 12.07,109.665C12.07,110.114 12.07,110.563 12.095,110.987C12.095,115.904 12.769,120.796 12.744,125.737C12.344,125.537 11.895,125.313 11.471,125.063ZM16.612,86.804C16.013,87.827 15.239,89.2 15.065,90.473C14.765,92.669 14.591,94.89 14.391,97.086C14.291,98.21 14.191,99.333 14.066,100.481C13.967,101.429 13.992,102.502 13.717,103.425C13.667,103.55 13.542,103.725 13.443,103.625C13.393,103.575 13.393,103.525 13.393,103.475C13.293,98.784 13.942,94.017 13.393,89.325C13.318,88.751 13.268,88.177 13.318,87.603C13.467,86.28 14.116,85.032 14.316,83.709C14.566,81.888 15.264,80.166 15.489,78.394C15.614,77.42 15.664,76.397 15.639,75.374C15.614,74.026 15.514,72.678 15.414,71.381C16.188,75.349 17.111,79.666 17.136,83.685C17.211,84.758 17.161,85.881 16.612,86.804ZM62.458,88.102C61.909,92.394 61.585,96.712 61.709,101.055C61.759,101.878 61.784,102.677 61.809,103.475C61.759,102.677 61.709,101.853 61.709,101.055C61.46,96.088 61.086,90.872 59.663,86.205C59.513,85.656 59.314,85.132 59.289,84.558C59.114,80.765 60.512,76.946 61.41,73.302C60.611,76.522 60.736,79.966 61.809,83.11C62.109,83.984 62.458,84.833 62.583,85.756C62.658,86.53 62.558,87.328 62.458,88.102ZM63.307,127.085C63.506,121.619 63.332,116.104 63.831,110.588C65.104,115.48 65.827,120.496 66.052,125.537C65.827,125.687 63.332,126.985 63.307,127.085Z" style="fill:rgb(226,168,138);fill-rule:nonzero;"/>
    <path d="M70.269,48.82C70.344,51.665 69.745,54.56 68.997,57.281C68.922,57.53 68.872,57.755 68.897,58.004C69.097,59.477 70.794,60.675 71.592,61.823C73.714,64.817 73.289,68.885 72.641,72.479C72.291,74.426 71.842,76.323 71.817,78.294C71.767,80.116 70.844,81.564 70.669,83.311C70.494,85.158 71.617,86.206 73.14,86.83C73.364,86.929 73.539,87.029 73.714,87.179C73.389,86.53 73.04,85.881 72.69,85.232C72.566,84.983 72.416,84.708 72.391,84.409C72.341,84.084 72.441,83.76 72.541,83.436C73.539,79.991 73.239,77.096 73.539,73.652C73.763,70.757 73.464,68.112 73.589,65.317C73.639,63.944 73.19,62.571 72.765,61.274C72.366,60.101 71.617,58.978 71.268,57.855C70.619,55.683 71.218,53.262 71.043,51.041C70.968,49.918 70.619,48.645 70.145,47.398C70.22,47.847 70.269,48.321 70.269,48.82Z" style="fill:rgb(174,106,83);fill-opacity:0.71;fill-rule:nonzero;"/>
    <path d="M66.601,225.54C65.902,225.54 65.228,225.665 64.53,225.615C62.708,225.441 61.909,223.644 60.661,222.521C59.139,221.148 57.417,220.05 55.545,219.251C55.271,219.127 54.971,219.002 54.796,218.777C54.597,218.503 54.572,218.153 54.547,217.829C54.222,211.015 54.946,204.227 56.094,197.514C57.267,190.675 59.039,184.162 58.615,177.174C58.465,174.578 57.766,172.132 57.342,169.587C56.843,166.667 57.716,163.747 57.242,160.852C57.192,160.452 57.092,160.053 57.192,159.679C57.267,159.404 57.442,159.18 57.592,158.98C61.784,153.29 61.61,144.63 63.057,137.966C62.982,139.014 64.33,139.738 65.328,139.414C66.327,139.089 66.975,138.091 67.375,137.118C67.774,137.717 68.223,138.39 68.947,138.49C69.771,138.615 70.494,137.941 71.068,137.317C72.017,136.269 73.913,134.896 74.487,133.624C75.136,132.126 74.637,129.456 74.637,127.834C74.637,127.334 74.637,126.81 74.537,126.336C74.163,124.739 73.04,123.391 72.84,121.769C72.541,119.398 73.265,116.503 73.514,114.132C73.664,112.76 73.839,111.387 74.013,109.989C73.389,112.909 72.765,115.829 72.316,118.799C72.042,120.571 71.842,122.468 72.691,124.04C73.065,124.764 73.664,125.363 74.013,126.087C74.687,127.509 74.737,130.579 74.313,132.126C74.188,132.6 73.888,133 73.589,133.399C72.591,134.622 71.118,136.519 69.396,136.494C67.25,136.494 68.423,133.149 67.774,132.001C67.325,133.748 67.774,135.77 66.801,137.292C66.576,137.617 66.252,137.941 65.852,137.891C65.079,137.791 64.754,135.795 64.48,135.146C63.981,133.948 64.006,132.75 63.631,131.502C63.531,131.153 63.407,130.779 63.481,130.429C63.556,130.08 63.806,129.78 64.055,129.506C65.054,128.458 66.227,127.659 67.375,126.835C68.548,125.987 69.172,124.939 69.197,123.491C69.247,121.02 68.473,118.624 68.024,116.229C67.475,113.159 66.851,110.114 66.376,107.044C65.328,100.281 65.503,93.917 66.376,87.129C66.476,86.255 66.601,85.382 66.451,84.533C66.052,82.087 64.48,80.141 64.355,77.57C64.18,74.351 64.205,71.131 64.205,67.912C64.23,64.942 63.806,61.997 63.881,59.052C63.906,57.779 64.08,56.506 64.355,55.259C63.581,56.781 62.932,58.378 62.433,60C61.959,61.573 62.034,62.92 60.561,63.869C58.29,65.341 54.821,65.865 52.226,65.017C49.181,64.018 46.236,62.596 43.166,61.673C42.692,61.523 42.368,61.298 41.869,61.298C41.644,61.298 40.571,61.847 40.496,61.797C43.341,63.569 46.036,65.591 49.031,67.113C52.026,68.635 55.42,69.609 58.715,69.06C59.214,68.985 59.838,68.935 60.062,69.359C60.162,69.534 60.162,69.759 60.137,69.958C60.062,71.381 60.312,72.853 60.187,74.251C60.037,75.898 59.339,77.595 58.964,79.217C58.191,82.537 57.666,85.981 58.39,89.375C58.515,89.974 58.69,90.598 58.59,91.197C58.465,91.945 57.966,92.569 57.442,93.118C56.668,93.892 55.77,94.566 54.771,95.065C54.372,95.265 53.823,95.439 53.499,95.14C53.249,94.915 53.224,94.541 53.224,94.192L53.224,91.995C53.224,91.621 53.224,91.222 53.324,90.847C53.623,89.749 54.722,89.025 55.121,87.952C55.295,87.453 55.32,86.904 55.42,86.38C55.645,85.232 56.493,84.508 56.868,83.51C57.267,82.462 57.067,81.064 56.993,79.941C56.843,77.395 56.693,74.825 56.568,72.279C55.645,74.301 54.746,76.821 54.622,79.043C54.572,80.116 54.746,81.264 54.197,82.187C53.798,82.861 53.024,83.31 52.7,84.034C52.45,84.583 52.5,85.232 52.425,85.831C52.301,86.829 51.527,87.204 50.953,87.927C50.379,88.676 50.005,89.649 49.855,90.548C49.655,91.871 50.005,93.218 50.129,94.541C50.354,96.937 49.805,99.408 48.582,101.479C49.78,101.13 50.554,100.031 51.327,99.058C52.101,98.085 53.124,97.112 54.372,97.211C53.474,100.281 51.552,105.622 47.958,106.47C46.012,106.92 43.341,106.545 41.344,106.445C39.024,106.346 36.727,106.096 34.431,105.747C33.683,105.622 32.884,105.472 32.235,105.098C30.738,104.249 30.413,101.753 29.814,100.281C29.066,98.384 28.242,96.537 27.269,94.741C26.994,94.241 26.72,93.717 26.595,93.168C26.32,91.771 27.194,90.872 27.344,89.599C27.443,88.851 26.994,88.102 26.47,87.553C25.946,87.004 25.297,86.53 24.873,85.906C23.974,84.633 23.45,82.137 22.976,80.615C22.352,78.618 21.978,76.547 21.578,74.475C21.404,73.627 21.254,72.778 20.755,72.08C21.005,73.752 21.154,75.449 21.179,77.171C21.204,78.543 20.88,80.191 21.279,81.513C21.703,82.886 22.327,83.884 22.577,85.332C22.776,86.405 23.176,87.403 23.875,88.277C24.299,88.801 24.848,89.35 24.848,90.024C24.848,90.348 24.723,90.673 24.623,90.997C23.974,92.969 24.249,94.691 24.848,96.587C25.147,97.511 25.272,98.409 25.322,99.383C25.347,100.007 25.048,101.579 25.322,102.078C24.623,100.805 24.074,99.433 23.7,98.035C23.5,97.261 23.35,96.463 22.976,95.739C22.352,94.566 21.129,94.691 20.43,93.742C19.008,91.771 19.931,88.027 19.831,85.781C19.657,82.711 18.958,79.692 18.284,76.722C17.86,74.875 17.785,73.078 17.66,71.206C17.635,70.782 17.635,70.308 17.91,70.008C18.134,69.759 18.484,69.684 18.808,69.609C20.056,69.359 21.279,69.11 22.552,68.96C26.645,68.461 29.265,65.466 32.834,63.819C34.182,63.195 35.654,62.895 37.102,62.596C34.082,61.523 30.763,63.32 27.943,64.318C24.873,65.416 21.653,66.315 18.459,65.191C17.535,64.867 16.837,64.143 16.213,63.395C14.416,61.223 12.195,57.505 12.669,54.51C12.17,57.729 12.319,61.024 13.093,64.168C13.842,67.263 14.116,70.083 14.166,73.327C14.191,75.673 13.917,77.87 13.268,80.116C12.694,82.112 11.496,83.809 10.872,85.806C10.647,86.555 10.423,87.353 10.672,88.102C10.922,88.851 11.77,89.45 12.494,89.125C14.141,95.664 13.368,102.477 11.571,108.891C10.797,111.686 9.399,114.357 9.25,117.252C9.075,120.371 9.449,123.516 10.398,126.486C10.772,125.862 11.521,125.538 12.27,125.538C12.02,125.388 11.745,125.263 11.496,125.113C11.346,125.038 11.196,124.964 11.121,124.814C11.047,124.689 11.047,124.564 11.022,124.439C10.847,122.143 10.523,119.947 10.722,117.626C10.947,114.931 11.695,112.385 12.095,109.715C12.095,110.164 12.095,110.613 12.12,111.038C12.12,115.879 12.769,120.721 12.769,125.563C12.819,125.563 12.868,125.587 12.918,125.587C13.842,125.837 14.591,126.561 15.09,127.384C15.514,128.058 16.238,129.431 16.013,130.279C15.813,131.003 15.015,131.228 14.566,131.852C13.268,133.599 14.341,135.87 12.644,137.617C12.245,138.016 11.77,138.44 11.221,138.465C9.3,138.565 9.15,135.67 7.752,135.196C7.628,135.92 6.879,136.394 6.13,136.369C5.406,136.344 4.732,135.945 4.208,135.446C3.584,134.847 2.711,134.447 2.436,133.549C2.262,132.925 2.461,132.251 2.686,131.652C3.609,129.032 4.558,126.411 5.331,123.791C5.905,121.869 5.082,119.223 4.832,117.302C4.508,114.981 4.158,112.635 3.834,110.314C3.185,105.772 2.586,101.204 2.362,96.612C2.237,93.867 2.187,90.872 3.46,88.376C4.732,85.881 6.529,83.809 6.205,80.79C6.005,79.043 5.182,77.37 4.807,75.648C4.458,74.026 4.134,72.379 3.834,70.757C3.385,68.436 3.21,65.666 4.183,63.444C4.633,62.421 5.456,61.673 6.055,60.674C6.305,60.275 7.203,57.554 7.453,57.455C6.904,57.629 6.28,57.779 5.731,57.58C2.985,56.656 5.182,50.092 5.831,48.345C7.553,43.753 11.695,40.758 16.612,40.734C18.234,40.734 19.782,41.083 21.404,40.609C21.628,40.559 21.878,40.409 21.828,40.184C21.803,40.085 21.728,40.01 21.653,39.91C20.43,38.437 23.974,36.416 24.898,35.867C26.37,34.968 28.242,34.719 29.615,33.795C30.338,33.321 30.488,32.473 31.237,32.023C32.036,31.549 33.059,31.724 33.932,31.699C34.956,31.674 35.954,31.574 36.952,31.424C34.731,31.075 32.185,30.326 30.738,28.48C29.49,26.882 30.089,24.561 29.914,22.715C29.789,21.467 30.039,20.169 29.939,18.896C29.789,16.9 29.365,14.903 29.914,12.931C30.214,11.908 30.813,10.66 31.786,10.136C32.834,9.562 34.681,10.011 35.854,10.086C37.376,10.161 38.924,10.136 40.446,9.936C41.644,9.762 42.792,9.313 43.591,10.56C44.215,11.509 44.289,13.056 44.439,14.154C44.614,15.427 45.063,16.625 45.687,17.748C46.236,18.771 46.286,19.645 46.336,20.818C46.411,23.039 45.912,25.41 45.787,27.631C45.737,28.579 45.313,29.328 44.514,29.877C44.215,30.077 41.919,31.749 41.794,31.699C42.717,32.173 43.69,31.899 44.664,31.699C44.913,31.649 45.213,31.574 45.437,31.724C45.562,31.824 45.637,31.949 45.712,32.098C45.937,32.622 46.061,33.197 46.086,33.771C46.336,33.82 46.586,33.795 46.81,33.721C46.735,33.671 46.635,33.621 46.561,33.546C45.937,32.947 46.111,30.9 45.987,30.077C45.912,29.503 46.536,28.679 46.66,28.005C46.91,26.708 47.184,25.435 47.434,24.137C47.758,24.162 48.033,23.912 48.233,23.638C48.407,23.413 48.532,23.189 48.657,22.939C48.457,23.039 48.183,23.039 48.008,22.889C46.96,22.016 48.108,18.447 48.482,17.424C48.557,17.174 48.657,16.949 48.832,16.75C48.931,16.625 49.056,16.525 49.206,16.45C48.981,16.126 48.757,15.851 48.582,15.352C48.308,14.579 48.133,13.755 47.833,12.956C47.234,11.384 46.436,9.887 45.612,8.414C44.564,6.492 43.341,4.446 41.32,3.597C40.172,3.123 38.899,3.073 37.676,3.198C34.332,3.523 30.962,5.17 29.34,8.09C28.392,9.812 28.092,11.808 28.067,13.78C28.067,14.479 28.092,15.876 27.319,16.201C26.67,16.5 26.046,15.477 25.422,16.475C25.222,16.8 25.172,17.199 25.147,17.598C25.097,18.497 25.122,19.42 25.272,20.319C25.397,21.067 25.597,21.841 26.071,22.44C26.545,23.039 27.344,23.413 28.092,23.214C28.641,24.586 28.666,26.308 28.841,27.756C28.891,28.205 28.966,28.654 29.265,29.004C29.415,29.178 29.64,29.303 29.764,29.528C29.889,29.752 29.864,30.052 29.839,30.326C29.665,31.749 29.29,33.471 28.017,34.344C26.944,35.068 25.572,35.218 24.424,35.767C22.776,36.541 21.304,37.913 19.857,39.011C18.983,39.685 18.384,39.685 17.336,39.76C16.238,39.835 15.165,40.06 14.091,40.16C10.348,40.534 7.652,43.429 6.105,46.673C4.782,49.444 4.059,52.488 4.009,55.583C3.984,57.055 4.658,58.578 4.283,60.025C3.884,61.548 3.21,62.87 3.035,64.543C2.411,70.482 3.435,76.547 3.959,82.487C4.009,83.061 4.059,83.66 3.884,84.234C3.784,84.583 3.584,84.908 3.41,85.232C2.062,87.503 1.139,89.15 1.089,91.846C1.039,95.739 0.914,99.807 1.039,103.775C1.164,107.593 1.962,111.337 2.486,115.106C2.736,116.952 2.886,118.799 2.961,120.671C3.035,122.568 2.287,123.89 1.763,125.662C1.189,127.609 1.288,129.88 1.139,131.902C1.089,132.426 1.064,132.95 1.288,133.424C1.563,133.973 2.137,134.273 2.661,134.572C3.759,135.221 4.433,136.444 5.331,137.342C5.806,137.816 6.405,138.316 7.078,138.266C7.553,138.241 7.977,137.966 8.426,137.991C9.799,138.066 9.948,140.063 11.546,139.738C12.22,139.588 12.794,139.139 13.293,138.665C13.842,141.685 13.817,144.705 14.366,147.699C14.84,150.195 15.14,152.841 15.988,155.261C16.837,157.632 18.634,159.829 18.584,162.399C18.559,163.922 18.933,165.469 18.833,166.991C18.659,169.287 17.361,171.084 17.261,173.455C17.161,176.375 17.061,179.27 17.211,182.19C17.461,188.005 18.858,193.67 19.981,199.336C21.129,205.151 21.529,210.766 21.429,216.681C21.429,217.105 21.404,217.554 21.229,217.954C21.029,218.378 20.655,218.702 20.306,218.977C19.307,219.8 18.309,220.624 17.311,221.448C19.183,220.424 21.154,219.476 23.076,218.478C23.35,218.328 23.625,218.178 23.825,217.954C24.049,217.654 24.124,217.28 24.149,216.905C24.399,214.559 23.75,211.889 23.55,209.543C22.851,201.706 21.129,194.294 19.682,186.583C18.933,182.564 18.534,178.322 19.008,174.254C19.058,173.73 19.233,173.081 19.757,172.981C20.106,172.906 20.43,173.131 20.705,173.355C21.828,174.304 22.552,175.651 23.45,176.824C23.924,177.448 24.523,178.047 25.297,178.147C26.645,178.347 27.743,176.924 29.091,176.724C26.37,175.302 23.35,172.407 23.026,169.212C22.901,168.114 23.051,166.991 22.926,165.893C22.652,163.298 21.279,160.977 20.056,158.755C19.158,157.108 18.409,156.135 18.11,154.263C17.785,152.242 17.461,150.22 17.211,148.199C16.762,144.73 15.689,141.236 16.762,137.791C22.103,137.791 27.394,137.966 32.709,138.54C32.884,138.565 33.084,138.59 33.209,138.69C33.433,138.865 33.458,139.189 33.458,139.464C33.458,142.733 34.332,146.027 34.182,149.272C34.057,152.017 33.882,154.762 33.558,157.483C33.233,160.128 33.283,162.649 32.41,165.244C32.185,165.943 31.911,166.617 31.761,167.341C31.337,169.712 32.335,171.608 33.084,173.755C34.307,177.174 34.382,181.367 34.032,184.96C33.907,186.333 33.708,187.731 33.233,189.028C32.585,190.8 31.187,192.123 30.214,193.695C29.265,195.218 28.492,196.715 28.117,198.462C27.718,200.409 28.217,202.38 28.442,204.327C28.966,208.719 29.116,212.987 30.164,217.28C30.513,218.727 31.062,220.324 31.686,221.672C32.26,222.92 32.984,223.993 33.283,225.316C33.433,225.965 33.558,226.514 33.832,226.988C34.057,226.614 34.182,226.115 34.157,225.466C34.107,223.569 33.059,222.371 32.46,220.624C31.786,218.677 31.436,216.631 31.212,214.584C30.763,210.591 30.912,206.548 30.937,202.555C30.937,201.582 30.962,200.608 31.162,199.635C31.886,195.991 34.706,192.947 35.08,189.328C35.654,183.513 35.729,177.897 33.957,172.282C32.909,168.988 34.731,166.243 35.405,163.173C36.129,159.953 36.428,156.659 36.578,153.365C36.727,150.145 36.553,146.901 36.703,143.681C36.802,141.51 36.977,139.339 37.252,137.168C37.277,137.068 37.277,136.943 37.326,136.868C37.401,136.718 37.526,136.618 37.651,136.519C38.075,136.119 38.325,135.545 38.3,134.971C38.45,135.52 38.649,136.02 38.899,136.519C39.123,137.018 39.298,137.068 39.822,137.267C40.022,137.342 40.022,139.838 40.047,140.187C40.246,141.685 40.147,143.182 40.147,144.68C40.147,146.302 40.147,147.924 40.197,149.546C40.321,152.94 40.221,156.335 40.521,159.729C40.671,161.476 40.92,163.223 41.344,164.92C41.719,166.367 42.692,167.74 42.917,169.187C43.466,172.731 41.245,175.676 41.07,179.046C40.87,182.539 41.095,185.984 41.295,189.503C41.469,192.472 42.792,194.494 43.99,197.114C46.885,203.379 44.963,211.315 44.514,217.954C44.414,219.451 44.289,220.998 43.616,222.346C43.067,223.444 42.143,224.417 42.143,225.64C42.143,226.963 43.316,228.036 44.589,228.386C45.812,228.71 47.085,228.635 48.357,228.46C47.634,228.211 46.91,227.936 46.186,227.687C45.612,227.487 45.038,227.263 44.564,226.888C43.466,225.965 43.416,224.043 44.464,223.045C46.361,221.273 47.209,219.476 47.334,216.806C47.509,212.987 47.684,209.144 47.858,205.325C47.908,204.003 47.983,202.655 47.584,201.382C46.86,198.911 45.363,196.615 44.14,194.369C42.567,191.474 42.717,189.178 42.592,186.058C42.493,183.638 42.368,180.942 42.542,178.571C42.717,176.076 44.639,174.029 45.562,171.783C45.737,171.334 45.912,170.885 45.937,170.41C45.937,169.836 45.687,169.287 45.437,168.738C44.614,167.016 43.491,165.045 43.241,163.173C42.967,161.002 43.316,158.556 43.341,156.36C43.366,153.39 43.341,150.395 43.316,147.425C43.316,145.154 43.042,143.082 43.566,140.836C44.165,138.216 45.887,139.089 48.133,138.964C50.529,138.865 52.9,138.39 55.295,138.266C56.543,138.216 57.716,138.39 58.939,138.465C59.688,138.515 60.911,138.241 61.535,138.765C61.709,138.915 61.759,139.164 61.759,139.414C61.934,141.585 61.685,144.081 61.435,146.277C61.111,149.147 60.212,151.917 59.064,154.563C58.54,155.736 58.016,156.958 57.292,158.057C56.618,159.105 55.545,159.953 55.146,161.151C54.572,162.848 54.896,164.87 55.246,166.592C56.144,170.984 53.948,175.851 48.907,175.002C48.707,175.377 48.857,175.876 49.156,176.175C50.03,177.024 51.252,177.573 52.475,177.548C53.773,177.498 55.994,175.926 56.918,177.398C57.242,177.922 56.993,179.794 56.993,180.443C57.042,181.641 57.042,182.864 57.018,184.062C56.968,186.558 56.469,188.904 56.194,191.324C55.87,194.12 55.87,196.915 55.42,199.71C54.796,203.653 54.097,207.571 53.648,211.54C53.249,214.984 52.126,218.627 55.77,220.574C57.192,221.323 58.814,221.797 59.987,222.895C60.911,223.769 61.485,224.966 62.583,225.59C63.357,226.015 67.574,225.59 66.277,227.462C65.902,228.011 65.153,228.186 64.48,228.261C63.806,228.311 63.107,228.311 62.508,228.66C62.658,228.81 62.808,228.91 62.957,229.034C64.979,229.184 67.225,229.134 68.548,228.061C69.097,227.637 68.997,226.713 68.498,226.214C68.049,225.665 67.3,225.54 66.601,225.54ZM63.856,110.613C65.129,115.505 65.852,120.521 66.077,125.563C65.827,125.712 63.332,127.01 63.332,127.085C63.506,121.619 63.357,116.104 63.856,110.613ZM16.612,86.804C16.013,87.827 15.239,89.2 15.065,90.473C14.765,92.669 14.591,94.89 14.391,97.087C14.291,98.21 14.191,99.333 14.066,100.481C13.967,101.429 13.992,102.502 13.717,103.426C13.667,103.55 13.542,103.725 13.443,103.625C13.393,103.575 13.393,103.525 13.393,103.476C13.293,98.784 13.942,94.017 13.393,89.325C13.318,88.751 13.268,88.177 13.318,87.603C13.467,86.28 14.116,85.032 14.316,83.71C14.566,81.888 15.264,80.166 15.489,78.394C15.614,77.42 15.664,76.397 15.639,75.374C15.614,74.026 15.514,72.679 15.414,71.381C16.188,75.349 17.111,79.667 17.136,83.685C17.211,84.758 17.161,85.881 16.612,86.804ZM61.685,101.055C61.435,96.088 61.061,90.872 59.638,86.205C59.488,85.656 59.289,85.132 59.264,84.558C59.089,80.765 60.487,76.946 61.385,73.302C60.586,76.522 60.711,79.966 61.784,83.111C62.084,83.984 62.433,84.833 62.558,85.756C62.658,86.53 62.558,87.328 62.458,88.102C61.884,92.395 61.585,96.737 61.685,101.055C61.734,101.878 61.759,102.677 61.784,103.476C61.759,102.677 61.709,101.853 61.685,101.055Z" style="fill:rgb(174,106,83);fill-opacity:0.71;fill-rule:nonzero;"/>
    <path d="M51.602,36.143C51.726,37.241 53.823,39.836 54.771,40.485C56.443,41.608 59.488,40.36 61.435,40.56C63.082,40.735 64.779,41.109 66.251,41.858C65.178,41.059 63.905,40.51 62.658,40.036C60.935,39.387 59.538,39.986 57.791,40.061C57.616,40.061 57.442,40.086 57.292,40.036C55.695,39.612 54.047,37.515 52.575,36.667C52.25,36.467 51.926,36.292 51.602,36.143Z" style="fill:rgb(174,106,83);fill-opacity:0.71;fill-rule:nonzero;"/>
    <path d="M47.783,17.349C47.983,16.95 48.283,16.475 48.732,16.475C49.056,16.475 49.356,16.75 49.481,17.049C49.605,17.349 49.605,17.698 49.58,18.023C49.481,19.845 49.356,22.191 48.208,23.688C48.008,23.937 47.734,24.212 47.409,24.187C47.16,25.485 46.86,26.758 46.635,28.055C46.511,28.729 45.862,29.553 45.962,30.127C46.086,30.95 45.887,32.997 46.536,33.596C46.635,33.696 46.785,33.771 46.91,33.845C48.832,34.819 50.728,35.567 52.6,36.666C54.048,37.514 55.72,39.611 57.317,40.035C57.467,40.085 57.641,40.06 57.816,40.06C59.563,39.985 60.961,39.386 62.683,40.035C64.355,40.659 66.002,41.432 67.275,42.705C69.222,44.652 70.869,48.295 71.068,51.041C71.243,53.262 70.644,55.708 71.293,57.854C71.642,58.977 72.391,60.1 72.79,61.273C73.24,62.596 73.689,63.944 73.614,65.316C73.489,68.136 73.789,70.782 73.564,73.652C73.29,77.121 73.564,79.991 72.566,83.435C72.466,83.76 72.391,84.084 72.416,84.408C72.441,84.708 72.591,84.958 72.716,85.232C73.714,87.229 74.862,89.05 75.186,91.247C75.511,93.543 75.386,95.814 75.261,98.11C74.987,103.451 74.113,108.742 73.539,114.082C73.29,116.453 72.566,119.348 72.865,121.719C73.065,123.366 74.188,124.689 74.562,126.286C74.662,126.785 74.662,127.285 74.662,127.784C74.662,129.406 75.161,132.101 74.512,133.574C73.938,134.847 72.042,136.219 71.093,137.267C70.519,137.891 69.821,138.565 68.972,138.44C68.273,138.341 67.799,137.667 67.4,137.068C67,138.041 66.351,139.039 65.353,139.364C64.355,139.688 63.007,138.965 63.082,137.916C61.66,144.58 61.809,153.24 57.617,158.93C57.442,159.155 57.292,159.379 57.217,159.629C57.117,160.003 57.192,160.403 57.267,160.802C57.741,163.722 56.868,166.617 57.367,169.537C57.791,172.083 58.49,174.528 58.64,177.124C59.064,184.112 57.267,190.626 56.119,197.464C54.971,204.177 54.247,210.966 54.572,217.779C54.597,218.103 54.622,218.453 54.821,218.727C54.996,218.977 55.295,219.102 55.57,219.201C57.442,220 59.189,221.123 60.686,222.471C61.934,223.594 62.758,225.391 64.555,225.566C65.253,225.64 65.927,225.516 66.626,225.491C67.325,225.491 68.049,225.615 68.548,226.09C69.047,226.564 69.147,227.487 68.598,227.936C66.576,229.534 62.508,228.835 60.187,228.635C57.592,228.411 55.046,227.911 52.401,227.887C49.805,227.862 47.085,228.96 44.539,228.261C43.266,227.911 42.093,226.838 42.093,225.516C42.093,224.293 43.017,223.294 43.566,222.221C44.24,220.874 44.364,219.326 44.464,217.829C44.913,211.19 46.835,203.254 43.94,196.99C42.717,194.369 41.419,192.348 41.245,189.378C41.02,185.859 40.82,182.44 41.02,178.921C41.195,175.527 43.416,172.607 42.867,169.063C42.642,167.615 41.669,166.243 41.295,164.795C40.87,163.098 40.621,161.351 40.471,159.604C40.172,156.21 40.271,152.816 40.147,149.422C40.097,147.799 40.097,146.177 40.097,144.555C40.097,143.057 40.197,141.535 39.997,140.063C39.947,139.713 39.947,137.218 39.772,137.143C39.248,136.943 39.073,136.893 38.849,136.394C38.599,135.895 38.4,135.371 38.25,134.847C38.275,135.421 38.025,136.02 37.601,136.394C37.476,136.494 37.351,136.594 37.277,136.743C37.227,136.843 37.227,136.943 37.202,137.043C36.927,139.214 36.752,141.385 36.653,143.557C36.503,146.776 36.678,150.02 36.528,153.24C36.378,156.534 36.079,159.829 35.355,163.048C34.656,166.118 32.859,168.863 33.907,172.157C35.679,177.798 35.604,183.413 35.03,189.203C34.681,192.822 31.861,195.867 31.112,199.51C30.912,200.459 30.912,201.457 30.888,202.43C30.838,206.448 30.713,210.466 31.162,214.46C31.387,216.506 31.761,218.553 32.41,220.499C33.009,222.246 34.082,223.444 34.107,225.341C34.182,229.159 29.515,227.961 27.094,227.887C25.472,227.837 23.9,228.336 22.277,228.411C18.933,228.56 15.614,228.261 12.27,228.535C11.022,228.635 9.699,228.76 8.526,228.336C7.004,227.787 5.731,226.314 7.652,225.441C8.975,224.842 11.047,225.441 12.544,224.842C13.517,224.442 14.341,223.794 15.14,223.12C16.862,221.722 18.559,220.325 20.281,218.927C20.655,218.627 21.029,218.328 21.204,217.904C21.379,217.504 21.404,217.055 21.404,216.631C21.479,210.741 21.079,205.101 19.956,199.286C18.833,193.596 17.461,187.93 17.186,182.14C17.061,179.22 17.136,176.325 17.236,173.405C17.311,171.034 18.634,169.212 18.808,166.941C18.933,165.419 18.534,163.872 18.559,162.349C18.609,159.779 16.812,157.582 15.963,155.212C15.115,152.816 14.815,150.145 14.341,147.65C13.792,144.655 13.792,141.635 13.268,138.615C12.769,139.089 12.195,139.563 11.521,139.688C9.924,140.013 9.774,138.016 8.401,137.941C7.927,137.916 7.503,138.191 7.053,138.216C6.38,138.266 5.781,137.767 5.306,137.292C4.408,136.394 3.734,135.196 2.636,134.522C2.112,134.198 1.538,133.898 1.263,133.374C1.039,132.925 1.064,132.376 1.114,131.852C1.263,129.83 1.164,127.584 1.738,125.612C2.262,123.816 3.01,122.518 2.936,120.621C2.861,118.749 2.711,116.902 2.461,115.056C1.937,111.287 1.164,107.544 1.014,103.725C0.889,99.757 1.014,95.689 1.064,91.796C1.114,89.075 2.037,87.453 3.385,85.182C3.584,84.858 3.759,84.533 3.859,84.184C4.034,83.635 3.984,83.011 3.934,82.437C3.41,76.472 2.387,70.408 3.01,64.493C3.185,62.846 3.859,61.498 4.258,59.975C4.658,58.528 3.984,57.006 3.984,55.533C4.009,52.463 4.757,49.419 6.08,46.623C7.627,43.379 10.323,40.484 14.066,40.11C15.14,40.01 16.213,39.785 17.311,39.71C18.334,39.66 18.958,39.635 19.831,38.962C21.279,37.864 22.727,36.491 24.399,35.717C25.572,35.168 26.919,35.018 27.992,34.295C29.265,33.421 29.615,31.724 29.814,30.276C29.839,30.002 29.864,29.728 29.739,29.478C29.615,29.278 29.415,29.129 29.24,28.954C28.941,28.629 28.891,28.155 28.816,27.706C28.641,26.234 28.616,24.536 28.067,23.164C27.319,23.363 26.52,22.964 26.046,22.39C25.572,21.791 25.372,21.042 25.247,20.269C25.097,19.37 25.048,18.447 25.122,17.548C25.147,17.174 25.197,16.775 25.397,16.425C25.896,15.627 26.844,15.801 27.418,16.375C27.468,16.425 27.518,16.475 27.593,16.475C27.693,16.475 27.718,16.351 27.743,16.276C27.818,15.876 27.843,15.452 27.793,15.053" style="fill:none;fill-rule:nonzero;stroke:rgb(31,0,0);stroke-width:0.28px;"/>
    <path d="M49.206,16.624C49.206,16.699 49.231,16.749 49.231,16.824C49.181,16.525 48.757,16.4 48.482,16.525C47.534,16.974 47.309,18.621 47.184,19.519C47.085,18.671 47.01,17.822 46.91,16.974C46.76,16.974 46.635,16.949 46.486,16.949C46.61,16.35 45.937,15.901 45.812,15.302C45.687,15.302 45.562,15.277 45.437,15.277C45.363,14.952 45.213,14.628 45.013,14.353C44.913,14.453 44.839,14.553 44.739,14.653C44.289,12.981 44.564,11.383 44.24,9.736C44.215,9.661 44.215,9.561 44.165,9.487C44.115,9.387 44.015,9.312 43.94,9.262C43.516,8.913 42.617,7.515 42.093,7.864C41.844,8.039 42.243,8.364 42.068,8.538C41.968,8.613 41.27,8.688 41.27,8.738C41.27,8.888 41.245,9.037 41.245,9.212C40.671,9.312 38.3,9.861 37.85,9.212C37.95,9.337 38,9.512 38,9.661C37.277,9.561 36.578,9.537 35.854,9.561C36.054,9.736 36.278,9.911 36.478,10.086C35.38,9.911 34.332,9.611 33.308,9.187C32.585,8.888 32.011,8.463 31.187,8.264C31.362,8.613 31.486,9.087 31.212,9.337C31.112,9.437 30.937,9.487 30.813,9.537C29.839,9.961 29.615,11.209 29.34,12.082C29.19,12.556 28.367,14.927 28.766,15.202C28.641,15.127 28.542,15.002 28.492,14.852C28.192,16.525 27.968,18.197 27.868,19.894C27.818,18.771 27.593,17.673 27.219,16.624C27.194,16.525 27.144,16.425 27.044,16.375C26.894,16.3 26.695,16.375 26.545,16.325C26.295,16.25 26.295,15.901 26.345,15.651C26.42,15.152 26.495,14.653 26.57,14.154C26.42,14.079 26.221,14.079 26.071,14.104C26.071,13.754 25.771,10.859 25.996,10.685C25.846,10.809 25.721,10.909 25.572,11.034C25.796,10.26 26.046,9.487 26.27,8.713C26.021,8.713 25.796,8.813 25.622,8.987C25.871,8.039 26.221,7.041 26.77,6.217C27.269,5.469 28.017,4.895 28.567,4.146C28.616,4.071 28.691,3.971 28.691,3.871C28.691,3.796 28.641,3.722 28.641,3.622C28.616,3.372 28.891,3.197 29.141,3.073C29.565,2.898 29.964,2.698 30.388,2.524C30.214,2.499 30.189,2.249 30.289,2.099C30.388,1.95 30.563,1.9 30.713,1.85C31.661,1.55 32.609,1.251 33.533,0.951C33.882,0.552 34.007,0.652 34.556,0.677C35.604,0.752 36.653,0.901 37.701,1.126C37.676,0.901 37.676,0.677 37.651,0.452C38.25,0.452 38.874,0.477 39.473,0.477C39.573,0.477 39.647,0.477 39.747,0.502C39.847,0.552 39.922,0.627 40.022,0.702C40.546,1.126 41.295,1.051 41.944,0.976C41.794,1.001 41.944,1.201 42.068,1.251C45.437,2.374 47.234,4.82 48.981,7.74C48.782,7.69 48.582,7.615 48.407,7.565C49.206,9.062 48.707,10.784 48.956,12.357C49.131,13.804 49.006,15.227 49.206,16.624Z" style="fill:rgb(31,0,0);fill-rule:nonzero;"/>
    <path d="M15.664,75.349C15.664,76.372 15.639,77.395 15.514,78.368C15.289,80.165 14.591,81.887 14.341,83.684C14.166,85.007 13.493,86.255 13.343,87.578C13.268,88.152 13.343,88.726 13.418,89.3C13.942,93.992 13.318,98.733 13.418,103.45C13.418,103.5 13.418,103.575 13.467,103.6C13.567,103.7 13.717,103.525 13.742,103.4C14.017,102.477 13.992,101.404 14.092,100.455C14.216,99.332 14.316,98.209 14.416,97.061C14.616,94.865 14.79,92.644 15.09,90.448C15.264,89.175 16.013,87.827 16.637,86.779C17.186,85.856 17.236,84.733 17.211,83.659C17.161,79.641 16.263,75.299 15.489,71.356C15.564,72.653 15.664,74.001 15.664,75.349Z" style="fill:none;fill-rule:nonzero;stroke:rgb(31,0,0);stroke-width:0.28px;"/>
    <path d="M62.458,88.102C62.558,87.329 62.658,86.53 62.558,85.756C62.458,84.833 62.084,83.984 61.784,83.111C60.736,79.966 60.586,76.522 61.385,73.303C60.511,76.947 59.089,80.765 59.264,84.558C59.288,85.132 59.463,85.656 59.638,86.206C61.26,91.646 61.535,97.836 61.784,103.476C61.46,98.335 61.784,93.194 62.458,88.102Z" style="fill:none;fill-rule:nonzero;stroke:rgb(31,0,0);stroke-width:0.28px;"/>
    <path d="M12.095,111.012C12.095,110.563 12.07,110.114 12.07,109.689C11.671,112.36 10.922,114.905 10.698,117.601C10.498,119.922 10.847,122.118 10.997,124.414C10.997,124.539 11.022,124.689 11.097,124.788C11.172,124.938 11.322,125.013 11.471,125.088C11.896,125.313 12.32,125.562 12.769,125.787C12.769,120.82 12.095,115.929 12.095,111.012Z" style="fill:none;fill-rule:nonzero;stroke:rgb(31,0,0);stroke-width:0.28px;"/>
    <path d="M66.077,125.562C65.877,120.52 65.129,115.504 63.856,110.612C63.357,116.103 63.531,121.618 63.332,127.109C63.332,126.984 65.827,125.686 66.077,125.562Z" style="fill:none;fill-rule:nonzero;stroke:rgb(31,0,0);stroke-width:0.28px;"/>
    <path d="M12.27,125.411C12.794,125.985 13.567,126.285 14.091,126.859C14.69,127.532 15.689,128.681 15.938,129.554C16.063,129.953 15.963,130.403 15.863,130.802C15.539,132.174 15.364,133.497 15.339,134.92C15.339,135.169 15.339,135.419 15.239,135.644C15.165,135.818 15.065,135.943 14.94,136.093C14.241,136.991 13.817,137.965 13.143,138.863" style="fill:none;fill-rule:nonzero;stroke:rgb(31,0,0);stroke-width:0.28px;"/>
    <path d="M63.856,126.659C63.132,127.208 62.383,127.807 61.784,128.506C61.734,128.581 61.659,128.656 61.634,128.756C61.609,128.88 61.634,129.005 61.659,129.105C61.859,130.028 62.059,131.002 62.034,131.925C62.034,132.724 61.734,133.373 62.034,134.196C62.134,134.496 62.308,134.795 62.433,135.095C62.932,136.193 63.032,137.59 63.107,138.788" style="fill:none;fill-rule:nonzero;stroke:rgb(31,0,0);stroke-width:0.28px;"/>
    <path d="M63.681,112.534C63.881,111.386 63.956,110.188 63.756,109.015C63.457,107.418 63.232,105.771 62.883,104.149C62.558,102.626 58.69,104.024 57.667,104.198C52.65,105.072 47.584,105.696 42.493,106.02C41.469,106.095 40.496,105.896 39.473,105.896C38.175,105.896 36.877,105.896 35.605,105.871C33.009,105.821 30.438,105.721 27.843,105.521C25.322,105.322 22.802,105.047 20.306,104.648C18.185,104.298 16.163,104.448 14.341,103.125C14.241,103.05 14.117,102.951 13.967,102.976C13.742,102.976 13.617,103.25 13.543,103.45C12.669,106.02 12.045,108.791 11.995,111.511" style="fill:none;fill-rule:nonzero;stroke:rgb(31,0,0);stroke-width:0.28px;"/>
    <path d="M15.065,135.993C18.584,137.216 22.327,137.715 26.046,137.84C27.918,137.89 29.815,137.865 31.686,137.765C33.458,137.665 38.799,137.94 38.075,134.745C38.275,135.319 38.5,135.918 38.699,136.492C38.774,136.667 38.824,136.842 38.974,136.966C39.124,137.091 39.323,137.116 39.523,137.166C42.917,137.69 46.486,137.54 49.93,137.49C52.076,137.465 54.222,137.366 56.344,137.116C57.417,136.991 58.49,136.842 59.538,136.642C60.062,136.542 60.562,136.442 61.086,136.317C61.66,136.168 62.234,135.993 62.808,135.818" style="fill:none;fill-rule:nonzero;stroke:rgb(31,0,0);stroke-width:0.28px;"/>
    <path d="M61.085,136.243C60.586,136.368 60.062,136.493 59.538,136.593C58.465,136.793 57.417,136.942 56.344,137.067C54.222,137.317 52.076,137.392 49.929,137.441C46.51,137.491 42.917,137.666 39.522,137.117C39.323,137.092 39.123,137.042 38.973,136.917C38.824,136.793 38.774,136.618 38.699,136.443C38.499,135.869 38.275,135.27 38.075,134.696C38.799,137.916 33.458,137.641 31.686,137.716C29.814,137.816 27.917,137.866 26.046,137.791C24.199,137.741 22.352,137.591 20.505,137.292C18.733,137.017 16.787,136.718 15.189,135.894C15.264,135.47 15.214,135.046 15.214,134.596C15.214,133.673 15.414,132.799 15.614,131.901C15.888,130.678 16.238,129.73 15.514,128.607C14.84,127.608 14.016,126.71 13.068,125.961C12.993,125.911 12.943,125.861 12.893,125.786C12.843,125.687 12.818,125.562 12.818,125.437C12.793,124.189 12.743,122.941 12.644,121.694C12.544,120.471 12.544,119.298 12.519,118.075C12.494,116.652 12.419,115.255 12.319,113.832C12.219,112.409 11.92,110.737 12.095,109.29C12.344,107.418 12.818,105.521 13.318,103.724C13.392,103.425 13.542,103.076 13.842,103.026C14.191,102.951 14.466,103.275 14.74,103.5C15.514,104.149 16.687,103.999 17.635,104.174C18.758,104.373 19.881,104.548 21.029,104.698C22.352,104.872 23.824,104.798 25.122,105.172C26.245,105.471 27.393,105.322 28.516,105.546C29.639,105.796 30.862,105.721 32.035,105.721C33.483,105.721 34.955,105.921 36.403,105.921C38.349,105.921 40.246,106.095 42.193,106.045C45.487,105.946 48.806,105.671 52.076,105.197C53.723,104.972 55.345,104.673 56.967,104.348C58.44,104.049 59.912,103.6 61.435,103.55C61.809,103.525 62.158,103.55 62.508,103.6C62.708,103.625 62.658,103.724 62.757,103.874C62.857,104.024 62.907,104.249 62.957,104.423C63.182,105.372 63.207,106.295 63.381,107.243C63.556,108.142 63.856,109.09 63.756,110.014C63.531,111.985 63.606,114.032 63.556,116.003C63.481,118.1 63.456,120.196 63.506,122.317C63.506,123.191 63.431,124.039 63.356,124.888C63.331,125.312 63.331,125.737 63.307,126.161C63.282,126.56 63.456,126.86 63.157,127.159C62.583,127.758 61.285,128.407 61.684,129.38C62.034,130.204 62.084,131.077 62.034,131.951C62.009,132.6 61.834,133.274 61.959,133.922C62.084,134.571 62.483,135.12 62.658,135.744C62.258,135.994 61.834,136.019 61.385,136.119C61.285,136.194 61.185,136.219 61.085,136.243Z" style="fill:rgb(175,25,0);fill-rule:nonzero;stroke:rgb(36,0,0);stroke-width:0.28px;"/>
    <path d="M38.101,135.945C38.051,135.52 38.002,135.071 37.977,134.647L37.977,133.349L37.977,130.754L37.977,128.158L37.977,126.86C38.027,126.436 38.051,125.987 38.101,125.562C38.151,125.987 38.176,126.436 38.226,126.86L38.226,134.647C38.176,135.071 38.151,135.495 38.101,135.945Z" style="fill:rgb(31,0,0);fill-rule:nonzero;"/>
    <path d="M44.963,117.4C44.314,119.222 43.466,120.994 42.492,122.641C41.993,123.49 41.394,124.263 40.596,124.887C40.196,125.187 39.747,125.436 39.273,125.561C38.798,125.686 38.274,125.711 37.775,125.611C36.777,125.387 35.953,124.763 35.305,124.039C34.98,123.689 34.681,123.29 34.381,122.891C34.107,122.492 33.832,122.067 33.608,121.643C33.133,120.794 32.734,119.921 32.36,119.023C31.985,118.124 31.636,117.226 31.287,116.327C31.711,117.201 32.085,118.099 32.484,118.973C32.884,119.846 33.308,120.72 33.807,121.543C34.306,122.367 34.855,123.165 35.504,123.864C36.153,124.563 36.952,125.162 37.85,125.362C38.299,125.461 38.774,125.461 39.223,125.337C39.672,125.212 40.096,124.987 40.471,124.713C41.219,124.139 41.818,123.365 42.342,122.566C43.341,120.919 44.214,119.197 44.963,117.4Z" style="fill:rgb(31,0,0);fill-rule:nonzero;"/>
    <path d="M67.475,133.324C67.575,134.123 67.575,134.921 67.525,135.72C67.475,136.519 67.325,137.317 67.075,138.066C67.15,137.267 67.225,136.494 67.275,135.695C67.325,134.897 67.375,134.123 67.475,133.324Z" style="fill:rgb(31,0,0);fill-rule:nonzero;"/>
    <path d="M8.052,136.418C8.451,136.692 8.75,137.117 9,137.516C9.25,137.94 9.449,138.365 9.624,138.814C9.275,138.464 9.025,138.04 8.775,137.641C8.551,137.217 8.326,136.817 8.052,136.418Z" style="fill:rgb(31,0,0);fill-rule:nonzero;"/>
    <path d="M20.056,167.415C20.256,168.189 20.456,168.962 20.705,169.711C20.955,170.46 21.179,171.233 21.454,171.982C21.579,172.357 21.703,172.706 21.903,173.055C22.103,173.405 22.327,173.704 22.577,174.029C22.826,174.328 23.076,174.653 23.326,174.952C23.575,175.277 23.825,175.576 24.024,175.925C23.775,175.626 23.5,175.326 23.226,175.027C22.951,174.727 22.677,174.453 22.402,174.153C22.128,173.854 21.878,173.53 21.678,173.18C21.454,172.831 21.304,172.431 21.179,172.057C20.93,171.308 20.68,170.535 20.481,169.761C20.331,169.012 20.156,168.214 20.056,167.415Z" style="fill:rgb(31,0,0);fill-rule:nonzero;"/>
    <path d="M52.325,175.85C52.85,175.401 53.423,175.026 53.773,174.452C54.172,173.903 54.572,173.354 54.971,172.805L55.595,171.981C55.695,171.832 55.794,171.707 55.869,171.582C55.944,171.432 56.019,171.283 56.044,171.133C56.119,170.808 56.144,170.484 56.119,170.135C56.119,169.785 56.094,169.461 56.094,169.111C56.169,169.785 56.344,170.459 56.219,171.183C56.169,171.532 55.944,171.882 55.745,172.131L55.146,172.955C54.746,173.504 54.322,174.053 53.898,174.577C53.698,174.851 53.423,175.101 53.149,175.301C52.924,175.475 52.625,175.65 52.325,175.85Z" style="fill:rgb(31,0,0);fill-rule:nonzero;"/>
    <path d="M55.42,162.848C55.445,162.399 55.445,161.974 55.52,161.525C55.57,161.076 55.695,160.627 55.969,160.252C56.244,159.878 56.568,159.578 56.893,159.279C57.217,158.979 57.566,158.705 57.816,158.355C57.641,158.755 57.342,159.104 57.017,159.429C56.718,159.753 56.393,160.053 56.144,160.402C55.894,160.751 55.77,161.151 55.67,161.575C55.595,161.999 55.52,162.423 55.42,162.848Z" style="fill:rgb(31,0,0);fill-rule:nonzero;"/>
    <path d="M19.407,163.422C19.083,162.648 18.808,161.85 18.509,161.076C18.209,160.302 17.86,159.554 17.561,158.755C18.06,159.454 18.434,160.202 18.734,160.976C19.033,161.775 19.283,162.598 19.407,163.422Z" style="fill:rgb(31,0,0);fill-rule:nonzero;"/>
    <path d="M56.469,73.103C56.493,73.677 56.519,74.275 56.469,74.85C56.419,75.424 56.294,76.022 56.044,76.547C55.92,76.821 55.82,77.071 55.745,77.345C55.67,77.62 55.645,77.919 55.62,78.194C55.595,78.768 55.67,79.342 55.67,79.941C55.695,80.54 55.545,81.114 55.47,81.688C55.42,81.987 55.42,82.262 55.395,82.561C55.371,82.861 55.346,83.16 55.196,83.46C54.896,84.034 54.372,84.358 54.098,84.807C54.023,84.932 53.973,85.032 53.948,85.182C53.898,85.332 53.873,85.456 53.848,85.606C53.798,85.881 53.773,86.18 53.723,86.48C53.673,86.779 53.599,87.079 53.449,87.353C53.299,87.628 53.099,87.877 52.9,88.077C52.5,88.501 52.076,88.9 51.827,89.425C51.702,89.674 51.627,89.949 51.577,90.223C51.527,90.498 51.552,90.797 51.552,91.072C51.577,91.646 51.627,92.22 51.677,92.819C51.727,93.393 51.802,93.992 51.802,94.566C51.802,95.14 51.777,95.763 51.527,96.313C51.278,96.862 50.903,97.311 50.554,97.785C50.204,98.234 50.08,98.858 50.229,99.432C50.03,98.883 50.13,98.234 50.479,97.76C50.803,97.286 51.178,96.812 51.402,96.288C51.627,95.763 51.677,95.165 51.652,94.591C51.627,94.017 51.552,93.443 51.502,92.844C51.427,92.27 51.352,91.671 51.352,91.097C51.352,90.797 51.327,90.498 51.377,90.198C51.427,89.899 51.502,89.599 51.627,89.325C51.901,88.776 52.326,88.351 52.725,87.927C52.925,87.727 53.099,87.503 53.224,87.253C53.349,87.004 53.424,86.729 53.474,86.455C53.524,86.18 53.549,85.881 53.599,85.581C53.624,85.431 53.648,85.282 53.698,85.132C53.723,84.982 53.798,84.832 53.873,84.708C54.198,84.159 54.746,83.859 54.971,83.36C55.221,82.886 55.121,82.262 55.246,81.663C55.346,81.089 55.47,80.515 55.47,79.941C55.47,79.367 55.42,78.768 55.445,78.194C55.47,77.894 55.495,77.595 55.595,77.32C55.67,77.021 55.795,76.771 55.92,76.497C56.169,75.973 56.319,75.399 56.394,74.825C56.493,74.251 56.469,73.677 56.469,73.103Z" style="fill:rgb(31,0,0);fill-rule:nonzero;"/>
    <path d="M41.344,62.045C41.993,62.07 42.667,62.045 43.316,62.245C43.965,62.42 44.489,62.869 45.038,63.268C45.562,63.668 46.111,64.042 46.685,64.366C47.259,64.691 47.858,64.965 48.457,65.215C49.68,65.714 50.953,66.088 52.25,66.338C53.548,66.588 54.846,66.762 56.169,66.762C56.817,66.762 57.491,66.712 58.115,66.613C58.764,66.488 59.388,66.313 59.962,66.013C60.536,65.714 61.06,65.315 61.46,64.816C61.859,64.317 62.133,63.718 62.308,63.094C62.632,61.821 62.732,60.498 62.957,59.175C63.082,58.526 63.231,57.878 63.381,57.229C63.556,56.58 63.756,55.956 64.13,55.382C63.781,55.956 63.606,56.605 63.456,57.229C63.306,57.878 63.182,58.526 63.082,59.175C62.882,60.473 62.807,61.821 62.508,63.118C62.333,63.767 62.058,64.416 61.634,64.94C61.21,65.465 60.661,65.914 60.062,66.213C59.463,66.538 58.814,66.712 58.14,66.837C57.491,66.962 56.817,67.012 56.144,67.012C54.796,67.012 53.473,66.812 52.175,66.563C50.878,66.288 49.58,65.939 48.357,65.39C47.758,65.115 47.159,64.841 46.56,64.491C45.986,64.142 45.462,63.743 44.913,63.343C44.389,62.944 43.89,62.495 43.266,62.295C42.667,62.095 41.993,62.095 41.344,62.045Z" style="fill:rgb(31,0,0);fill-rule:nonzero;"/>
    <path d="M12.669,55.033C12.769,56.331 12.918,57.629 13.193,58.902C13.467,60.174 13.867,61.422 14.441,62.595C15.015,63.743 15.713,64.891 16.737,65.665C17.236,66.064 17.835,66.339 18.434,66.513C19.058,66.688 19.682,66.813 20.331,66.913C21.603,67.088 22.926,67.038 24.174,66.763C24.798,66.613 25.422,66.414 25.996,66.114C26.57,65.84 27.144,65.515 27.718,65.191C28.841,64.542 30.014,63.893 31.262,63.519C32.51,63.119 33.782,62.82 35.005,62.396C33.782,62.895 32.51,63.194 31.287,63.643C30.039,64.043 28.916,64.716 27.793,65.365C27.219,65.69 26.67,66.014 26.071,66.314C25.472,66.613 24.848,66.813 24.199,66.988C22.926,67.287 21.578,67.337 20.256,67.187C19.607,67.112 18.958,66.963 18.334,66.788C17.685,66.613 17.086,66.314 16.562,65.89C15.489,65.066 14.765,63.918 14.216,62.72C13.143,60.274 12.744,57.629 12.669,55.033Z" style="fill:rgb(31,0,0);fill-rule:nonzero;"/>
    <path d="M59.713,93.393C59.563,93.667 59.388,93.942 59.189,94.166C58.989,94.416 58.764,94.616 58.515,94.815C58.016,95.214 57.467,95.489 56.943,95.813C56.418,96.138 55.894,96.462 55.495,96.937C55.096,97.386 54.846,97.96 54.846,98.559C54.821,98.858 54.846,99.183 54.771,99.507C54.721,99.832 54.646,100.131 54.522,100.43C54.272,101.029 53.948,101.554 53.548,102.053C53.149,102.527 52.7,102.976 52.251,103.425L50.878,104.698C51.702,103.775 52.625,102.926 53.374,101.953C53.748,101.454 54.072,100.93 54.297,100.381C54.422,100.106 54.472,99.807 54.522,99.507C54.572,99.208 54.547,98.908 54.572,98.584C54.597,98.259 54.646,97.935 54.771,97.635C54.896,97.336 55.071,97.061 55.295,96.812C55.72,96.313 56.269,95.988 56.818,95.689C57.367,95.389 57.916,95.115 58.415,94.74C58.664,94.566 58.889,94.366 59.114,94.141C59.363,93.892 59.563,93.642 59.713,93.393Z" style="fill:rgb(31,0,0);fill-rule:nonzero;"/>
    <path d="M21.229,74.026C21.429,75.125 21.479,76.248 21.578,77.371C21.653,78.494 21.753,79.592 22.028,80.665C22.052,80.79 22.102,80.94 22.152,81.064C22.202,81.189 22.227,81.339 22.277,81.439C22.377,81.688 22.552,81.913 22.701,82.137C22.851,82.362 23.026,82.612 23.101,82.911C23.176,83.186 23.225,83.485 23.25,83.76C23.3,84.334 23.3,84.883 23.375,85.432C23.425,85.706 23.475,85.956 23.575,86.205C23.675,86.455 23.799,86.68 23.974,86.904C24.324,87.329 24.773,87.628 25.197,88.027C25.397,88.227 25.621,88.427 25.771,88.676C25.946,88.926 26.046,89.2 26.096,89.5C26.121,89.575 26.121,89.65 26.121,89.724C26.121,89.799 26.145,89.874 26.121,89.949C26.121,90.099 26.071,90.249 25.996,90.398C25.846,90.673 25.671,90.872 25.497,91.097C25.147,91.521 25.072,92.07 25.097,92.619C25.122,93.168 25.247,93.718 25.372,94.266C25.422,94.541 25.497,94.816 25.547,95.09C25.596,95.365 25.621,95.639 25.746,95.889C25.846,96.138 26.046,96.338 26.17,96.588C26.32,96.837 26.42,97.087 26.495,97.361C26.67,97.885 26.769,98.459 26.844,99.008C26.744,98.459 26.62,97.91 26.445,97.386C26.345,97.137 26.245,96.862 26.096,96.638C25.946,96.388 25.771,96.188 25.621,95.939C25.497,95.664 25.472,95.39 25.397,95.115C25.347,94.841 25.272,94.566 25.197,94.292C25.072,93.742 24.923,93.193 24.898,92.619C24.873,92.345 24.873,92.045 24.948,91.746C24.997,91.446 25.147,91.172 25.322,90.947C25.497,90.723 25.671,90.498 25.796,90.273C25.846,90.149 25.896,90.049 25.896,89.924L25.896,89.724C25.896,89.65 25.896,89.6 25.871,89.525C25.796,89.001 25.447,88.551 25.022,88.202C24.623,87.828 24.149,87.528 23.775,87.079C23.6,86.854 23.45,86.605 23.35,86.33C23.25,86.056 23.176,85.781 23.151,85.482C23.076,84.908 23.076,84.359 23.026,83.81C23.001,83.535 22.951,83.26 22.876,83.011C22.801,82.761 22.676,82.537 22.502,82.287C22.352,82.063 22.177,81.813 22.052,81.563C22.003,81.414 21.953,81.289 21.928,81.164C21.878,81.039 21.853,80.89 21.828,80.765C21.329,78.494 21.553,76.223 21.229,74.026Z" style="fill:rgb(31,0,0);fill-rule:nonzero;"/>
    <path d="M46.585,28.504C46.61,28.778 46.51,29.053 46.361,29.302C46.211,29.552 46.036,29.752 45.811,29.927C45.387,30.276 44.938,30.55 44.464,30.825C44.639,30.625 44.838,30.426 45.038,30.276C45.237,30.101 45.437,29.927 45.637,29.752C46.036,29.377 46.41,29.028 46.585,28.504Z" style="fill:rgb(31,0,0);fill-rule:nonzero;"/>
    <path d="M31.736,30.8C31.162,30.575 30.613,30.326 30.089,30.001C29.839,29.827 29.59,29.652 29.365,29.402C29.165,29.178 28.991,28.878 28.991,28.554C29.115,28.828 29.29,29.053 29.515,29.253C29.739,29.452 29.964,29.627 30.214,29.777C30.463,29.951 30.713,30.101 30.987,30.251C31.262,30.426 31.511,30.6 31.736,30.8Z" style="fill:rgb(31,0,0);fill-rule:nonzero;"/>
    <path d="M17.386,92.819C18.084,93.868 19.083,94.666 20.231,95.165C20.505,95.315 20.805,95.44 21.079,95.615C21.354,95.789 21.603,95.989 21.828,96.263C22.252,96.787 22.377,97.436 22.552,98.035C22.727,98.634 22.926,99.233 23.201,99.782C23.5,100.356 23.65,100.955 23.9,101.529C24.024,101.804 24.199,102.053 24.424,102.253C24.648,102.453 24.948,102.603 25.197,102.802C25.696,103.201 26.071,103.751 26.245,104.349C26.021,103.775 25.647,103.251 25.122,102.902C24.873,102.727 24.598,102.578 24.324,102.378C24.049,102.178 23.875,101.904 23.725,101.629C23.425,101.055 23.276,100.456 22.976,99.907C22.702,99.333 22.477,98.734 22.302,98.135C22.128,97.536 22.003,96.912 21.628,96.438C21.279,95.964 20.68,95.689 20.156,95.39C19.881,95.24 19.607,95.09 19.332,94.916C19.058,94.741 18.808,94.541 18.584,94.342C18.084,93.843 17.685,93.368 17.386,92.819Z" style="fill:rgb(31,0,0);fill-rule:nonzero;"/>
    <path d="M45.138,123.067C44.215,123.691 43.291,124.265 42.268,124.764C41.769,125.014 41.245,125.214 40.721,125.388C40.196,125.538 39.622,125.663 39.073,125.688C37.95,125.713 36.827,125.513 35.779,125.189C35.255,125.039 34.731,124.839 34.207,124.64C33.708,124.415 33.184,124.215 32.684,123.966C33.208,124.165 33.733,124.34 34.257,124.515C34.781,124.69 35.305,124.864 35.829,124.989C36.902,125.264 37.975,125.463 39.073,125.413C40.147,125.388 41.22,125.014 42.218,124.59C42.717,124.365 43.216,124.116 43.69,123.866C44.165,123.616 44.664,123.342 45.138,123.067Z" style="fill:rgb(31,0,0);fill-rule:nonzero;"/>
    <path d="M14.965,64.067C15.04,65.615 15.165,67.162 15.19,68.709C15.214,70.182 15.439,71.555 15.714,73.027" style="fill:none;fill-rule:nonzero;stroke:rgb(31,0,0);stroke-width:0.28px;"/>
    <path d="M61.185,74.3C61.31,73.551 61.609,72.852 61.709,72.104C61.934,70.506 62.133,68.859 62.033,67.237C61.959,66.189 62.183,65.116 62.133,64.067" style="fill:none;fill-rule:nonzero;stroke:rgb(31,0,0);stroke-width:0.28px;"/>
    <path d="M45.512,24.087C45.512,24.711 45.363,25.135 45.313,25.884C45.313,26.009 45.288,26.208 45.288,26.658L45.288,27.88C45.263,28.155 45.238,28.33 45.163,28.479C45.138,28.554 45.088,28.604 45.063,28.654C45.038,28.704 45.013,28.754 44.963,28.779C44.764,29.028 44.514,29.203 44.289,29.353C44.065,29.503 43.815,29.627 43.516,29.702C43.815,29.627 44.09,29.578 44.364,29.528C44.639,29.453 44.938,29.353 45.263,29.078C45.313,29.053 45.338,29.004 45.388,28.929C45.438,28.879 45.487,28.804 45.537,28.704C45.637,28.529 45.737,28.255 45.737,27.955C45.762,27.731 45.737,27.356 45.737,27.356L45.737,26.707C45.712,26.283 45.712,26.084 45.712,25.934C45.662,25.135 45.512,24.711 45.512,24.087Z" style="fill:white;fill-opacity:0.1;fill-rule:nonzero;"/>
    <path d="M60.961,41.756C61.26,41.706 61.535,41.731 61.809,41.756C62.084,41.781 62.358,41.831 62.732,41.905C62.782,41.93 62.882,41.93 62.982,41.98C63.107,42.005 63.257,42.055 63.431,42.13C63.681,42.205 64.005,42.355 64.355,42.529C64.704,42.704 65.054,42.929 65.353,43.153C65.652,43.378 65.927,43.602 66.102,43.777C66.276,43.952 66.401,44.077 66.401,44.077C66.401,44.077 66.476,44.176 66.626,44.326C66.775,44.501 66.95,44.725 67.15,45C67.35,45.275 67.549,45.599 67.724,45.923C67.899,46.248 68.048,46.572 68.173,46.847C68.223,46.972 68.273,47.096 68.323,47.196C68.373,47.296 68.398,47.396 68.423,47.496C68.473,47.67 68.522,47.795 68.547,47.87C68.772,48.569 68.922,48.968 69.022,49.592C68.947,48.968 68.972,48.544 68.822,47.795C68.797,47.695 68.772,47.571 68.722,47.396C68.697,47.296 68.672,47.196 68.647,47.096C68.622,46.972 68.572,46.847 68.522,46.722C68.423,46.423 68.298,46.098 68.123,45.749C67.949,45.399 67.774,45.05 67.574,44.75C67.375,44.451 67.175,44.201 67.025,44.027C66.875,43.852 66.775,43.752 66.775,43.752C66.775,43.752 66.651,43.627 66.476,43.453C66.276,43.278 66.002,43.028 65.652,42.804C65.328,42.579 64.929,42.355 64.554,42.18C64.18,42.005 63.831,41.905 63.531,41.831C63.307,41.781 63.157,41.756 63.032,41.731C62.907,41.706 62.832,41.706 62.757,41.706C62.009,41.581 61.584,41.681 60.961,41.756Z" style="fill:white;fill-opacity:0.1;fill-rule:nonzero;"/>
    <path d="M70.919,65.365C71.093,65.964 71.093,66.413 71.193,67.137C71.218,67.262 71.243,67.462 71.293,67.886C71.318,68.16 71.393,68.635 71.418,69.009C71.443,69.209 71.443,69.383 71.468,69.508C71.468,69.633 71.493,69.733 71.493,69.733L71.493,69.907C71.493,70.007 71.518,70.182 71.518,70.357C71.543,70.706 71.543,71.13 71.543,71.43L71.543,72.528C71.518,73.277 71.568,73.701 71.493,74.325C71.593,73.701 71.767,73.302 71.867,72.553C71.867,72.453 71.892,72.328 71.917,72.154C71.917,72.054 71.942,71.954 71.942,71.829C71.942,71.704 71.967,71.58 71.967,71.43C71.992,71.13 71.992,70.681 71.992,70.332C71.992,70.157 71.967,69.982 71.967,69.882L71.967,69.708C71.967,69.708 71.967,69.633 71.942,69.483C71.942,69.358 71.917,69.159 71.892,68.959C71.842,68.56 71.767,68.086 71.692,67.811C71.617,67.387 71.543,67.187 71.518,67.062C71.343,66.339 71.118,65.964 70.919,65.365Z" style="fill:white;fill-opacity:0.1;fill-rule:nonzero;"/>
    <path d="M62.608,56.007C62.308,56.556 62.084,56.955 61.909,57.679C61.884,57.804 61.834,58.003 61.759,58.428C61.709,58.702 61.66,59.151 61.585,59.526C61.56,59.701 61.51,59.875 61.485,60C61.46,60.125 61.435,60.2 61.435,60.2C61.435,60.2 61.36,60.449 61.26,60.774C61.21,60.923 61.135,61.098 61.061,61.273C60.986,61.448 60.911,61.597 60.836,61.722C60.711,61.972 60.586,62.171 60.487,62.321C60.387,62.471 60.312,62.571 60.262,62.645C60.062,62.945 59.888,63.17 59.713,63.394C59.538,63.619 59.364,63.793 59.114,63.993C59.613,63.619 60.012,63.419 60.536,62.845C60.561,62.82 60.611,62.77 60.661,62.72C60.711,62.67 60.761,62.596 60.811,62.521C60.936,62.371 61.061,62.171 61.21,61.922C61.285,61.797 61.385,61.622 61.46,61.448C61.535,61.273 61.635,61.098 61.685,60.923C61.809,60.599 61.884,60.324 61.884,60.324C61.884,60.324 61.909,60.249 61.934,60.125C61.959,60 62.009,59.825 62.034,59.626C62.109,59.226 62.134,58.777 62.159,58.503C62.184,58.078 62.209,57.879 62.209,57.754C62.234,57.38 62.259,57.105 62.308,56.83C62.383,56.556 62.458,56.281 62.608,56.007Z" style="fill:white;fill-opacity:0.1;fill-rule:nonzero;"/>
    <path d="M72.616,87.827C72.865,88.027 73.015,88.227 73.165,88.476C73.315,88.701 73.464,88.95 73.589,89.3C73.614,89.35 73.639,89.424 73.689,89.549C73.739,89.649 73.789,89.799 73.839,89.998C73.964,90.398 74.063,90.947 74.088,91.571C74.113,92.17 74.063,92.844 74.013,93.443C73.939,94.042 73.864,94.591 73.789,95.015C73.739,95.414 73.689,95.664 73.689,95.664C73.689,95.664 73.564,96.512 73.415,97.585C73.265,98.659 73.115,99.981 73.015,100.905C72.965,101.479 72.915,101.828 72.915,102.003C72.84,102.751 72.84,103.176 72.766,103.8C72.865,103.176 72.99,102.776 73.115,102.028C73.14,101.853 73.215,101.504 73.315,100.93C73.489,100.006 73.714,98.708 73.864,97.61C74.013,96.537 74.138,95.689 74.138,95.689C74.138,95.689 74.163,95.439 74.238,95.04C74.288,94.64 74.363,94.066 74.438,93.467C74.488,92.844 74.513,92.17 74.438,91.521C74.388,90.897 74.238,90.298 74.088,89.899C74.013,89.699 73.939,89.549 73.889,89.424C73.839,89.325 73.789,89.25 73.764,89.175C73.589,88.85 73.39,88.601 73.215,88.401C73.065,88.202 72.865,88.027 72.616,87.827Z" style="fill:white;fill-opacity:0.1;fill-rule:nonzero;"/>
    <path d="M45.837,35.268C46.411,35.517 46.735,35.817 47.384,36.166C47.484,36.216 47.684,36.341 48.033,36.54C48.357,36.715 49.106,37.139 49.106,37.139C49.106,37.139 49.73,37.489 50.079,37.688C50.579,37.963 50.878,38.138 51.053,38.237C51.702,38.612 52.126,38.737 52.625,39.086C52.126,38.712 51.851,38.362 51.227,37.913C51.078,37.813 50.778,37.589 50.304,37.289C50.129,37.189 49.88,37.039 49.68,36.915C49.48,36.79 49.306,36.715 49.306,36.715C49.306,36.715 49.106,36.615 48.881,36.491C48.657,36.366 48.357,36.241 48.208,36.166C47.808,35.991 47.634,35.917 47.509,35.867C46.835,35.542 46.411,35.492 45.837,35.268Z" style="fill:white;fill-opacity:0.1;fill-rule:nonzero;"/>
    <path d="M25.222,37.589C25.272,37.539 25.372,37.564 25.447,37.539C25.472,37.539 25.522,37.514 25.572,37.514C25.622,37.489 25.697,37.489 25.746,37.464C25.846,37.414 25.946,37.364 25.946,37.364C25.946,37.364 26.046,37.314 26.146,37.264C26.196,37.239 26.246,37.189 26.296,37.164C26.345,37.139 26.37,37.089 26.395,37.089C26.47,37.015 26.495,36.94 26.545,36.915C26.47,36.915 26.42,36.865 26.32,36.84L26.171,36.84C26.121,36.84 26.046,36.84 25.971,36.865C25.846,36.89 25.722,36.965 25.722,36.965C25.722,36.965 25.597,37.015 25.497,37.114C25.447,37.164 25.397,37.214 25.372,37.264C25.322,37.314 25.322,37.364 25.297,37.389C25.247,37.439 25.272,37.514 25.222,37.589Z" style="fill:white;fill-opacity:0.1;fill-rule:nonzero;"/>
    <path d="M7.004,46.998C7.129,46.823 7.303,46.748 7.478,46.573C7.703,46.374 8.701,45.375 8.701,45.375C8.701,45.375 8.95,45.126 9.225,44.851C9.499,44.577 9.799,44.277 9.899,44.177C10.073,43.978 10.173,43.828 10.348,43.703C10.173,43.828 9.999,43.853 9.749,43.978C9.624,44.053 9.25,44.277 8.925,44.527C8.601,44.776 8.351,45.026 8.351,45.026C8.351,45.026 8.077,45.275 7.827,45.6C7.578,45.899 7.328,46.274 7.253,46.423C7.154,46.648 7.129,46.823 7.004,46.998Z" style="fill:white;fill-opacity:0.1;fill-rule:nonzero;"/>
    <path d="M23.076,75.798C23.026,76.422 22.976,76.871 23.176,77.62C23.201,77.695 23.226,77.769 23.251,77.894C23.3,78.019 23.35,78.169 23.425,78.368C23.525,78.618 23.7,78.942 23.899,79.267C24.099,79.591 24.349,79.941 24.573,80.24C24.798,80.54 25.023,80.814 25.172,81.014C25.322,81.214 25.422,81.338 25.422,81.338C25.422,81.338 25.497,81.438 25.621,81.613C25.746,81.787 25.921,82.012 26.096,82.287C26.27,82.561 26.47,82.861 26.62,83.16C26.77,83.46 26.894,83.784 26.994,84.034C27.169,84.558 27.219,84.907 27.244,85.082C27.294,85.431 27.319,85.731 27.344,86.005C27.344,86.28 27.344,86.554 27.294,86.854C27.418,86.255 27.543,85.831 27.518,85.057C27.518,84.857 27.493,84.508 27.344,83.934C27.269,83.634 27.169,83.31 26.994,82.961C26.844,82.636 26.645,82.287 26.47,82.012C26.295,81.738 26.121,81.488 25.971,81.313C25.846,81.139 25.771,81.039 25.771,81.039C25.771,81.039 25.671,80.914 25.522,80.714C25.372,80.515 25.147,80.265 24.923,79.966C24.698,79.666 24.449,79.367 24.224,79.042C23.999,78.743 23.825,78.443 23.725,78.219C23.525,77.844 23.45,77.67 23.4,77.545C23.276,77.195 23.176,76.921 23.101,76.671C23.076,76.372 23.051,76.122 23.076,75.798Z" style="fill:white;fill-opacity:0.1;fill-rule:nonzero;"/>
    <path d="M54.547,76.871C54.621,77.171 54.621,77.445 54.646,77.72C54.646,77.994 54.671,78.294 54.646,78.643C54.646,78.693 54.646,78.793 54.621,78.893C54.596,79.017 54.596,79.167 54.547,79.342C54.522,79.467 54.472,79.616 54.422,79.766C54.372,79.916 54.272,80.091 54.197,80.24C54.022,80.54 53.873,80.789 53.873,80.789C53.873,80.789 53.324,81.613 53.049,82.087C52.75,82.586 52.575,82.886 52.475,83.036C52.101,83.684 51.951,84.109 51.627,84.633C51.976,84.109 52.3,83.834 52.775,83.235C52.874,83.085 53.099,82.811 53.423,82.337C53.573,82.112 53.798,81.788 53.972,81.538C54.147,81.263 54.297,81.064 54.297,81.064C54.297,81.064 54.472,80.814 54.646,80.49C54.746,80.315 54.821,80.141 54.871,79.941C54.921,79.766 54.971,79.567 54.996,79.442C55.021,79.217 55.021,79.042 55.021,78.918C55.021,78.793 55.021,78.693 54.996,78.643C54.921,77.869 54.696,77.47 54.547,76.871Z" style="fill:white;fill-opacity:0.1;fill-rule:nonzero;"/>
    <path d="M49.381,91.945C49.456,92.095 49.431,92.245 49.456,92.445C49.456,92.494 49.48,92.594 49.505,92.744C49.53,92.869 49.555,93.019 49.555,93.168C49.58,93.443 49.605,93.717 49.605,93.717C49.605,93.717 49.63,93.967 49.63,94.266L49.63,94.99C49.63,95.19 49.68,95.315 49.63,95.489C49.68,95.34 49.78,95.24 49.88,95.04C49.905,94.99 49.955,94.89 49.98,94.741C50.03,94.616 50.054,94.441 50.079,94.291C50.129,93.967 50.079,93.692 50.079,93.692C50.079,93.692 50.054,93.393 49.98,93.093C49.93,92.944 49.88,92.794 49.83,92.669C49.78,92.544 49.705,92.445 49.68,92.394C49.58,92.17 49.456,92.095 49.381,91.945Z" style="fill:white;fill-opacity:0.1;fill-rule:nonzero;"/>
    <path d="M11.621,92.968C11.796,93.567 11.771,94.016 11.895,94.74C11.92,94.865 11.945,95.064 11.995,95.488C12.02,95.663 12.07,96.062 12.07,96.062C12.07,96.062 12.12,96.412 12.12,96.587C12.17,97.136 12.195,97.485 12.22,97.685C12.27,98.408 12.395,98.858 12.37,99.482C12.445,98.858 12.594,98.433 12.619,97.685C12.619,97.51 12.644,97.136 12.594,96.562C12.594,96.462 12.569,96.337 12.569,96.212C12.569,96.112 12.544,96.013 12.544,96.013C12.544,96.013 12.519,95.913 12.519,95.788C12.494,95.663 12.469,95.513 12.445,95.439C12.37,95.014 12.295,94.815 12.27,94.69C12.07,93.916 11.82,93.542 11.621,92.968Z" style="fill:white;fill-opacity:0.1;fill-rule:nonzero;"/>
    <path d="M73.414,126.685C73.514,126.859 73.489,127.009 73.539,127.234C73.564,127.358 73.664,127.733 73.739,128.057C73.814,128.382 73.864,128.681 73.864,128.681C73.864,128.681 73.913,128.981 73.963,129.33C74.013,129.654 74.038,130.029 74.038,130.154C74.063,130.378 74.113,130.528 74.088,130.728C74.138,130.528 74.213,130.403 74.288,130.179C74.313,130.054 74.413,129.654 74.388,129.305C74.388,128.931 74.338,128.606 74.338,128.606C74.338,128.606 74.288,128.282 74.163,127.932C74.038,127.583 73.839,127.234 73.764,127.134C73.639,126.934 73.514,126.859 73.414,126.685Z" style="fill:white;fill-opacity:0.1;fill-rule:nonzero;"/>
    <path d="M5.831,130.054C5.781,130.178 5.681,130.253 5.581,130.403C5.556,130.453 5.506,130.528 5.456,130.628C5.406,130.728 5.356,130.852 5.306,130.977C5.232,131.227 5.182,131.476 5.182,131.476C5.182,131.476 5.132,131.701 5.132,131.975L5.132,132.375C5.132,132.5 5.157,132.599 5.157,132.649C5.182,132.824 5.256,132.924 5.256,133.074C5.281,132.924 5.356,132.824 5.406,132.674C5.431,132.624 5.456,132.549 5.481,132.425C5.506,132.325 5.556,132.175 5.581,132.05C5.631,131.801 5.681,131.576 5.681,131.576C5.681,131.576 5.731,131.351 5.756,131.102C5.781,130.977 5.781,130.852 5.806,130.728C5.831,130.603 5.831,130.528 5.831,130.478C5.831,130.303 5.781,130.178 5.831,130.054Z" style="fill:white;fill-opacity:0.1;fill-rule:nonzero;"/>
    <path d="M18.709,145.229C18.684,145.852 18.584,146.277 18.584,147.05L18.584,147.325C18.584,147.45 18.584,147.599 18.609,147.824C18.634,148.024 18.659,148.323 18.709,148.598C18.759,148.872 18.783,149.072 18.783,149.072C18.783,149.072 18.808,149.247 18.858,149.496C18.908,149.721 18.983,150.02 19.033,150.22C19.183,150.769 19.308,151.118 19.382,151.293C19.657,151.992 19.932,152.341 20.181,152.915C19.956,152.341 19.907,151.892 19.732,151.168C19.682,150.994 19.607,150.644 19.482,150.095C19.432,149.895 19.382,149.621 19.333,149.396C19.283,149.172 19.258,148.997 19.258,148.997C19.258,148.997 19.208,148.772 19.183,148.523C19.133,148.273 19.083,147.949 19.058,147.774C18.983,147.35 18.958,147.15 18.958,147.025C18.833,146.277 18.709,145.852 18.709,145.229Z" style="fill:white;fill-opacity:0.1;fill-rule:nonzero;"/>
    <path d="M24.374,166.691C24.249,167.29 24.099,167.74 24.124,168.513C24.124,168.588 24.149,168.663 24.149,168.788C24.149,168.913 24.199,169.062 24.224,169.287C24.249,169.412 24.299,169.611 24.349,169.761C24.399,169.936 24.449,170.061 24.449,170.061C24.449,170.061 24.474,170.185 24.549,170.31C24.624,170.46 24.698,170.61 24.748,170.734C24.823,170.859 24.873,170.984 24.948,171.084C25.023,171.184 25.073,171.283 25.123,171.358C25.173,171.433 25.222,171.508 25.272,171.558C25.322,171.608 25.347,171.658 25.397,171.683C25.921,172.257 26.346,172.432 26.845,172.781C26.72,172.681 26.62,172.581 26.52,172.506C26.42,172.407 26.346,172.307 26.246,172.207C26.146,172.082 26.071,171.957 25.996,171.858C25.896,171.733 25.821,171.583 25.722,171.458C25.672,171.383 25.597,171.284 25.497,171.134C25.447,171.059 25.397,170.959 25.347,170.884C25.297,170.784 25.247,170.685 25.173,170.56C25.123,170.46 25.048,170.285 24.998,170.16C24.923,170.036 24.898,169.936 24.898,169.936C24.898,169.936 24.848,169.811 24.798,169.661C24.748,169.512 24.698,169.337 24.648,169.212C24.599,169.012 24.549,168.863 24.524,168.763C24.499,168.638 24.474,168.563 24.474,168.513C24.449,168.339 24.424,168.189 24.374,168.014C24.349,167.889 24.324,167.74 24.299,167.59C24.274,167.465 24.274,167.315 24.274,167.166C24.349,166.991 24.349,166.841 24.374,166.691Z" style="fill:white;fill-opacity:0.1;fill-rule:nonzero;"/>
    <path d="M51.353,173.154C51.452,173.279 51.577,173.354 51.727,173.379C51.877,173.404 52.026,173.379 52.151,173.354C52.301,173.304 52.426,173.254 52.575,173.154C52.65,173.104 52.725,173.054 52.8,173.004C52.875,172.955 52.925,172.88 53,172.805C53.05,172.755 53.1,172.705 53.174,172.605C53.249,172.505 53.349,172.381 53.474,172.206C53.549,172.106 53.649,171.931 53.748,171.782C53.798,171.707 53.823,171.632 53.848,171.582C53.873,171.532 53.898,171.507 53.898,171.507C53.898,171.507 53.948,171.407 54.023,171.257C54.073,171.108 54.148,170.933 54.198,170.808C54.297,170.534 54.347,170.284 54.372,170.109C54.422,169.935 54.422,169.785 54.447,169.685C54.522,168.911 54.397,168.487 54.322,167.863C54.347,168.163 54.322,168.437 54.273,168.712C54.223,168.986 54.148,169.261 54.073,169.61C54.048,169.685 54.023,169.835 53.973,169.985C53.948,170.06 53.923,170.159 53.873,170.284C53.848,170.384 53.798,170.509 53.748,170.634C53.699,170.758 53.649,170.908 53.574,171.033C53.524,171.158 53.474,171.257 53.474,171.257C53.474,171.257 53.449,171.282 53.449,171.332C53.424,171.382 53.399,171.457 53.349,171.507C53.274,171.657 53.174,171.806 53.124,171.906C53.075,172.006 53.025,172.081 52.975,172.131C52.925,172.206 52.9,172.256 52.85,172.306C52.775,172.405 52.75,172.48 52.7,172.53C52.65,172.605 52.6,172.68 52.55,172.73C52.501,172.78 52.451,172.855 52.401,172.905C52.301,173.004 52.201,173.104 52.076,173.154C51.976,173.229 51.852,173.279 51.702,173.279C51.602,173.329 51.452,173.279 51.353,173.154Z" style="fill:white;fill-opacity:0.1;fill-rule:nonzero;"/>
    <path d="M58.216,152.391C58.465,151.817 58.74,151.468 59.039,150.769C59.064,150.719 59.089,150.644 59.139,150.519C59.189,150.394 59.239,150.245 59.314,150.045C59.364,149.87 59.463,149.596 59.538,149.346C59.613,149.097 59.663,148.897 59.663,148.897C59.663,148.897 59.713,148.722 59.763,148.498C59.813,148.273 59.863,147.999 59.913,147.799C60.012,147.225 60.062,146.875 60.062,146.701C60.137,145.952 60.062,145.503 60.112,144.879C60.037,145.503 59.863,145.902 59.688,146.626C59.638,146.801 59.563,147.15 59.438,147.699C59.339,148.073 59.164,148.772 59.164,148.772C59.164,148.772 58.939,149.596 58.864,149.945C58.765,150.344 58.69,150.544 58.665,150.669C58.49,151.368 58.44,151.817 58.216,152.391Z" style="fill:white;fill-opacity:0.1;fill-rule:nonzero;"/>
    <path d="M13.118,226.863C13.642,226.539 14.092,226.414 14.715,225.99C14.815,225.915 14.99,225.79 15.339,225.541C15.389,225.516 15.489,225.416 15.489,225.416C15.489,225.416 15.564,225.341 15.614,225.316C16.063,224.942 16.288,224.667 16.438,224.542C16.962,223.993 17.136,223.569 17.536,223.095C17.111,223.544 16.687,223.744 16.138,224.218C15.988,224.343 15.739,224.567 15.29,224.942C15.24,224.991 15.165,225.041 15.165,225.041C15.165,225.041 15.065,225.116 15.015,225.166C14.691,225.441 14.541,225.59 14.441,225.665C13.892,226.115 13.642,226.489 13.118,226.863Z" style="fill:white;fill-opacity:0.1;fill-rule:nonzero;"/>
    <path d="M56.144,220.272C56.718,220.547 57.042,220.846 57.716,221.146C57.841,221.196 58.016,221.296 58.415,221.445C58.465,221.47 58.615,221.52 58.615,221.52C58.615,221.52 58.715,221.57 58.789,221.595C59.339,221.795 59.688,221.87 59.863,221.92C60.586,222.094 61.036,222.069 61.66,222.219C61.061,222.044 60.686,221.77 59.987,221.52C59.813,221.445 59.488,221.321 58.939,221.146C58.889,221.121 58.765,221.096 58.765,221.096C58.765,221.096 58.64,221.046 58.59,221.021C58.191,220.871 57.991,220.822 57.866,220.772C57.167,220.547 56.718,220.522 56.144,220.272Z" style="fill:white;fill-opacity:0.1;fill-rule:nonzero;"/>
    <path d="M17.061,123.914C17.036,123.315 16.986,122.716 16.936,122.117C16.812,120.37 16.287,118.474 16.262,116.777C16.238,115.154 17.76,113.607 17.361,112.01C17.186,111.336 16.662,110.812 16.537,110.138C21.304,109.165 26.071,108.191 30.837,107.218C27.818,107.118 24.798,106.993 21.778,106.819C19.682,106.694 15.314,107.218 13.667,105.87C14.091,105.246 14.491,104.498 14.391,103.699C14.366,103.524 14.341,103.35 14.291,103.175C14.166,103.1 14.016,103.05 13.892,103.1C13.592,103.175 13.467,103.524 13.367,103.799C12.843,105.621 12.369,107.493 12.145,109.364C11.97,110.787 12.269,112.459 12.369,113.907C12.469,115.304 12.544,116.727 12.569,118.149C12.594,119.372 12.594,120.545 12.694,121.768C12.793,123.016 12.843,124.264 12.868,125.512C12.868,125.636 12.868,125.761 12.943,125.861C12.993,125.936 13.043,125.986 13.118,126.036C14.066,126.784 14.89,127.683 15.564,128.681C16.287,129.779 15.938,130.753 15.664,131.975C15.464,132.874 15.239,133.747 15.264,134.671C15.264,135.095 15.314,135.544 15.239,135.969C16.837,136.792 18.783,137.092 20.555,137.366C22.377,137.666 24.249,137.815 26.096,137.865C27.967,137.915 29.864,137.89 31.736,137.79C33.508,137.691 38.849,137.965 38.125,134.771C38.325,135.345 38.549,135.944 38.749,136.518C38.824,136.692 38.874,136.867 39.023,136.992C39.173,137.117 39.373,137.142 39.572,137.192C41.17,137.441 42.792,137.541 44.439,137.566C42.218,136.218 42.992,132.699 42.442,130.478C42.268,129.804 42.093,129.08 42.243,128.407C42.442,127.558 43.116,126.934 43.765,126.36C45.038,125.262 46.286,124.139 47.559,123.041C46.535,123.265 45.138,123.315 44.763,122.317C44.664,122.068 44.664,121.818 44.689,121.543C44.913,118.998 47.234,116.777 46.71,114.256C45.263,117.251 43.59,120.171 41.719,122.916C40.471,124.763 38.824,126.285 36.677,124.763C35.978,124.264 35.529,123.49 35.08,122.766C34.007,120.944 32.684,119.098 31.836,117.176C31.237,115.803 31.062,114.456 29.59,113.657C29.44,113.582 29.24,113.482 29.065,113.557C28.866,113.632 28.766,113.832 28.691,114.031C28.392,114.98 28.591,116.003 28.841,116.951C29.49,119.422 30.488,121.743 31.312,124.164C30.114,123.665 28.891,123.166 27.693,122.667C28.491,124.588 31.212,125.387 31.561,127.433C31.586,127.658 31.586,127.907 31.436,128.082C31.312,128.207 31.112,128.232 30.912,128.232C30.114,128.282 29.315,128.357 28.516,128.407C28.741,130.378 28.891,132.35 28.891,134.346C28.891,134.546 28.891,134.796 28.716,134.92C28.566,135.045 28.367,135.045 28.167,135.045C24.548,134.995 20.929,134.895 17.311,134.771C17.361,131.127 17.261,127.508 17.061,123.914Z" style="fill-opacity:0.28;fill-rule:nonzero;"/>
    <path d="M61.959,133.97C61.834,133.322 62.009,132.648 62.034,131.999C62.059,131.125 62.009,130.227 61.684,129.428C61.285,128.455 62.583,127.831 63.157,127.207C63.456,126.883 63.282,126.583 63.307,126.209C63.332,125.785 63.332,125.36 63.356,124.936C63.431,124.087 63.506,123.214 63.506,122.365C63.481,120.269 63.506,118.173 63.556,116.051C63.631,114.08 63.531,112.033 63.756,110.062C63.856,109.163 63.556,108.19 63.382,107.291C63.207,106.343 63.182,105.42 62.957,104.471C62.907,104.272 62.857,104.072 62.758,103.922C62.658,103.747 62.708,103.673 62.508,103.648C62.159,103.598 61.784,103.573 61.435,103.598C60.187,103.648 58.964,103.947 57.766,104.222C58.939,104.371 60.112,104.496 61.285,104.646C61.036,104.945 60.811,105.245 60.561,105.519C61.235,106.243 60.986,107.516 60.287,108.215C59.588,108.914 58.59,109.238 57.616,109.513C58.839,110.511 61.285,109.188 62.034,110.586C62.209,110.935 62.209,111.359 62.184,111.759C62.084,114.204 62.009,116.625 61.909,119.071C61.834,121.217 61.734,123.389 61.11,125.435C60.786,126.483 60.312,127.482 60.212,128.58C59.987,130.926 61.485,133.122 61.535,135.493C61.535,135.692 61.535,135.917 61.41,136.092C61.335,136.167 61.26,136.217 61.16,136.266C61.235,136.242 61.31,136.242 61.385,136.217C61.834,136.117 62.258,136.117 62.658,135.842C62.483,135.168 62.084,134.644 61.959,133.97Z" style="fill-opacity:0.28;fill-rule:nonzero;"/>
    <path d="M60.786,136.317C58.589,136.642 56.393,136.941 54.197,137.266C54.921,137.216 55.62,137.166 56.343,137.066C57.416,136.941 58.49,136.792 59.538,136.592C59.962,136.517 60.361,136.417 60.786,136.317Z" style="fill-opacity:0.28;fill-rule:nonzero;"/>
</svg>
