<?xml version="1.0" encoding="UTF-8" standalone="no"?>
<!DOCTYPE svg PUBLIC "-//W3C//DTD SVG 1.1//EN" "http://www.w3.org/Graphics/SVG/1.1/DTD/svg11.dtd">
<svg width="100%" height="100%" viewBox="0 0 68 228" version="1.1" xmlns="http://www.w3.org/2000/svg" xmlns:xlink="http://www.w3.org/1999/xlink" xml:space="preserve" xmlns:serif="http://www.serif.com/" style="fill-rule:evenodd;clip-rule:evenodd;stroke-miterlimit:10;">
    <path d="M67.47,87.638C67.099,86.179 65.986,84.967 65.541,83.532C64.947,81.627 65.368,80.44 65.961,78.634C67.124,75.146 66.332,71.658 66.58,68.095C66.827,64.583 66.926,61.07 66.901,57.508C66.901,56.271 66.901,55.009 66.703,53.772C66.11,50.037 64.304,46.499 61.805,43.679C60.939,42.714 59.801,41.255 58.589,40.686C57.08,39.993 55.052,40.513 53.444,40.315C51.91,40.142 50.599,38.806 49.436,37.89C48.224,36.975 46.839,36.357 45.453,35.738C44.786,35.441 42.163,34.6 42.114,33.784C42.04,31.854 41.866,29.826 42.163,27.896C42.188,27.723 42.213,27.55 42.312,27.426C42.411,27.278 42.584,27.204 42.732,27.105C43.054,26.857 43.202,26.412 43.277,26.016C43.326,25.744 43.499,22.38 43.524,22.38C43.821,22.38 44.142,22.38 44.34,22.157C44.81,21.638 44.86,20.351 44.909,19.708C45.033,18.62 45.132,17.531 45.206,16.418C45.305,14.538 43.722,14.859 43.029,16.146C42.93,16.319 42.782,16.269 42.658,16.443L43.351,15.478C44.736,13.796 43.697,10.481 43.202,8.601C42.609,6.374 41.372,4.42 39.022,3.826C37.612,3.455 36.152,3.703 34.717,3.925C32.021,4.37 28.755,4.742 26.405,6.251C24.575,7.438 24.129,10.506 24.253,12.559C24.327,14.167 25.045,15.874 24.006,17.308C23.536,16.962 22.62,15.997 22.249,16.962C22.101,17.333 22.225,17.754 22.348,18.125C22.794,19.535 23.288,20.97 23.734,22.404C23.808,22.652 23.882,22.874 24.055,23.072C24.203,23.27 24.476,23.394 24.723,23.32C24.847,23.295 24.946,23.196 25.069,23.221C25.44,23.246 25.416,25.447 25.44,25.769C25.49,26.56 25.663,26.932 26.084,27.624C26.158,27.748 26.232,27.872 26.282,27.995C26.356,28.168 26.381,28.342 26.381,28.515C26.603,30.345 26.653,32.003 26.529,33.858C26.529,33.957 26.504,34.056 26.479,34.13C26.43,34.229 26.306,34.279 26.183,34.328C24.377,35.095 22.521,35.639 20.864,36.752C19.033,37.965 17.326,39.919 15.224,40.661C13.566,41.23 11.736,40.661 10.029,41.106C8.866,41.403 7.901,42.17 7.06,43.036C2.484,47.711 1.494,55.133 1.074,61.367C0.925,63.568 0.9,65.795 1.049,68.021C1.172,69.976 1.939,71.732 2.113,73.736C2.261,75.641 2.286,77.545 2.459,79.45C2.607,81.182 3.325,82.716 2.756,84.472C2.558,85.115 2.187,85.684 1.89,86.278C0.43,89.395 0.826,92.537 1.024,95.876C1.222,99.191 1.098,102.704 1.865,105.92C2.36,108.047 2.954,110.002 3.127,112.178C3.201,113.143 3.3,114.083 3.325,115.048C3.448,120.243 2.409,125.29 2.286,130.435C2.286,130.633 2.286,130.831 2.335,131.029C2.434,131.326 2.682,131.548 2.904,131.746C4.933,133.626 5.749,135.877 8.841,134.344C9.41,135.036 10.029,135.68 10.697,136.273C10.944,136.496 11.191,136.694 11.513,136.719C12.156,136.743 12.849,136.397 13.418,136.174C12.626,136.471 15.422,148.741 15.718,149.978C16.683,154.06 17.376,158.339 19.751,161.877C19.924,162.149 20.122,162.396 20.196,162.718C20.27,163.015 20.221,163.337 20.171,163.633C19.701,166.825 19.775,170.288 20.196,173.504C20.32,174.518 20.518,175.557 20.344,176.571C20.023,178.575 19.058,180.406 18.86,182.508C18.266,188.371 19.8,194.135 21.458,199.701C23.165,205.441 24.698,211.328 24.624,217.315C24.624,217.562 24.624,217.81 24.5,218.032C24.401,218.23 24.253,218.378 24.105,218.527C22.645,219.962 21.26,221.495 19.578,222.683C18.811,223.227 17.945,223.821 17.005,224.043C15.991,224.291 14.927,224.043 14.012,224.687C13.344,225.132 12.997,226.146 13.517,226.765C13.838,227.16 14.358,227.284 14.828,227.358C16.015,227.556 17.252,227.63 18.464,227.581C20.889,227.482 23.165,227.457 25.564,226.987C27.865,226.542 30.042,227.408 32.318,227.086C33.901,226.864 33.95,223.994 33.827,222.831C33.728,221.867 33.307,220.976 32.986,220.061C31.724,216.498 31.551,212.268 31.378,208.508C31.18,204.105 31.427,200.023 32.268,195.743C32.887,192.651 33.332,189.212 32.639,186.145C31.823,182.508 31.204,178.798 30.71,175.087C30.536,173.801 30.413,172.391 31.056,171.253C31.427,170.585 32.169,170.115 32.466,169.422C32.788,168.729 32.788,167.765 32.862,167.023C33.084,164.92 33.109,162.792 32.936,160.665C32.812,159.354 32.54,158.018 32.614,156.732C32.837,152.872 33.53,149.236 33.777,145.476C33.802,146.416 33.851,147.381 33.901,148.321C34.049,150.819 34.816,153.046 35.286,155.495C36.078,159.626 35.187,163.757 36.251,167.913C36.424,168.581 36.647,169.298 37.166,169.768C37.438,170.016 37.785,170.214 37.983,170.511C38.552,171.426 38.131,173.776 38.205,174.914C38.329,176.72 37.735,178.649 37.166,180.332C36.721,181.667 36.177,182.954 35.855,184.339C35.014,187.976 35.533,192.75 36.597,196.287C36.82,197.03 37.067,197.747 37.191,198.489C37.537,200.443 37.142,202.695 37.042,204.649C36.869,208.261 36.3,211.773 35.88,215.336C35.707,216.894 35.509,218.453 35.039,219.937C34.594,221.322 33.926,222.683 33.901,224.142C33.901,224.835 34.247,226.468 34.866,226.888C35.064,227.037 35.311,227.086 35.558,227.111C37.339,227.309 39.17,226.493 40.926,226.864C44.835,227.729 48.843,228.076 52.825,227.334C53.246,227.259 53.691,227.16 54.038,226.913C54.78,226.394 54.854,225.181 54.235,224.538C52.974,223.301 50.822,224.415 49.288,223.301C48.224,222.51 47.284,221.619 46.295,220.753C45.998,220.481 43.375,218.873 43.375,218.774C43.895,211.204 45.552,203.758 47.507,196.436C48.472,192.849 49.189,189.682 49.189,185.922C49.189,182.36 48.026,178.847 48.051,175.31C48.076,171.921 48.744,168.507 48.521,165.142C48.472,164.301 48.298,163.436 48.546,162.619C48.645,162.298 48.818,161.976 48.966,161.679C50.92,157.82 51.91,153.318 52.875,149.137C53.394,146.911 53.84,144.684 54.235,142.458C54.557,140.553 54.557,138.376 55.373,136.595C56.61,136.669 57.872,135.927 58.391,134.789C58.515,134.492 58.639,134.171 58.886,133.973C59.233,133.7 59.752,133.824 60.123,134.022C60.494,134.22 60.865,134.492 61.31,134.591C62.176,134.764 62.993,134.121 63.636,133.503C65.12,132.093 66.184,131.4 66.456,129.322C66.703,127.442 66.778,125.487 66.011,123.706C63.685,118.412 65.565,112.178 66.654,106.835C67.742,101.492 67.594,96.42 67.619,90.978C67.693,89.939 67.718,88.653 67.47,87.638ZM14.234,92.734C13.616,94.54 12.923,96.544 12.923,98.474C12.23,96.025 11.983,93.427 11.365,90.953C11.167,90.162 11.191,89.395 10.993,88.603C10.796,87.812 10.35,86.995 10.598,86.154C10.697,85.783 10.919,85.462 11.117,85.115C13.22,81.677 13.64,77.941 12.997,74.033C13.319,74.948 13.64,75.863 14.185,76.655C14.407,76.976 14.655,77.273 14.803,77.62C14.951,77.941 15.026,78.312 15.1,78.659C15.471,80.662 15.595,82.716 16.09,84.695C16.238,85.264 16.386,85.833 16.411,86.426C16.51,88.727 14.951,90.656 14.234,92.734ZM55.843,89.815C54.978,93.402 54.532,97.113 54.483,100.799C54.038,98.696 53.444,96.594 52.726,94.565C52.108,92.833 51.267,91.126 50.797,89.345C50.698,88.999 50.723,88.628 50.747,88.282C50.846,86.773 50.945,85.288 50.995,83.779C51.02,83.359 51.02,82.963 51.118,82.567C51.168,82.27 51.267,81.973 51.366,81.677C52.034,79.673 52.875,77.743 53.518,75.715C53.345,76.284 53.691,77.57 53.765,78.213C53.864,79.178 53.988,80.143 54.211,81.108C54.606,82.938 55.547,84.447 56.091,86.204C56.462,87.342 56.115,88.603 55.843,89.815Z" style="fill:rgb(226,168,138);fill-rule:nonzero;"/>
    <path d="M66.505,129.347C66.753,127.467 66.827,125.513 66.06,123.732C63.735,118.438 65.615,112.204 66.703,106.86C66.951,105.648 67.124,104.461 67.272,103.273C66.555,107.875 65.59,112.426 64.279,116.904C64.032,117.72 63.784,118.561 63.933,119.403C64.155,120.813 65.318,121.876 65.615,123.286C65.961,124.919 65.862,126.824 65.838,128.506C65.838,128.828 65.838,129.174 65.714,129.496C65.615,129.768 65.466,130.015 65.293,130.238C64.378,131.598 62.547,134.913 61.014,132.86C60.692,132.439 60.123,132.291 59.603,132.39C59.084,132.464 58.639,132.761 58.194,133.033C57.699,133.379 57.056,133.751 56.536,133.429C55.274,132.662 56.61,128.333 56.808,127.244C56.907,126.75 57.006,126.255 57.303,125.859C58.194,124.696 59.183,124.078 59.678,122.569C60.148,121.134 60.148,119.526 60.098,118.017C59.999,114.925 58.589,112.13 58.391,109.062C58.194,105.747 58.169,102.408 58.367,99.093C58.664,93.848 60.865,87.268 58.664,82.221C58.292,81.356 57.773,80.564 57.402,79.698C56.462,77.521 57.229,74.726 57.179,72.425C57.13,70.001 56.833,67.527 55.794,65.301C55.25,64.138 55.2,63 55.077,61.738C54.829,59.289 56.19,56.989 57.501,54.886C53.518,55.603 53.246,60.873 51.267,63.643C49.288,66.439 42.856,65.226 40.085,64.707C36.078,63.94 35.484,61.837 35.014,58.226C34.791,56.469 34.692,54.688 34.569,52.932C34.47,51.546 33.802,49.542 34.025,48.207C33.555,51.126 33.109,54.02 32.911,56.964C32.713,60.304 32.738,64.014 29.176,65.35C26.158,66.488 22.645,65.993 19.627,65.128C18.712,64.855 17.772,64.534 17.104,63.866C16.386,63.173 16.04,62.208 15.669,61.293C14.902,59.364 13.838,57.385 12.008,56.444C12.973,57.855 13.69,59.413 14.11,61.046C14.333,61.887 14.482,62.777 14.853,63.569C16.04,66.117 19.998,67.329 22.546,67.577C25.119,67.824 27.716,67.403 30.264,66.909C31.303,66.711 32.367,66.463 33.183,65.795C33.431,65.598 33.678,65.35 34,65.251C34.618,65.053 35.212,65.523 35.731,65.894C40.135,69.11 47.482,68.195 52.207,66.265C52.38,66.191 52.603,66.142 52.726,66.265C52.801,66.34 52.825,66.439 52.85,66.538C53.79,71.089 52.207,74.8 51.044,79.055C49.832,83.434 49.832,87.367 50.451,91.869C50.995,95.852 53.345,99.167 53.493,103.174C53.518,103.57 53.493,104.016 53.172,104.263C53.023,104.387 52.825,104.436 52.652,104.461C51.588,104.708 50.5,104.98 49.436,105.228C49.313,105.252 49.164,105.302 49.016,105.252C48.892,105.203 48.793,105.104 48.719,104.98C47.433,103.298 47.235,101.369 46.864,99.315C46.468,97.114 47.21,94.763 47.779,92.636C48.15,91.177 49.387,89.47 48.793,87.936C47.952,85.784 46.27,84.126 45.256,82.098C44.538,80.638 43.277,78.09 43.425,76.408C43.227,78.733 43.722,80.861 44.167,83.112C44.489,84.794 45.453,85.858 46.097,87.441C47.21,90.187 45.552,93.848 44.687,96.421C44.489,97.039 44.266,97.658 44.316,98.301C44.439,100.082 45.75,102.259 46.468,103.867C47.309,105.821 41.916,106.217 40.926,106.489C39.566,106.836 38.502,107.306 37.018,107.132C36.449,107.058 35.83,106.885 35.484,106.415C35.261,106.118 35.187,105.772 35.113,105.401C34.445,102.333 34.346,99.39 34.94,96.297C35.113,95.431 35.039,94.541 34.94,93.65C34.643,90.682 34.198,87.713 33.653,84.794C33.381,85.561 33.505,86.402 33.579,87.218C33.876,90.311 33.109,93.007 32.911,96.025C32.738,98.647 32.911,101.393 32.788,104.065C32.763,104.56 32.738,105.055 32.54,105.525C32.095,106.564 30.858,107.058 29.745,107.256C28.409,107.504 27.024,107.528 25.688,107.33C24.995,107.231 24.253,107.034 23.783,106.489C22.645,105.178 23.511,101.764 24.03,100.305C24.179,99.884 24.352,99.439 24.352,98.969C24.377,98.103 23.857,97.336 23.437,96.594C22.62,95.135 22.398,93.551 21.73,92.067C21.532,91.597 21.284,91.127 21.284,90.608C21.284,90.212 21.408,89.816 21.557,89.445C22.249,87.614 23.412,85.907 23.931,84.077C24.476,82.048 24.203,80.143 24.377,78.115C24.253,79.723 23.437,81.232 22.967,82.766C22.447,84.547 21.507,86.278 20.443,87.763C20.171,88.134 19.874,88.53 19.775,89C19.429,90.385 20.32,91.869 20.74,93.156C21.309,94.863 21.68,96.891 21.186,98.647C20.691,100.453 19.899,102.457 18.984,104.09C18.91,104.238 18.811,104.387 18.662,104.436C18.563,104.486 18.44,104.486 18.316,104.461C16.856,104.337 15.422,104.04 14.061,103.521C13.937,103.471 13.814,103.422 13.764,103.323C13.715,103.224 13.715,103.1 13.715,102.977C13.987,98.647 14.482,92.982 18.365,90.237C18.489,90.138 18.638,90.063 18.712,89.915C18.786,89.791 18.761,89.643 18.761,89.494C18.638,87.515 18.39,85.413 17.846,83.508C17.5,82.296 16.51,79.822 17.599,78.709C17.796,78.511 18.093,78.362 18.168,78.09C18.217,77.868 18.118,77.67 17.97,77.472C16.881,75.913 15.397,75.79 14.655,73.811C13.591,70.966 13.443,68.17 12.849,65.202C12.503,63.42 11.191,61.837 10.152,60.378C10.573,62.926 10.647,65.325 10.919,67.849C11.191,70.446 11.29,73.118 11.167,75.715C11.092,77.793 10.796,79.896 10.152,81.875C9.559,83.656 8.544,85.264 8.074,87.095C8.025,87.243 8,87.416 8.099,87.54C8.173,87.639 8.272,87.689 8.396,87.738C10.202,88.579 11.068,92.463 11.587,94.195C13.319,99.934 12.379,106.687 11.389,112.501C11.191,113.614 9.138,123.707 10.474,124.029C12.008,124.4 15.125,126.032 16.04,127.368C16.609,128.209 16.51,129.322 16.362,130.337C16.114,130.757 15.446,130.708 15.1,130.386C14.754,130.065 14.63,129.57 14.531,129.1C14.432,128.63 14.358,128.135 14.036,127.764C13.715,130.139 13.418,132.514 13.096,134.864C12.849,136.719 11.142,135.581 10.375,134.641C9.93,134.097 9.781,133.256 9.138,132.835C8.297,132.266 7.951,132.712 7.06,132.885C6.095,133.058 4.289,132.044 3.869,131.178C3.325,130.04 3.968,128.679 4.116,127.541C4.364,125.661 4.661,123.756 4.858,121.876C5.279,118.091 5.427,114.257 4.611,110.522C3.844,107.083 3.399,103.496 2.978,99.983C2.434,95.605 2.385,90.929 3.77,86.674C4.042,85.883 4.908,85.536 5.106,84.547C5.328,83.409 4.957,82.098 5.056,80.935C5.18,79.649 5.254,78.313 5.254,77.002C5.254,75.072 4.388,72.969 4.017,71.04C3.152,66.562 2.731,62.011 3.226,57.459C3.498,54.985 3.572,52.313 4.388,49.963C5.279,47.341 6.763,45.09 8.693,43.086C10.276,41.429 12.379,41.8 14.531,41.8C15.867,41.8 17.054,42.195 18.291,41.404C19.108,40.884 19.503,39.845 20.196,39.177C21.235,38.114 22.967,36.679 24.451,36.184C26.158,35.615 28.137,35.887 29.423,34.403C30.438,33.265 32.639,32.943 33.95,32.201C35.459,31.36 36.919,30.371 38.651,30.024C36.474,30.47 34.643,31.261 32.441,30.544C30.883,30.024 29.522,28.664 28.211,27.724C27.89,27.501 27.568,27.254 27.321,26.932C26.479,25.819 26.578,23.37 26.455,22.034C26.257,20.104 26.183,18.15 26.158,16.221C26.133,14.687 25.96,13.054 26.282,11.52C26.356,11.1 26.949,10.457 26.925,10.11C26.875,9.838 26.578,9.566 26.727,9.343C26.801,9.244 26.925,9.195 27.048,9.17C28.533,8.824 29.992,9.368 31.501,9.343C33.579,9.319 35.657,9.467 37.735,9.294C38.799,9.22 39.615,8.898 40.382,9.764C41.025,10.506 41.174,11.496 41.273,12.436C41.421,13.846 41.594,15.256 41.743,16.666C41.817,17.334 41.916,18.076 42.386,18.546C42.782,17.433 43.375,16.394 44.118,15.478C43.944,15.503 43.796,15.478 43.648,15.379C43.425,15.553 43.202,15.8 43.054,16.097C42.955,16.27 42.807,16.221 42.683,16.394L43.375,15.429C43.425,15.379 43.45,15.33 43.499,15.281C43.45,15.231 43.375,15.157 43.351,15.083C43.029,14.563 43.128,13.945 43.029,13.376C42.93,12.708 42.708,12.065 42.485,11.397C41.965,9.912 41.297,8.502 40.481,7.166C39.813,6.053 39.022,4.965 37.933,4.297C37.438,4 36.894,3.777 36.35,3.629C35.806,3.678 35.286,3.777 34.742,3.852C32.045,4.297 28.78,4.668 26.43,6.177C24.599,7.364 24.154,10.432 24.278,12.485C24.352,14.093 25.069,15.8 24.03,17.235C23.659,16.963 22.991,16.295 22.546,16.542C22.868,16.987 23.189,17.457 23.412,17.952C23.956,19.14 24.006,20.476 24.154,21.762C24.179,22.009 24.203,22.281 24.327,22.504C24.451,22.776 24.649,22.974 24.822,23.221C24.896,23.197 24.97,23.147 25.069,23.147C25.44,23.172 25.416,25.374 25.44,25.695C25.49,26.487 25.663,26.858 26.084,27.551C26.158,27.674 26.232,27.798 26.282,27.922C26.356,28.095 26.381,28.268 26.381,28.441C26.603,30.272 26.653,31.929 26.529,33.785C26.529,33.883 26.504,33.982 26.479,34.057C26.43,34.156 26.306,34.205 26.183,34.255C24.377,35.021 22.521,35.566 20.864,36.679C19.033,37.891 17.326,39.845 15.224,40.587C13.566,41.156 11.736,40.587 10.029,41.033C8.866,41.33 7.901,42.096 7.06,42.962C2.484,47.712 1.494,55.133 1.074,61.367C0.925,63.569 0.9,65.795 1.049,68.022C1.172,69.976 1.939,71.733 2.113,73.736C2.261,75.641 2.286,77.546 2.459,79.451C2.607,81.182 3.325,82.716 2.756,84.473C2.558,85.116 2.187,85.685 1.89,86.278C0.43,89.395 0.826,92.537 1.024,95.877C1.222,99.192 1.098,102.704 1.865,105.92C2.36,108.048 2.954,110.002 3.127,112.179C3.201,113.144 3.3,114.084 3.325,115.049C3.448,120.244 2.409,125.29 2.286,130.436C2.286,130.634 2.286,130.831 2.335,131.029C2.434,131.326 2.682,131.549 2.904,131.747C4.933,133.627 5.749,135.878 8.841,134.344C9.41,135.037 10.029,135.68 10.697,136.274C10.944,136.496 11.191,136.694 11.513,136.719C12.156,136.744 12.849,136.397 13.418,136.175C12.626,136.472 15.422,148.742 15.718,149.979C16.683,154.06 17.376,158.34 19.751,161.878C19.924,162.15 20.122,162.397 20.196,162.719C20.27,163.016 20.221,163.337 20.171,163.634C19.701,166.825 19.775,170.288 20.196,173.504C20.32,174.519 20.518,175.558 20.344,176.572C20.023,178.576 19.058,180.406 18.86,182.509C18.266,188.372 19.8,194.136 21.458,199.702C23.165,205.441 24.698,211.329 24.624,217.315C24.624,217.563 24.624,217.81 24.5,218.033C24.401,218.231 24.253,218.379 24.105,218.527C22.645,219.962 21.26,221.496 19.578,222.683C18.811,223.228 17.945,223.821 17.005,224.044C15.991,224.291 14.927,224.044 14.012,224.687C13.863,224.786 13.739,224.935 13.616,225.083C14.803,225.058 15.991,224.811 17.104,224.39C18.835,223.747 20.369,222.708 21.804,221.546C22.769,220.754 23.882,220.309 25.045,219.888C26.851,219.195 26.851,216.598 26.529,215.064C25.96,212.195 25.218,209.35 24.525,206.505C23.734,203.215 22.744,199.999 21.557,196.857C20.023,192.874 19.231,188.52 19.751,184.265C19.924,183.004 20.245,179.268 21.755,178.897C23.511,178.452 23.808,182.014 25.712,180.06C26.925,178.823 27.667,177.141 27.766,175.409C27.37,176.448 26.653,177.388 25.762,178.031C25.49,178.229 25.168,178.403 24.871,178.279C24.649,178.205 24.5,177.982 24.401,177.784C23.808,176.745 23.585,175.508 23.758,174.321C23.832,173.702 24.03,173.059 23.783,172.49C23.635,172.169 23.387,171.921 23.189,171.649C21.977,169.992 22.051,167.567 22.323,165.613C22.398,165.118 22.546,164.574 22.991,164.376C23.214,164.277 23.461,164.302 23.709,164.277C24.377,164.203 24.896,163.708 25.465,163.312C26.554,162.521 27.89,162.892 28.854,163.782C29.398,164.277 29.794,164.92 30.19,165.539C30.339,164.277 29.943,163.04 29.522,161.853C29.275,161.111 29.027,159.503 28.236,159.206C27.667,159.008 27.048,159.181 26.504,159.478C25.96,159.775 25.515,160.171 24.97,160.418C21.928,161.853 20.27,159.057 19.726,156.509C18.44,150.523 17.475,144.462 16.535,138.401C16.51,138.179 16.485,137.931 16.634,137.758C16.782,137.585 17.054,137.61 17.277,137.61C22.051,138.03 26.405,137.239 31.13,137.164C31.353,137.164 31.6,137.164 31.798,137.263C33.307,138.104 32.243,144.413 32.219,145.872C32.144,150.82 31.575,155.916 31.971,160.839C32.169,163.189 33.703,170.363 29.448,170.412C28.953,171.55 29.077,172.861 29.25,174.098C29.893,178.972 31.477,183.647 31.996,188.52C32.243,190.92 31.848,193.097 31.575,195.447C31.402,196.882 31.526,198.44 31.674,199.999C31.823,198.589 32.045,197.203 32.318,195.769C32.936,192.676 33.381,189.238 32.689,186.17C31.872,182.534 31.254,178.823 30.759,175.112C30.586,173.826 30.462,172.416 31.105,171.278C31.477,170.61 32.219,170.14 32.516,169.447C32.837,168.755 32.837,167.79 32.911,167.048C33.134,164.945 33.159,162.818 32.986,160.69C32.862,159.379 32.59,158.043 32.664,156.757C32.887,152.898 33.579,149.261 33.827,145.501C33.851,146.441 33.901,147.406 33.95,148.346C34.099,150.844 34.866,153.071 35.336,155.52C36.127,159.651 35.237,163.782 36.3,167.938C36.474,168.606 36.696,169.324 37.216,169.794C37.488,170.041 37.834,170.239 38.032,170.536C38.601,171.451 38.181,173.801 38.255,174.939C38.378,176.745 37.785,178.675 37.216,180.357C36.77,181.693 36.226,182.979 35.905,184.364C35.064,188.001 35.583,192.775 36.647,196.313C36.869,197.055 37.117,197.772 37.24,198.514C37.587,200.469 37.191,202.72 37.092,204.674C36.919,208.286 36.35,211.799 35.929,215.361C35.756,216.92 35.558,218.478 35.088,219.962C34.643,221.348 33.975,222.708 33.95,224.168C33.95,224.86 34.297,226.493 34.915,226.914C35.113,227.062 35.36,227.112 35.608,227.136C37.389,227.334 39.219,226.518 40.976,226.889C42.237,227.161 43.499,227.384 44.761,227.532C44.043,227.013 43.351,226.691 42.312,226.543C40.456,226.27 38.502,226.518 36.671,225.998C35.237,225.603 35.459,224.267 35.311,223.005C35.261,222.585 35.237,222.164 35.336,221.768C35.435,221.298 35.682,220.853 35.905,220.432C38.007,216.252 38.7,211.502 38.947,206.876C39.071,204.551 38.947,202.225 39.096,199.9C39.219,198.094 38.354,196.659 37.686,195.026C36.399,191.835 36.276,189.139 37.092,185.873C37.414,184.513 38.651,179.021 40.679,179.466C41.149,179.565 41.52,179.887 41.866,180.208C43.549,181.693 44.365,179.565 45.725,180.283C46.146,180.505 46.369,180.951 46.567,181.371C48.051,184.612 48.471,188.199 48.669,191.761C49.016,189.881 49.238,188.026 49.238,185.948C49.238,182.385 48.076,178.873 48.1,175.335C48.125,172.441 48.62,169.546 48.62,166.652C48.546,167.221 48.397,167.765 48.1,168.26C47.68,168.928 46.987,169.373 46.542,170.016C46.047,170.759 45.948,171.674 45.404,172.391C44.786,173.183 43.623,173.529 42.683,173.158C42.46,173.084 42.237,172.96 42.114,172.762C41.817,172.342 42.015,171.773 42.04,171.253C42.188,168.854 40.308,167.172 40.951,164.599C41.1,163.956 41.347,163.213 41.965,162.966C42.609,162.694 43.326,163.139 43.969,163.387C45.453,163.98 47.16,163.708 48.546,162.892C48.57,162.818 48.57,162.743 48.595,162.669C48.694,162.348 48.867,162.026 49.016,161.729C49.56,160.641 50.03,159.503 50.451,158.34C49.609,159.552 48.521,160.492 46.839,161.012C46.344,161.16 45.8,161.259 45.305,161.111C43.994,160.69 43.771,158.884 42.708,157.994C41.941,157.326 40.827,157.301 40.036,156.732C39.17,156.114 38.824,155.099 38.552,154.11C36.968,148.296 36.201,142.285 36.276,136.274C39.393,136.026 42.534,135.977 45.651,136.15C48.867,136.299 51.564,136.274 54.755,135.804C54.879,136.348 55.002,136.892 55.077,137.461C55.151,137.189 55.25,136.942 55.373,136.67C56.61,136.744 57.872,136.002 58.391,134.864C58.515,134.567 58.639,134.245 58.886,134.047C59.233,133.775 59.752,133.899 60.123,134.097C60.494,134.295 60.865,134.567 61.31,134.666C62.176,134.839 62.993,134.196 63.636,133.577C65.194,132.118 66.233,131.425 66.505,129.347ZM11.365,90.954C11.167,90.162 11.191,89.395 10.993,88.604C10.796,87.812 10.35,86.996 10.598,86.155C10.697,85.784 10.919,85.462 11.117,85.116C13.22,81.677 13.64,77.942 12.997,74.033C13.319,74.948 13.64,75.864 14.185,76.655C14.407,76.977 14.655,77.274 14.803,77.62C14.951,77.942 15.026,78.313 15.1,78.659C15.471,80.663 15.595,82.716 16.09,84.695C16.238,85.264 16.386,85.833 16.411,86.427C16.51,88.752 14.951,90.657 14.234,92.76C13.616,94.566 12.923,96.569 12.923,98.499C12.255,96.025 11.983,93.452 11.365,90.954ZM54.483,100.8C54.038,98.697 53.444,96.594 52.726,94.566C52.108,92.834 51.267,91.127 50.797,89.346C50.698,89 50.723,88.629 50.747,88.282C50.846,86.773 50.945,85.289 50.995,83.78C51.02,83.359 51.02,82.964 51.118,82.568C51.168,82.271 51.267,81.974 51.366,81.677C52.034,79.673 52.875,77.744 53.518,75.715C53.345,76.284 53.691,77.571 53.765,78.214C53.864,79.179 53.988,80.143 54.211,81.108C54.606,82.939 55.547,84.448 56.091,86.204C56.462,87.392 56.14,88.653 55.843,89.865C54.978,93.403 54.532,97.089 54.483,100.8Z" style="fill:rgb(174,106,83);fill-opacity:0.71;fill-rule:nonzero;"/>
    <path d="M66.902,57.509C66.902,56.272 66.902,55.01 66.704,53.773C66.432,52.017 65.888,50.31 65.121,48.702C65.888,51.127 66.457,53.675 66.457,56.173C66.457,59.414 66.012,62.679 65.665,65.895C65.195,70.521 65.319,74.999 63.785,79.427C63.488,80.317 63.142,81.282 63.488,82.173C63.736,82.791 64.28,83.236 64.75,83.682C65.764,84.646 66.531,85.636 67.1,86.7C66.605,85.636 65.863,84.671 65.517,83.533C64.923,81.628 65.344,80.441 65.937,78.635C67.1,75.147 66.308,71.659 66.556,68.097C66.828,64.584 66.902,61.071 66.902,57.509Z" style="fill:rgb(174,106,83);fill-opacity:0.71;fill-rule:nonzero;"/>
    <path d="M33.802,222.857C33.777,222.51 33.703,222.189 33.604,221.867C33.654,222.51 33.703,223.154 33.753,223.797C33.777,224.118 33.753,224.539 33.753,224.984C33.901,224.217 33.876,223.376 33.802,222.857Z" style="fill:rgb(174,106,83);fill-opacity:0.71;fill-rule:nonzero;"/>
    <path d="M44.415,22.058C44.069,21.638 43.426,21.366 42.956,21.638C43.079,22.751 43.228,23.839 43.351,24.953C43.426,23.864 43.5,22.355 43.525,22.355C43.821,22.355 44.143,22.355 44.341,22.132C44.366,22.132 44.39,22.108 44.415,22.058Z" style="fill:rgb(174,106,83);fill-opacity:0.71;fill-rule:nonzero;"/>
    <path d="M42.114,33.784C42.04,31.855 41.867,29.826 42.163,27.897C42.188,27.798 42.188,27.674 42.238,27.575C41.545,28.045 40.828,28.491 40.085,28.886C40.481,29.06 40.852,29.208 41.248,29.381C41.124,30.618 41.001,31.88 40.852,33.117C40.828,33.413 40.803,33.735 40.877,34.007C41.124,34.823 42.114,35.071 42.93,35.269C44.909,35.714 46.814,36.456 48.571,37.47C49.387,37.94 50.277,38.732 50.005,39.623C49.807,40.266 49.041,40.711 49.09,41.379C50.995,41.503 52.9,41.428 54.78,41.107C56.14,40.884 57.501,40.563 58.862,40.785C58.763,40.736 58.688,40.686 58.589,40.637C57.08,39.944 55.052,40.464 53.444,40.266C51.91,40.093 50.599,38.757 49.436,37.841C48.224,36.926 46.839,36.308 45.454,35.689C44.786,35.442 42.139,34.601 42.114,33.784Z" style="fill:rgb(174,106,83);fill-opacity:0.71;fill-rule:nonzero;"/>
    <path d="M24.624,14.662C24.401,15.454 24.426,16.245 24.179,17.086C24.154,17.185 24.105,17.309 23.981,17.309C23.907,17.309 23.857,17.26 23.808,17.235C23.387,16.889 22.596,15.973 22.2,16.963C22.051,17.334 22.175,17.754 22.299,18.125C22.744,19.536 23.239,20.97 23.684,22.405C23.758,22.653 23.833,22.875 24.006,23.073C24.154,23.271 24.426,23.395 24.674,23.32C24.797,23.296 24.896,23.197 25.02,23.221C25.391,23.246 25.366,25.448 25.391,25.77C25.44,26.561 25.614,26.932 26.034,27.625C26.108,27.749 26.183,27.872 26.232,27.996C26.306,28.169 26.331,28.342 26.331,28.515C26.554,30.346 26.603,32.003 26.479,33.859C26.479,33.958 26.455,34.057 26.43,34.131C26.381,34.23 26.257,34.279 26.133,34.329C24.327,35.096 22.472,35.64 20.814,36.753C18.984,37.965 17.277,39.92 15.174,40.662C13.517,41.231 11.686,40.662 9.979,41.107C8.817,41.404 7.852,42.171 7.011,43.036C2.484,47.712 1.494,55.133 1.074,61.367C0.925,63.569 0.9,65.796 1.049,68.022C1.172,69.976 1.939,71.733 2.113,73.736C2.261,75.641 2.286,77.546 2.459,79.451C2.607,81.183 3.325,82.716 2.756,84.473C2.558,85.116 2.187,85.685 1.89,86.278C0.43,89.396 0.826,92.537 1.024,95.877C1.222,99.192 1.098,102.704 1.865,105.92C2.36,108.048 2.954,110.002 3.127,112.179C3.201,113.144 3.3,114.084 3.325,115.049C3.448,120.244 2.409,125.29 2.286,130.436C2.286,130.634 2.286,130.832 2.335,131.029C2.434,131.326 2.682,131.549 2.904,131.747C4.933,133.627 5.749,135.878 8.841,134.344C9.41,135.037 10.029,135.68 10.697,136.274C10.944,136.497 11.191,136.694 11.513,136.719C12.156,136.744 12.849,136.398 13.418,136.175C12.626,136.472 15.422,148.742 15.718,149.979C16.683,154.06 17.376,158.34 19.751,161.878C19.924,162.15 20.122,162.397 20.196,162.719C20.27,163.016 20.221,163.337 20.171,163.634C19.701,166.825 19.775,170.289 20.196,173.505C20.32,174.519 20.518,175.558 20.344,176.572C20.023,178.576 19.058,180.406 18.86,182.509C18.266,188.372 19.8,194.136 21.458,199.702C23.165,205.441 24.698,211.329 24.624,217.315C24.624,217.563 24.624,217.81 24.5,218.033C24.401,218.231 24.253,218.379 24.105,218.528C22.645,219.962 21.26,221.496 19.578,222.684C18.811,223.228 17.945,223.822 17.005,224.044C15.991,224.292 14.927,224.044 14.012,224.687C13.344,225.133 12.997,226.147 13.517,226.765C13.838,227.161 14.358,227.285 14.828,227.359C16.015,227.557 17.252,227.631 18.464,227.582C20.889,227.483 23.165,227.458 25.564,226.988C27.865,226.543 30.042,227.409 32.318,227.087C33.901,226.864 33.95,223.995 33.827,222.832C33.728,221.867 33.307,220.977 32.986,220.061C31.724,216.499 31.551,212.269 31.378,208.509C31.18,204.105 31.427,200.024 32.268,195.744C32.887,192.652 33.332,189.213 32.639,186.146C31.823,182.509 31.204,178.798 30.71,175.088C30.536,173.801 30.413,172.391 31.056,171.253C31.427,170.585 32.169,170.115 32.466,169.423C32.788,168.73 32.788,167.765 32.862,167.023C33.084,164.92 33.109,162.793 32.936,160.666C32.812,159.354 32.54,158.019 32.614,156.732C32.911,151.117 34.297,145.922 33.728,140.207C33.678,142.904 33.728,145.625 33.901,148.321C34.049,150.82 34.816,153.046 35.286,155.495C36.078,159.627 35.187,163.758 36.251,167.914C36.424,168.582 36.647,169.299 37.166,169.769C37.438,170.016 37.785,170.214 37.983,170.511C38.552,171.427 38.131,173.777 38.205,174.915C38.329,176.72 37.735,178.65 37.166,180.332C36.721,181.668 36.177,182.954 35.855,184.34C35.014,187.976 35.533,192.751 36.597,196.288C36.82,197.03 37.067,197.748 37.191,198.49C37.537,200.444 37.142,202.695 37.042,204.65C36.869,208.261 36.3,211.774 35.88,215.336C35.707,216.895 35.509,218.453 35.039,219.938C34.594,221.323 33.926,222.684 33.901,224.143C33.901,224.836 34.247,226.469 34.866,226.889C35.064,227.037 35.311,227.087 35.558,227.112C37.339,227.31 39.17,226.493 40.926,226.864C44.835,227.73 48.843,228.076 52.825,227.334C53.246,227.26 53.691,227.161 54.038,226.914C54.78,226.394 54.854,225.182 54.235,224.539C52.974,223.302 50.822,224.415 49.288,223.302C48.224,222.51 47.284,221.62 46.295,220.754C45.998,220.482 43.375,218.874 43.375,218.775C43.895,211.205 45.552,203.759 47.507,196.437C48.472,192.85 49.189,189.683 49.189,185.923C49.189,182.361 48.026,178.848 48.051,175.31C48.076,171.921 48.744,168.507 48.521,165.143C48.472,164.302 48.298,163.436 48.546,162.62C48.645,162.298 48.818,161.977 48.966,161.68C50.92,157.821 51.91,153.318 52.875,149.138C53.394,146.911 53.84,144.685 54.235,142.458C54.557,140.554 54.557,138.377 55.373,136.595C56.61,136.67 57.872,135.928 58.391,134.79C58.515,134.493 58.639,134.171 58.886,133.973C59.233,133.701 59.752,133.825 60.123,134.023C60.494,134.221 60.865,134.493 61.31,134.592C62.176,134.765 62.993,134.122 63.636,133.503C65.12,132.093 66.184,131.401 66.456,129.323C66.703,127.442 66.778,125.488 66.011,123.707C63.685,118.413 65.565,112.179 66.654,106.836C67.742,101.492 67.594,96.421 67.619,90.979C67.619,89.915 67.668,88.653 67.421,87.614C67.05,86.155 65.937,84.943 65.491,83.508C64.897,81.603 65.318,80.416 65.912,78.61C67.074,75.122 66.283,71.634 66.53,68.071C66.778,64.559 66.876,61.046 66.852,57.484C66.852,56.247 66.852,54.985 66.654,53.748C66.06,50.013 64.254,46.475 61.756,43.655C60.89,42.69 59.752,41.231 58.54,40.662C57.031,39.969 55.002,40.489 53.394,40.291C51.861,40.118 50.549,38.782 49.387,37.866C48.175,36.951 46.789,36.333 45.404,35.714C44.736,35.417 42.114,34.576 42.064,33.76C41.99,31.83 41.817,29.802 42.114,27.872C42.139,27.699 42.163,27.526 42.262,27.402C42.361,27.254 42.534,27.18 42.683,27.081C43.004,26.833 43.153,26.388 43.227,25.992C43.277,25.72 43.45,22.356 43.474,22.356C43.771,22.356 44.093,22.356 44.291,22.133C44.761,21.613 44.81,20.327 44.86,19.684C44.983,18.595 45.082,17.507 45.157,16.394C45.256,14.514 43.672,14.835 42.98,16.122C42.881,16.295 42.732,16.245 42.609,16.419" style="fill:none;fill-rule:nonzero;stroke:rgb(31,0,0);stroke-width:0.28px;"/>
    <path d="M44.44,9.64C44.613,9.739 44.762,9.838 44.935,9.937C44.861,8.749 44.687,7.562 44.391,6.399C44.242,5.855 43.698,4.148 43.079,4C43.253,4.049 43.45,4.099 43.624,4.123C42.956,3.307 42.164,2.59 41.274,1.996C40.705,1.6 39.962,0.759 39.171,1.13C39.418,1.006 39.666,0.907 39.913,0.784C39.641,0.907 38.874,0.734 38.552,0.734C38.132,0.734 37.687,0.808 37.266,0.784C36.524,0.734 35.905,0.759 35.139,0.858C35.237,0.734 35.287,0.586 35.336,0.437C34.941,0.808 34.273,0.709 33.753,0.512C33.234,0.289 32.714,-0.008 32.17,0.066C32.368,0.264 32.541,0.487 32.739,0.685C31.477,0.413 30.24,0.388 28.954,0.363C29.3,0.536 29.671,0.709 30.018,0.883C28.731,0.883 27.519,1.476 26.505,2.293C25.515,3.109 24.823,4.148 23.957,5.088C23.561,5.509 23.215,5.904 22.893,6.374C22.621,6.795 22.398,7.488 22.052,7.809C22.225,7.636 22.423,7.512 22.621,7.413C22.225,8.23 22.176,9.195 22.027,10.06C22.225,9.838 22.398,9.59 22.572,9.318C22.572,10.333 22.72,11.446 22.596,12.46C22.473,13.351 22.621,14.142 22.621,15.033C22.671,14.884 22.745,14.761 22.868,14.662C22.745,14.761 22.844,15.602 22.844,15.8C22.844,16.27 22.844,16.666 23.24,17.012C23.487,17.235 23.833,17.333 24.031,17.606C24.279,17.902 24.279,18.348 24.501,18.645C24.526,18.298 24.6,17.977 24.724,17.655C24.848,17.902 24.996,18.125 25.144,18.323C25.07,18.249 25.243,17.531 25.268,17.383C25.293,17.037 25.293,16.69 25.293,16.344C25.268,15.651 25.194,14.934 25.144,14.241C25.095,13.375 25.144,12.485 25.144,11.619C25.144,10.827 25.491,10.085 26.282,9.788C26.332,9.764 26.406,9.739 26.431,9.689C26.48,9.59 26.406,9.491 26.357,9.393C26.282,9.219 26.381,8.997 26.53,8.873C26.678,8.749 26.876,8.7 27.074,8.675C27.841,8.551 28.632,8.626 29.399,8.824C29.276,8.7 29.152,8.576 29.078,8.403C29.399,8.527 30.785,9.096 31.081,8.774C31.131,8.725 31.057,8.601 31.007,8.65C31.279,8.354 33.036,8.898 33.407,8.923C34.941,9.046 36.524,9.046 38.058,8.898C37.884,8.848 37.711,8.774 37.538,8.725C38.132,8.774 38.701,8.824 39.294,8.873C39.121,8.7 38.948,8.551 38.8,8.378C39.715,8.65 40.705,8.947 41.249,9.764C41.719,10.456 41.719,11.347 41.719,12.163C41.694,13.771 41.966,15.354 41.991,16.938C42.09,16.814 42.189,16.666 42.288,16.542C42.362,17.037 42.411,17.556 42.486,18.051C42.832,17.185 42.832,16.146 43.45,15.429C43.673,15.181 44.019,14.983 44.316,15.107C44.242,14.142 44.44,13.276 44.613,12.336C44.687,11.891 44.737,11.421 44.737,10.951C44.687,10.778 44.663,9.788 44.44,9.64Z" style="fill-rule:nonzero;"/>
    <path d="M16.412,86.427C16.387,85.833 16.214,85.264 16.09,84.695C15.595,82.692 15.471,80.663 15.1,78.659C15.026,78.313 14.977,77.942 14.804,77.62C14.63,77.274 14.383,76.977 14.185,76.655C13.641,75.864 13.319,74.949 12.998,74.033C13.641,77.942 13.245,81.677 11.118,85.116C10.92,85.437 10.722,85.784 10.598,86.155C10.351,86.996 10.796,87.812 10.994,88.604C11.192,89.396 11.167,90.162 11.365,90.954C11.983,93.428 12.231,96.025 12.923,98.474C12.948,96.545 13.616,94.541 14.235,92.735C14.952,90.657 16.51,88.728 16.412,86.427Z" style="fill:none;fill-rule:nonzero;stroke:rgb(31,0,0);stroke-width:0.28px;"/>
    <path d="M53.517,75.69C52.874,77.744 52.033,79.649 51.365,81.652C51.266,81.949 51.167,82.246 51.118,82.543C51.043,82.939 51.019,83.359 50.994,83.755C50.945,85.264 50.846,86.748 50.747,88.257C50.722,88.604 50.697,88.975 50.796,89.321C51.266,91.102 52.107,92.809 52.726,94.541C53.443,96.569 54.037,98.672 54.482,100.775C54.532,97.089 54.977,93.378 55.843,89.791C56.139,88.579 56.461,87.317 56.09,86.13C55.546,84.398 54.606,82.864 54.21,81.034C54.012,80.094 53.888,79.129 53.765,78.14C53.69,77.546 53.344,76.259 53.517,75.69Z" style="fill:none;fill-rule:nonzero;stroke:rgb(31,0,0);stroke-width:0.28px;"/>
    <path d="M13.096,136.299C13.368,135.483 13.467,134.617 13.689,133.8C13.912,132.959 14.258,131.054 15.446,131.054C15.57,131.054 15.693,131.079 15.817,131.03C15.99,130.955 16.04,130.758 16.064,130.584C16.237,129.818 16.609,128.68 16.46,127.888C16.336,127.245 15.817,126.898 15.396,126.453C14.728,125.761 14.085,124.944 13.368,124.301C12.799,123.781 12.23,123.46 11.983,122.668C11.785,122.025 11.76,121.357 11.76,120.689C11.686,116.706 11.958,112.699 12.428,108.741C12.626,107.083 12.824,105.426 12.923,103.744C13.071,101.542 13.071,99.613 12.749,97.436" style="fill:none;fill-rule:nonzero;stroke:rgb(31,0,0);stroke-width:0.28px;"/>
    <path d="M54.458,99.735C54.458,102.259 55.077,104.708 55.522,107.181C55.522,108.047 55.967,109.062 56.14,109.927C56.363,111.09 56.536,112.277 56.685,113.465C57.031,116.557 57.006,119.625 56.932,122.742C56.932,123.014 56.907,123.286 56.759,123.509C56.66,123.657 56.511,123.756 56.363,123.855C55.423,124.473 54.211,125.018 53.691,126.081C53.518,126.428 53.444,126.799 53.345,127.145C52.924,128.926 52.603,130.683 52.281,132.488C52.232,132.761 52.182,133.033 52.281,133.305C52.628,134.294 53.642,133.676 54.161,134.096C54.235,134.146 54.26,134.245 54.285,134.344C54.433,134.962 54.532,135.729 54.78,136.298C54.978,136.793 55.992,136.818 56.388,136.57" style="fill:none;fill-rule:nonzero;stroke:rgb(31,0,0);stroke-width:0.28px;"/>
    <path d="M12.824,103.94C16.782,104.262 20.691,104.979 24.674,105.177C29.473,105.4 34.322,105.326 39.121,104.979C44.514,104.608 49.634,103.94 54.706,102.011" style="fill:none;fill-rule:nonzero;stroke:rgb(31,0,0);stroke-width:0.28px;"/>
    <path d="M13.442,135.234C16.683,136.348 20.097,136.892 23.511,136.842C25.391,136.818 27.271,136.669 29.126,136.397C30.437,136.199 32.589,136.298 33.381,134.987C33.876,134.171 33.901,132.959 33.826,132.019C33.826,132.983 33.851,134.047 34.272,134.913C34.346,135.061 34.42,135.185 34.544,135.284C34.667,135.383 34.841,135.408 34.989,135.432C38.329,135.977 41.718,136.249 45.107,136.298C46.814,136.323 48.521,136.298 50.203,136.224C51.613,136.175 53.097,136.15 54.483,135.927" style="fill:none;fill-rule:nonzero;stroke:rgb(31,0,0);stroke-width:0.28px;"/>
    <path d="M50.253,136.224C48.546,136.298 46.864,136.323 45.157,136.298C41.768,136.248 38.379,135.976 35.039,135.432C34.891,135.407 34.718,135.383 34.594,135.284C34.47,135.185 34.396,135.061 34.322,134.913C33.901,134.047 33.877,132.983 33.877,132.018C33.951,132.934 33.926,134.146 33.431,134.987C32.64,136.323 30.487,136.224 29.176,136.397C27.321,136.669 25.441,136.817 23.561,136.842C21.804,136.867 20.048,136.718 18.316,136.446C17.451,136.298 16.585,136.125 15.744,135.902C15.298,135.778 13.616,135.556 13.468,135.061C13.418,134.888 13.468,134.715 13.517,134.517C13.666,133.997 13.789,133.502 13.938,132.983C14.136,132.216 14.457,131.35 15.224,131.128C15.496,131.053 15.793,131.053 15.991,130.856C16.387,130.435 16.436,129.866 16.461,129.322C16.461,128.876 16.609,128.11 16.486,127.689C16.288,126.996 15.323,126.403 14.878,125.883C14.235,125.116 13.641,124.3 12.825,123.706C12.181,123.261 11.884,122.816 11.835,122.024C11.687,119.526 11.711,117.027 11.835,114.504C11.934,112.747 12.107,111.016 12.33,109.284C12.552,107.528 12.651,105.697 12.998,103.965C13.27,104.114 13.493,104.04 13.789,104.015C14.185,103.965 14.556,103.99 14.952,104.04C16.659,104.237 18.316,104.633 20.023,104.856C23.363,105.276 26.727,105.4 30.067,105.4C33.332,105.4 36.697,105.425 39.937,105.103C40.828,105.029 41.719,104.98 42.609,104.881C43.5,104.782 44.341,104.46 45.231,104.361C47.136,104.139 49.041,103.619 50.921,103.149C52.232,102.827 53.246,102.481 54.508,102.061C54.36,102.11 54.953,104.732 55.028,105.004C55.225,105.845 55.3,106.662 55.473,107.503C55.918,109.606 56.438,111.659 56.759,113.786C57.007,115.469 57.081,117.175 57.081,118.882C57.081,119.748 57.056,120.589 57.007,121.455C56.982,121.851 57.007,122.296 56.908,122.692C56.833,123.038 56.858,123.409 56.611,123.657C55.968,124.349 54.83,124.745 54.038,125.265C53.815,125.413 53.89,125.611 53.766,125.858C53.222,126.947 52.999,128.159 52.826,129.347C52.727,129.965 52.727,130.608 52.578,131.227C52.455,131.771 52.158,132.241 52.183,132.835C52.207,133.329 52.48,133.973 53.048,133.997C53.395,134.022 53.741,134.022 54.087,134.047C54.261,134.715 54.434,135.407 54.607,136.075C54.582,135.853 50.674,136.224 50.253,136.224Z" style="fill:rgb(175,25,0);fill-rule:nonzero;stroke:rgb(36,0,0);stroke-width:0.28px;"/>
    <path d="M28.087,114.108C28.409,115.048 28.755,115.964 29.126,116.879C29.497,117.794 29.918,118.685 30.363,119.575C30.808,120.441 31.278,121.332 31.773,122.173C32.02,122.594 32.292,123.014 32.54,123.435C32.812,123.83 33.109,124.226 33.529,124.424C33.727,124.523 33.95,124.548 34.173,124.498C34.395,124.449 34.568,124.325 34.742,124.152C34.915,124.004 35.063,123.806 35.212,123.608L35.434,123.311L35.657,123.014C36.226,122.222 36.696,121.357 37.092,120.441C37.488,119.551 37.834,118.611 38.131,117.671C38.452,116.731 38.7,115.791 38.997,114.826C38.551,116.755 38.056,118.66 37.265,120.491C36.869,121.406 36.399,122.297 35.83,123.113L35.607,123.41L35.385,123.707C35.236,123.905 35.063,124.103 34.89,124.276C34.692,124.449 34.469,124.622 34.222,124.671C33.95,124.746 33.653,124.721 33.43,124.597C32.936,124.35 32.614,123.929 32.342,123.509C32.07,123.088 31.823,122.668 31.575,122.247C31.08,121.381 30.61,120.516 30.19,119.625C29.349,117.869 28.631,116.013 28.087,114.108Z" style="fill:rgb(31,0,0);fill-rule:nonzero;"/>
    <path d="M19.751,161.259C20.27,162.174 21.161,162.892 22.175,163.09C22.695,163.188 23.189,163.139 23.684,162.941C23.931,162.842 24.154,162.718 24.377,162.595C24.599,162.471 24.847,162.347 25.045,162.199C25.465,161.902 25.812,161.506 26.232,161.16C26.331,161.086 26.455,160.987 26.578,160.913C26.702,160.838 26.851,160.814 26.999,160.789C27.296,160.764 27.568,160.838 27.815,160.962C28.063,161.086 28.285,161.259 28.459,161.457C28.632,161.679 28.78,161.902 28.879,162.15C29.102,162.644 29.25,163.139 29.448,163.634C29.201,163.164 29.028,162.669 28.78,162.199C28.656,161.976 28.508,161.754 28.335,161.556C28.162,161.383 27.939,161.209 27.716,161.111C27.494,161.012 27.246,160.962 26.999,160.987C26.875,161.012 26.776,161.036 26.653,161.086C26.554,161.135 26.455,161.209 26.356,161.308C25.96,161.63 25.614,162.051 25.168,162.372C24.946,162.521 24.698,162.644 24.476,162.768C24.253,162.892 24.006,163.015 23.734,163.114C23.239,163.312 22.645,163.386 22.126,163.238C21.581,163.114 21.087,162.867 20.691,162.521C20.295,162.174 19.973,161.729 19.751,161.259Z" style="fill:rgb(31,0,0);fill-rule:nonzero;"/>
    <path d="M26.084,178.005C26.306,177.733 26.48,177.436 26.677,177.164C26.851,176.867 26.999,176.571 27.172,176.249C27.494,175.63 27.791,175.012 28.236,174.468C27.964,175.111 27.716,175.754 27.395,176.373C27.222,176.694 27.049,176.991 26.851,177.263C26.628,177.535 26.381,177.807 26.084,178.005Z" style="fill:rgb(31,0,0);fill-rule:nonzero;"/>
    <path d="M42.336,177.017C41.94,176.819 41.569,176.547 41.297,176.2C41,175.854 40.802,175.433 40.654,175.013C40.53,174.592 40.456,174.147 40.406,173.702C40.357,173.256 40.332,172.836 40.307,172.391C40.431,172.811 40.505,173.256 40.579,173.677C40.654,174.098 40.753,174.543 40.876,174.939C41,175.334 41.198,175.73 41.445,176.077C41.693,176.423 41.989,176.745 42.336,177.017Z" style="fill:rgb(31,0,0);fill-rule:nonzero;"/>
    <path d="M43.993,179.317C44.364,179.218 44.735,179.045 44.983,178.773C45.23,178.501 45.379,178.13 45.453,177.759C45.601,177.017 45.576,176.225 45.799,175.433C46.071,174.691 46.294,173.974 46.442,173.207C46.516,172.836 46.591,172.44 46.64,172.069L46.838,170.906C46.813,171.302 46.789,171.698 46.764,172.069C46.739,172.465 46.69,172.836 46.615,173.232C46.566,173.627 46.467,173.998 46.368,174.394C46.319,174.592 46.269,174.765 46.195,174.963C46.145,175.161 46.046,175.334 45.997,175.508C45.774,176.225 45.799,177.017 45.601,177.808C45.502,178.179 45.329,178.575 45.032,178.872C44.76,179.144 44.364,179.268 43.993,179.317Z" style="fill:rgb(31,0,0);fill-rule:nonzero;"/>
    <path d="M24.45,178.551C24.005,178.328 23.535,178.081 23.164,177.71C22.991,177.512 22.842,177.289 22.743,177.042C22.644,176.795 22.644,176.498 22.644,176.25C22.669,175.731 22.669,175.261 22.644,174.741C22.62,174.247 22.57,173.727 22.57,173.232C22.669,173.727 22.768,174.222 22.842,174.717C22.892,174.964 22.892,175.211 22.917,175.484C22.917,175.731 22.917,176.003 22.892,176.25C22.892,176.498 22.892,176.745 22.966,176.968C23.04,177.191 23.164,177.388 23.312,177.586C23.634,177.957 24.054,178.254 24.45,178.551Z" style="fill:rgb(31,0,0);fill-rule:nonzero;"/>
    <path d="M39.294,163.658C39.393,163.089 39.59,162.545 39.838,162.025C40.11,161.506 40.432,161.011 40.926,160.665C41.174,160.492 41.471,160.393 41.817,160.417C41.891,160.442 41.99,160.467 42.064,160.541C42.138,160.59 42.163,160.665 42.213,160.739C42.287,160.863 42.361,160.962 42.46,161.085C42.806,161.531 43.202,161.926 43.697,162.198C44.662,162.718 45.899,162.916 46.913,162.471C47.432,162.248 47.902,161.926 48.298,161.531C48.719,161.135 49.065,160.689 49.436,160.244C49.139,160.739 48.793,161.209 48.397,161.629C48.001,162.05 47.531,162.421 46.987,162.668C46.443,162.941 45.849,163.015 45.255,162.941C44.662,162.891 44.093,162.718 43.573,162.446C43.054,162.149 42.608,161.728 42.262,161.258C42.163,161.135 42.089,161.011 42.015,160.887C41.941,160.764 41.866,160.689 41.767,160.665C41.668,160.64 41.52,160.665 41.396,160.714C41.273,160.739 41.149,160.813 41.025,160.863C40.555,161.159 40.209,161.629 39.937,162.124C39.64,162.57 39.442,163.089 39.294,163.658Z" style="fill:rgb(31,0,0);fill-rule:nonzero;"/>
    <path d="M55.447,127.689C55.398,127.962 55.348,128.258 55.298,128.531C55.249,128.803 55.2,129.1 55.15,129.372C55.051,129.941 54.952,130.51 54.853,131.054C54.73,131.623 54.606,132.167 54.408,132.711C54.309,132.983 54.26,133.255 54.185,133.528C54.111,133.8 54.037,134.097 53.864,134.319C53.963,134.047 54.037,133.775 54.062,133.503C54.086,133.231 54.136,132.934 54.21,132.662C54.359,132.118 54.482,131.549 54.581,131.004C54.705,130.435 54.804,129.891 54.952,129.322C55.101,128.803 55.249,128.234 55.447,127.689Z" style="fill:rgb(31,0,0);fill-rule:nonzero;"/>
    <path d="M14.457,128.531C14.506,129.15 14.531,129.768 14.531,130.387C14.506,131.005 14.457,131.648 14.185,132.217C14.259,131.599 14.259,130.98 14.284,130.362C14.308,129.768 14.308,129.15 14.457,128.531Z" style="fill:rgb(31,0,0);fill-rule:nonzero;"/>
    <path d="M33.801,88.206C33.9,88.899 33.999,89.591 34.074,90.259C34.148,90.952 34.173,91.645 34.197,92.337C34.197,93.03 34.148,93.723 34.049,94.415L33.876,95.43C33.826,95.776 33.777,96.122 33.752,96.444C33.603,97.804 33.603,99.19 33.603,100.575L33.628,102.653C33.628,103.346 33.628,104.038 33.603,104.731L33.43,100.575C33.381,99.19 33.381,97.804 33.529,96.419C33.554,96.073 33.603,95.726 33.678,95.38L33.851,94.366C33.95,93.698 33.999,93.005 34.024,92.313C34.024,90.977 33.9,89.591 33.801,88.206Z" style="fill:rgb(31,0,0);fill-rule:nonzero;"/>
    <path d="M24.402,77.397C24.476,78.584 24.427,79.771 24.204,80.934C23.982,82.097 23.635,83.259 23.165,84.348C22.695,85.436 22.101,86.475 21.434,87.465L20.939,88.207C20.865,88.331 20.79,88.454 20.741,88.578C20.691,88.702 20.691,88.85 20.642,88.999C20.543,89.568 20.568,90.161 20.642,90.73C20.79,91.893 21.211,93.006 21.607,94.119C22.003,95.233 22.324,96.395 22.571,97.558C22.646,97.855 22.695,98.127 22.745,98.424C22.794,98.721 22.745,99.042 22.67,99.339C22.522,99.933 22.25,100.452 22.052,101.021C21.656,102.134 21.26,103.272 21.31,104.46C21.26,103.866 21.335,103.272 21.458,102.679C21.582,102.085 21.755,101.541 21.928,100.972C22.126,100.403 22.374,99.859 22.497,99.29C22.571,99.018 22.596,98.721 22.547,98.449C22.497,98.176 22.423,97.879 22.349,97.583C22.077,96.445 21.755,95.307 21.359,94.194C20.964,93.08 20.543,91.967 20.37,90.755C20.296,90.161 20.271,89.543 20.37,88.949C20.395,88.801 20.419,88.652 20.469,88.504C20.518,88.355 20.617,88.207 20.691,88.083L21.211,87.366C21.879,86.401 22.448,85.362 22.967,84.298C23.462,83.235 23.833,82.097 24.081,80.934C24.328,79.771 24.427,78.584 24.402,77.397Z" style="fill:rgb(31,0,0);fill-rule:nonzero;"/>
    <path d="M46.295,76.061C45.083,76.457 43.772,76.408 42.56,76.061C41.323,75.74 40.185,75.121 39.195,74.33C38.7,73.934 38.255,73.464 37.835,73.019C37.414,72.549 36.969,72.079 36.573,71.609C36.152,71.138 35.757,70.644 35.361,70.174L34.767,69.432C34.668,69.308 34.569,69.184 34.47,69.184C34.371,69.159 34.272,69.234 34.149,69.333L31.378,71.93C30.463,72.796 29.498,73.637 28.484,74.354C27.445,75.097 26.356,75.74 25.218,76.259C24.055,76.754 22.843,77.125 21.582,77.249C22.819,77.076 24.031,76.68 25.169,76.135C26.307,75.616 27.37,74.948 28.385,74.181C29.399,73.439 30.339,72.623 31.254,71.732L33.975,69.11C34.05,69.061 34.099,68.986 34.198,68.962C34.272,68.912 34.396,68.887 34.52,68.912C34.742,68.962 34.841,69.135 34.94,69.258L35.534,70.001C35.93,70.495 36.326,70.965 36.746,71.435C37.167,71.905 37.562,72.375 38.008,72.845C38.428,73.291 38.874,73.761 39.344,74.156C40.308,74.948 41.422,75.567 42.609,75.913C43.772,76.309 45.058,76.408 46.295,76.061Z" style="fill:rgb(31,0,0);fill-rule:nonzero;"/>
    <path d="M57.007,54.811C56.042,55.676 55.226,56.691 54.582,57.829C54.261,58.398 53.989,58.967 53.766,59.585C53.543,60.179 53.37,60.822 53.247,61.44C53.098,62.059 52.974,62.702 52.752,63.32C52.529,63.939 52.158,64.508 51.663,64.953C51.169,65.398 50.575,65.695 49.981,65.943C49.387,66.19 48.769,66.413 48.126,66.561C46.864,66.858 45.553,66.982 44.242,66.907C42.956,66.809 41.669,66.784 40.358,66.66C39.072,66.512 37.761,66.264 36.598,65.621C36.029,65.299 35.534,64.805 35.163,64.26C34.965,63.988 34.817,63.716 34.668,63.419C34.594,63.271 34.52,63.123 34.446,62.999C34.372,62.875 34.273,62.776 34.149,62.727C34.099,62.702 34.05,62.702 33.976,62.727C33.902,62.727 33.827,62.751 33.753,62.776C33.629,62.826 33.506,62.9 33.382,63.024C33.184,63.222 33.036,63.518 32.937,63.815C32.887,63.964 32.838,64.112 32.788,64.285C32.764,64.359 32.739,64.458 32.714,64.533L32.615,64.755C32.467,65.052 32.269,65.324 32.021,65.572C31.527,66.042 30.908,66.338 30.29,66.536C29.671,66.734 29.028,66.858 28.36,66.932C27.717,67.006 27.074,67.056 26.406,67.081C25.763,67.105 25.119,67.13 24.452,67.13C23.141,67.105 21.854,66.982 20.592,66.685C19.949,66.536 19.331,66.363 18.712,66.116C18.094,65.893 17.5,65.646 16.956,65.275C16.387,64.928 15.966,64.359 15.719,63.766C15.447,63.172 15.274,62.529 15.15,61.91C15.026,61.267 14.928,60.624 14.829,60.006C14.779,59.684 14.705,59.387 14.581,59.066C14.457,58.769 14.309,58.472 14.136,58.2C13.443,57.111 12.429,56.27 11.464,55.404C12.429,56.27 13.468,57.086 14.185,58.175C14.358,58.447 14.532,58.744 14.631,59.041C14.754,59.338 14.829,59.659 14.878,59.981C15.002,60.624 15.101,61.267 15.249,61.886C15.398,62.504 15.571,63.147 15.818,63.716C16.09,64.31 16.486,64.805 17.03,65.151C17.574,65.497 18.168,65.745 18.762,65.967C19.356,66.19 19.999,66.363 20.617,66.512C21.879,66.784 23.165,66.932 24.452,66.932C25.095,66.932 25.738,66.907 26.381,66.883C27.024,66.858 27.668,66.809 28.311,66.734C28.954,66.66 29.572,66.536 30.191,66.338C30.785,66.141 31.378,65.844 31.824,65.423C32.046,65.201 32.244,64.953 32.368,64.681L32.467,64.458L32.541,64.236C32.59,64.087 32.615,63.914 32.689,63.766C32.788,63.444 32.937,63.123 33.184,62.875C33.308,62.751 33.456,62.653 33.629,62.578C33.704,62.554 33.803,62.529 33.877,62.504C33.951,62.479 34.075,62.479 34.174,62.529C34.372,62.603 34.495,62.751 34.594,62.9C34.693,63.048 34.767,63.197 34.842,63.345C34.99,63.617 35.138,63.914 35.336,64.162C35.683,64.681 36.153,65.151 36.697,65.448C37.81,66.066 39.096,66.338 40.358,66.487C42.931,66.635 45.553,67.081 48.052,66.437C48.67,66.289 49.289,66.091 49.882,65.844C50.476,65.596 51.07,65.299 51.54,64.879C52.01,64.458 52.381,63.914 52.579,63.32C52.801,62.727 52.95,62.084 53.098,61.465C53.247,60.847 53.42,60.203 53.667,59.61C53.914,59.016 54.187,58.422 54.533,57.853C55.201,56.666 56.017,55.652 57.007,54.811Z" style="fill:rgb(31,0,0);fill-rule:nonzero;"/>
    <path d="M33.752,47.785C33.777,48.602 33.777,49.393 33.801,50.21C33.826,51.001 33.826,51.817 33.826,52.609C33.826,53.401 33.826,54.217 33.801,55.033L33.752,56.246C33.727,56.641 33.702,57.037 33.678,57.458C33.653,57.062 33.653,56.641 33.628,56.246L33.603,55.033C33.579,54.242 33.579,53.425 33.579,52.634C33.579,51.817 33.579,51.026 33.628,50.21C33.653,49.393 33.678,48.602 33.752,47.785Z" style="fill:rgb(31,0,0);fill-rule:nonzero;"/>
    <path d="M43.35,26.212C43.128,26.509 43.078,26.905 42.831,27.226C42.559,27.548 42.212,27.696 41.915,27.919C41.643,28.142 41.347,28.389 41.05,28.612C40.753,28.859 40.456,29.057 40.11,29.255C40.382,29.007 40.654,28.735 40.901,28.463C41.173,28.191 41.421,27.944 41.742,27.696C42.064,27.474 42.41,27.325 42.658,27.078C42.905,26.855 43.053,26.459 43.35,26.212Z" style="fill:rgb(31,0,0);fill-rule:nonzero;"/>
    <path d="M28.434,29.43C27.791,29.109 27.172,28.713 26.603,28.243C26.331,27.996 26.059,27.748 25.836,27.476C25.614,27.204 25.416,26.883 25.292,26.536C25.49,26.833 25.737,27.105 25.985,27.353C26.232,27.6 26.504,27.847 26.776,28.07C27.321,28.515 27.889,28.936 28.434,29.43Z" style="fill:rgb(31,0,0);fill-rule:nonzero;"/>
    <path d="M52.727,77.545C52.9,77.1 53.098,76.655 53.247,76.209C53.395,75.764 53.543,75.294 53.667,74.849C53.914,73.933 54.137,72.993 54.261,72.053C54.409,71.113 54.483,70.149 54.582,69.209L54.731,67.774C54.805,67.304 54.854,66.834 54.929,66.339L54.854,67.774L54.756,69.209C54.681,70.173 54.607,71.113 54.483,72.078C54.335,73.018 54.137,73.983 53.84,74.898C53.568,75.814 53.197,76.704 52.727,77.545Z" style="fill:rgb(31,0,0);fill-rule:nonzero;"/>
    <path d="M11.513,63.865C11.563,64.879 11.637,65.919 11.736,66.933C11.835,67.947 11.958,68.961 12.156,69.976C12.33,70.99 12.552,71.979 12.824,72.969L13.022,73.711L13.245,74.453L13.492,75.195C13.591,75.443 13.665,75.69 13.74,75.913C13.641,75.69 13.517,75.443 13.418,75.22L13.121,74.503L12.849,73.785L12.602,73.043C12.305,72.054 12.057,71.064 11.884,70.05C11.711,69.036 11.587,68.021 11.513,66.982C11.464,65.943 11.464,64.904 11.513,63.865Z" style="fill:rgb(31,0,0);fill-rule:nonzero;"/>
    <path d="M43.475,76.977C43.573,78.164 43.648,79.327 43.846,80.489C44.019,81.652 44.514,82.741 45.058,83.78C45.181,84.052 45.33,84.299 45.478,84.571C45.627,84.819 45.775,85.066 45.948,85.313C46.27,85.808 46.641,86.278 46.938,86.798C47.235,87.317 47.532,87.837 47.63,88.48C47.705,89.098 47.556,89.692 47.433,90.261C47.284,90.83 47.086,91.399 46.913,91.968C46.765,92.537 46.591,93.106 46.394,93.675C45.998,94.788 45.577,95.901 45.454,97.064C45.379,97.633 45.404,98.227 45.503,98.795C45.627,99.364 45.825,99.909 45.973,100.502C46.27,101.64 46.517,102.803 46.666,103.99C46.468,102.828 46.196,101.665 45.849,100.552C45.676,99.983 45.478,99.439 45.33,98.845C45.206,98.251 45.181,97.658 45.231,97.064C45.355,95.876 45.775,94.738 46.146,93.625C46.344,93.056 46.493,92.512 46.666,91.943C46.839,91.374 47.012,90.805 47.16,90.236C47.309,89.667 47.433,89.098 47.358,88.529C47.284,87.985 47.012,87.441 46.715,86.946C46.418,86.451 46.072,85.981 45.726,85.486C45.552,85.239 45.404,84.992 45.256,84.72C45.107,84.447 44.984,84.2 44.86,83.928C44.34,82.864 43.87,81.751 43.697,80.564C43.573,79.351 43.499,78.164 43.475,76.977Z" style="fill:rgb(31,0,0);fill-rule:nonzero;"/>
    <path d="M43.994,106.267C42.534,106.687 41.05,107.009 39.566,107.281C38.082,107.553 36.573,107.751 35.039,107.875C33.53,107.998 31.996,108.048 30.487,107.998L29.349,107.949L28.211,107.875L27.073,107.751L25.935,107.652L27.073,107.726L28.211,107.776L29.349,107.825L30.487,107.825C31.996,107.825 33.505,107.776 35.014,107.627C36.523,107.503 38.032,107.306 39.516,107.083C41.001,106.86 42.51,106.588 43.994,106.267Z" style="fill:rgb(31,0,0);fill-rule:nonzero;"/>
    <path d="M33.579,124.597C33.727,126.205 33.851,127.813 33.925,129.421C33.999,131.029 33.974,132.661 33.925,134.269C33.851,135.877 33.801,137.485 33.801,139.093C33.801,139.909 33.826,140.701 33.851,141.517C33.851,142.334 33.875,143.125 33.875,143.942L33.727,141.517C33.678,140.701 33.653,139.909 33.603,139.093C33.554,137.485 33.603,135.852 33.653,134.244C33.678,133.428 33.727,132.637 33.727,131.82C33.752,131.004 33.727,130.212 33.702,129.396L33.579,124.597Z" style="fill:rgb(31,0,0);fill-rule:nonzero;"/>
    <path d="M38.033,28.936C38.329,28.985 38.602,28.936 38.874,28.837C39.146,28.738 39.393,28.589 39.715,28.391C39.814,28.317 39.987,28.218 40.358,27.971C40.506,27.847 40.778,27.649 41.001,27.451C41.224,27.253 41.372,27.08 41.372,27.08C41.372,27.08 41.521,26.932 41.669,26.734C41.743,26.635 41.817,26.511 41.892,26.388C41.966,26.264 42.04,26.14 42.09,26.041C42.164,25.893 42.213,25.769 42.238,25.67C42.287,25.546 42.312,25.447 42.337,25.349C42.386,25.151 42.386,25.027 42.411,24.928C42.436,24.532 42.386,24.235 42.312,23.963C42.213,23.691 42.09,23.444 41.941,23.196C42.114,23.468 42.164,23.716 42.164,23.988C42.164,24.26 42.139,24.532 42.065,24.879C42.04,24.953 42.015,25.076 41.966,25.25C41.916,25.423 41.842,25.621 41.694,25.843C41.644,25.942 41.595,26.041 41.521,26.14C41.446,26.239 41.372,26.338 41.298,26.437C41.15,26.61 41.026,26.759 41.026,26.759C41.026,26.759 40.877,26.932 40.68,27.105C40.482,27.278 40.259,27.501 40.111,27.624C39.789,27.897 39.641,28.02 39.542,28.094C39.245,28.317 39.047,28.54 38.824,28.688C38.602,28.837 38.354,28.985 38.033,28.936Z" style="fill:white;fill-opacity:0.1;fill-rule:nonzero;"/>
    <path d="M44.316,36.307C44.538,36.332 44.662,36.431 44.909,36.53C45.033,36.579 45.429,36.728 45.8,36.851C46.146,36.975 46.468,37.099 46.468,37.099C46.468,37.099 46.789,37.222 47.136,37.371C47.482,37.519 47.878,37.692 48.002,37.742C48.249,37.841 48.398,37.865 48.595,37.989C48.422,37.865 48.348,37.717 48.15,37.544C48.051,37.445 47.705,37.173 47.334,37C46.987,36.802 46.641,36.678 46.641,36.678C46.641,36.678 46.295,36.53 45.924,36.455C45.528,36.356 45.107,36.307 44.959,36.307C44.687,36.282 44.538,36.332 44.316,36.307Z" style="fill:white;fill-opacity:0.1;fill-rule:nonzero;"/>
    <path d="M54.384,42.417C54.978,42.516 55.448,42.541 56.19,42.393C56.314,42.368 56.511,42.319 56.932,42.244C57.155,42.195 57.427,42.145 57.724,42.145C58.02,42.145 58.342,42.17 58.639,42.244C58.936,42.319 59.183,42.393 59.381,42.467C59.48,42.492 59.554,42.541 59.604,42.566C59.653,42.591 59.678,42.591 59.678,42.591C59.678,42.591 59.777,42.64 59.925,42.714C60.074,42.789 60.272,42.912 60.494,43.085C60.717,43.234 60.94,43.432 61.162,43.63C61.385,43.828 61.558,44.025 61.731,44.223C62.102,44.644 62.3,44.916 62.424,45.064C62.869,45.658 63.166,45.98 63.487,46.499C63.166,45.955 63.042,45.559 62.671,44.916C62.572,44.768 62.399,44.446 62.053,43.976C61.904,43.778 61.706,43.555 61.509,43.333C61.286,43.11 61.063,42.887 60.816,42.714C60.593,42.541 60.371,42.393 60.197,42.319C60.024,42.219 59.925,42.17 59.925,42.17C59.925,42.17 59.901,42.145 59.826,42.121C59.777,42.096 59.678,42.046 59.579,42.022C59.381,41.947 59.084,41.848 58.763,41.774C58.441,41.7 58.07,41.7 57.724,41.725C57.377,41.75 57.08,41.824 56.883,41.898C56.462,42.022 56.289,42.096 56.165,42.121C55.819,42.244 55.547,42.319 55.275,42.393C54.953,42.442 54.681,42.467 54.384,42.417Z" style="fill:white;fill-opacity:0.1;fill-rule:nonzero;"/>
    <path d="M48.793,63.619C48.892,63.57 48.991,63.57 49.066,63.545C49.164,63.52 49.263,63.52 49.387,63.471C49.461,63.446 49.585,63.396 49.733,63.322C49.882,63.248 50.055,63.149 50.228,63.05C50.401,62.951 50.525,62.827 50.624,62.728C50.723,62.629 50.797,62.58 50.797,62.58C50.797,62.58 50.847,62.506 50.946,62.407C51.045,62.308 51.168,62.159 51.267,62.011C51.391,61.862 51.49,61.689 51.564,61.516C51.638,61.368 51.688,61.219 51.712,61.17C51.762,61.046 51.762,60.947 51.787,60.848C51.811,60.749 51.811,60.65 51.861,60.576C51.762,60.774 51.638,60.873 51.49,61.046C51.416,61.145 51.168,61.467 50.921,61.739C50.673,62.011 50.451,62.234 50.451,62.234C50.451,62.234 50.228,62.456 49.956,62.704C49.832,62.827 49.684,62.951 49.56,63.05C49.437,63.149 49.338,63.223 49.263,63.273C49.09,63.396 48.991,63.52 48.793,63.619Z" style="fill:white;fill-opacity:0.1;fill-rule:nonzero;"/>
    <path d="M27.321,64.533C27.494,64.483 27.618,64.508 27.816,64.483C27.865,64.459 27.989,64.459 28.112,64.409C28.236,64.36 28.409,64.31 28.533,64.236C28.805,64.088 29.028,63.914 29.028,63.914C29.028,63.914 29.25,63.741 29.473,63.519C29.572,63.395 29.671,63.271 29.745,63.147C29.819,63.024 29.869,62.925 29.894,62.875C29.992,62.677 29.992,62.554 30.067,62.405C29.968,62.554 29.844,62.603 29.696,62.727C29.646,62.752 29.572,62.826 29.473,62.925C29.374,62.999 29.25,63.098 29.151,63.197C28.929,63.37 28.731,63.543 28.731,63.543C28.731,63.543 28.533,63.692 28.286,63.865C28.162,63.939 28.038,64.038 27.939,64.112C27.84,64.186 27.741,64.236 27.692,64.285C27.568,64.36 27.469,64.459 27.321,64.533Z" style="fill:white;fill-opacity:0.1;fill-rule:nonzero;"/>
    <path d="M6.565,46.426C6.664,46.302 6.788,46.278 6.936,46.154C6.961,46.129 7.06,46.055 7.134,45.981C7.208,45.906 7.332,45.808 7.406,45.709C7.579,45.511 7.728,45.313 7.728,45.313C7.728,45.313 7.876,45.115 8.025,44.892C8.099,44.793 8.173,44.67 8.222,44.546C8.272,44.447 8.321,44.348 8.346,44.298C8.42,44.125 8.42,44.002 8.519,43.878C8.42,44.002 8.297,44.026 8.148,44.15C8.123,44.175 8.025,44.249 7.95,44.323C7.876,44.397 7.752,44.496 7.678,44.595C7.505,44.793 7.357,44.991 7.357,44.991C7.357,44.991 7.208,45.189 7.06,45.412C6.986,45.511 6.911,45.634 6.862,45.758C6.812,45.857 6.763,45.956 6.738,46.005C6.664,46.179 6.664,46.302 6.565,46.426Z" style="fill:white;fill-opacity:0.1;fill-rule:nonzero;"/>
    <path d="M42.831,81.701C42.98,82.295 43.004,82.74 43.276,83.433C43.326,83.557 43.4,83.754 43.573,84.15C43.672,84.348 43.796,84.596 43.969,84.868C44.142,85.14 44.315,85.412 44.513,85.659C44.686,85.907 44.86,86.129 44.983,86.278C45.107,86.451 45.181,86.55 45.181,86.55C45.181,86.55 45.231,86.624 45.33,86.772C45.429,86.921 45.528,87.119 45.626,87.341C45.725,87.564 45.824,87.836 45.874,88.108C45.923,88.38 45.973,88.653 45.973,88.875C45.998,89.419 45.973,89.766 45.973,89.939C45.923,90.681 45.923,91.102 45.8,91.695C45.923,91.102 46.121,90.706 46.27,89.964C46.294,89.79 46.369,89.419 46.369,88.85C46.369,88.603 46.369,88.306 46.294,88.009C46.245,87.713 46.146,87.391 46.047,87.144C45.948,86.871 45.8,86.649 45.725,86.5C45.626,86.352 45.577,86.253 45.577,86.253C45.577,86.253 45.503,86.154 45.379,85.981C45.255,85.808 45.082,85.585 44.884,85.362C44.513,84.892 44.117,84.299 43.895,83.952C43.672,83.581 43.598,83.408 43.548,83.309C43.375,82.988 43.252,82.715 43.128,82.468C43.004,82.245 42.905,81.998 42.831,81.701Z" style="fill:white;fill-opacity:0.1;fill-rule:nonzero;"/>
    <path d="M35.286,86.624C35.435,87.218 35.41,87.663 35.509,88.405C35.534,88.529 35.559,88.727 35.633,89.147C35.658,89.271 35.707,89.543 35.707,89.543C35.707,89.543 35.732,89.79 35.757,89.914C35.855,90.458 35.905,90.805 35.93,91.003C36.053,91.72 36.202,92.141 36.251,92.759C36.251,92.141 36.375,91.72 36.35,90.953C36.35,90.78 36.326,90.409 36.251,89.84C36.227,89.716 36.202,89.469 36.202,89.469C36.202,89.469 36.152,89.172 36.128,89.073C36.029,88.653 35.979,88.455 35.954,88.331C35.707,87.589 35.46,87.218 35.286,86.624Z" style="fill:white;fill-opacity:0.1;fill-rule:nonzero;"/>
    <path d="M64.254,56.47C64.403,57.063 64.403,57.509 64.501,58.226C64.501,58.35 64.551,58.548 64.6,58.968C64.625,59.24 64.675,59.587 64.699,59.983C64.749,60.354 64.774,60.774 64.798,61.145C64.823,61.516 64.848,61.863 64.848,62.135C64.848,62.382 64.873,62.555 64.873,62.555L64.873,64.806C64.848,65.177 64.848,65.524 64.848,65.821C64.823,66.093 64.823,66.34 64.823,66.513C64.823,66.687 64.798,66.835 64.798,66.909C64.749,67.651 64.774,68.072 64.675,68.69C64.774,68.072 64.947,67.676 65.07,66.934C65.095,66.835 65.12,66.711 65.145,66.538C65.17,66.365 65.194,66.118 65.244,65.845C65.293,65.549 65.318,65.202 65.343,64.831C65.367,64.46 65.392,64.089 65.392,63.743L65.392,62.877L65.392,62.531C65.392,62.531 65.392,62.382 65.367,62.11C65.367,61.863 65.343,61.492 65.293,61.121C65.244,60.725 65.219,60.329 65.145,59.933C65.095,59.537 65.021,59.191 64.972,58.919C64.897,58.498 64.823,58.3 64.798,58.177C64.6,57.459 64.403,57.063 64.254,56.47Z" style="fill:white;fill-opacity:0.1;fill-rule:nonzero;"/>
    <path d="M10.499,95.356C10.548,95.975 10.499,96.395 10.523,97.138C10.523,97.261 10.523,97.459 10.548,97.88C10.573,98.647 10.647,100.477 10.647,100.477C10.647,100.477 10.721,102.011 10.746,102.852C10.771,103.421 10.796,103.767 10.796,103.941C10.845,104.683 10.919,105.103 10.919,105.722C10.944,105.103 11.043,104.683 11.092,103.941C11.092,103.767 11.117,103.396 11.142,102.827C11.166,102.407 11.166,101.788 11.142,101.318C11.142,100.824 11.117,100.428 11.117,100.428C11.117,100.428 11.092,99.958 11.068,99.414C11.018,98.845 10.969,98.201 10.919,97.806C10.87,97.385 10.845,97.187 10.82,97.063C10.721,96.371 10.573,95.975 10.499,95.356Z" style="fill:white;fill-opacity:0.1;fill-rule:nonzero;"/>
    <path d="M10.202,75.739C10.227,75.863 10.153,75.937 10.128,76.086C10.128,76.135 10.103,76.209 10.103,76.284C10.103,76.382 10.079,76.481 10.054,76.58C10.029,76.778 10.029,76.951 10.029,76.951C10.029,76.951 10.004,77.125 10.004,77.323C9.98,77.52 9.98,77.743 9.98,77.817C9.98,77.966 10.029,78.065 9.98,78.164C10.029,78.065 10.128,78.015 10.202,77.891C10.227,77.867 10.276,77.793 10.301,77.694C10.351,77.595 10.375,77.496 10.425,77.397C10.499,77.174 10.499,76.976 10.499,76.976C10.499,76.976 10.524,76.778 10.499,76.556C10.499,76.457 10.474,76.333 10.45,76.234C10.425,76.135 10.4,76.061 10.375,76.036C10.301,75.937 10.227,75.863 10.202,75.739Z" style="fill:white;fill-opacity:0.1;fill-rule:nonzero;"/>
    <path d="M64.23,86.277C64.28,86.896 64.354,87.316 64.626,88.009C64.651,88.108 64.725,88.232 64.799,88.405C64.849,88.479 64.873,88.578 64.923,88.677C64.972,88.801 65.046,88.924 65.096,89.048C65.17,89.172 65.22,89.32 65.294,89.444C65.566,89.988 65.863,90.582 66.061,91.25C66.16,91.571 66.209,91.893 66.259,92.239C66.283,92.586 66.283,92.932 66.283,93.278C66.259,94.664 66.036,95.975 65.937,96.939C65.888,97.434 65.838,97.83 65.813,98.127C65.789,98.399 65.789,98.572 65.789,98.572C65.789,98.572 65.615,101.12 65.566,103.891C65.541,105.276 65.516,106.76 65.516,107.973L65.516,109.061C65.516,109.803 65.566,110.224 65.566,110.842C65.566,110.224 65.64,109.803 65.665,109.061C65.714,108.294 65.838,105.993 65.937,103.891C66.11,101.095 66.259,98.572 66.259,98.572C66.259,98.572 66.259,98.424 66.283,98.127C66.308,97.855 66.333,97.459 66.382,96.964C66.481,95.999 66.679,94.664 66.679,93.253C66.679,92.907 66.654,92.536 66.63,92.19C66.58,91.819 66.506,91.472 66.382,91.126C66.16,90.458 65.813,89.84 65.492,89.32C65.343,89.048 65.195,88.801 65.046,88.578C64.997,88.479 64.947,88.405 64.898,88.306C64.799,88.133 64.725,88.009 64.7,87.91C64.527,87.589 64.428,87.316 64.329,87.069C64.329,86.846 64.255,86.599 64.23,86.277Z" style="fill:white;fill-opacity:0.1;fill-rule:nonzero;"/>
    <path d="M12.502,129.892C12.576,129.818 12.7,129.842 12.774,129.892C12.848,129.941 12.898,130.016 12.947,130.09C12.972,130.139 12.997,130.238 12.997,130.387C12.997,130.535 12.972,130.733 12.947,130.906C12.923,131.277 12.873,131.599 12.873,131.599C12.873,131.599 12.848,131.945 12.799,132.291C12.774,132.663 12.725,133.058 12.725,133.207C12.7,133.454 12.749,133.627 12.7,133.825C12.749,133.627 12.873,133.504 12.972,133.256C13.021,133.133 13.17,132.737 13.244,132.366C13.318,131.995 13.343,131.648 13.343,131.648C13.343,131.648 13.368,131.302 13.368,130.906C13.368,130.708 13.368,130.51 13.318,130.337C13.294,130.139 13.195,129.991 13.12,129.941C12.997,129.818 12.873,129.793 12.774,129.793C12.675,129.793 12.576,129.818 12.502,129.892Z" style="fill:white;fill-opacity:0.1;fill-rule:nonzero;"/>
    <path d="M64.329,126.501C64.478,126.773 64.527,127.045 64.527,127.317C64.552,127.589 64.552,127.862 64.527,128.233L64.527,128.48C64.502,128.604 64.502,128.752 64.478,128.95L64.478,129.049C64.428,129.519 64.329,129.89 64.304,130.088C64.23,130.434 64.181,130.731 64.156,131.003C64.106,131.275 64.082,131.548 63.983,131.844C64.205,131.275 64.502,130.929 64.75,130.212C64.799,130.014 64.923,129.618 64.997,129.123L64.997,129.098L64.997,129.074L64.997,129.024C65.022,128.802 65.022,128.628 65.022,128.505C65.022,128.381 65.022,128.282 64.997,128.233C64.948,127.837 64.873,127.54 64.75,127.293C64.601,126.996 64.453,126.773 64.329,126.501Z" style="fill:white;fill-opacity:0.1;fill-rule:nonzero;"/>
    <path d="M53.344,141.715C53.196,142.309 53.023,142.704 52.776,143.397C52.726,143.521 52.677,143.719 52.553,144.114C52.231,145.129 51.44,147.553 51.44,147.553C51.44,147.553 50.747,149.582 50.376,150.695C50.203,151.239 50.079,151.561 50.03,151.734C49.782,152.426 49.708,152.847 49.461,153.416C49.708,152.847 49.955,152.501 50.277,151.833C50.351,151.659 50.5,151.338 50.722,150.818C50.97,150.274 51.267,149.507 51.489,148.864C51.737,148.221 51.885,147.701 51.885,147.701C51.885,147.701 52.083,147.083 52.306,146.341C52.528,145.599 52.751,144.708 52.875,144.189C52.973,143.768 52.998,143.57 53.023,143.447C53.171,142.729 53.196,142.309 53.344,141.715Z" style="fill:white;fill-opacity:0.1;fill-rule:nonzero;"/>
    <path d="M19.949,148.642C20.048,149.26 20.048,149.681 20.196,150.423C20.221,150.546 20.27,150.744 20.369,151.165C20.468,151.561 20.641,152.229 20.839,152.773C20.938,153.045 21.037,153.292 21.111,153.49C21.186,153.663 21.235,153.787 21.235,153.787C21.235,153.787 21.285,153.886 21.334,154.034C21.408,154.183 21.483,154.406 21.606,154.628C21.829,155.098 22.126,155.642 22.348,156.038C22.497,156.286 22.62,156.484 22.719,156.632C22.818,156.78 22.892,156.904 22.942,156.978C23.363,157.597 23.684,157.894 24.031,158.388C23.684,157.869 23.536,157.473 23.189,156.83C23.14,156.756 23.09,156.632 23.016,156.459C22.942,156.286 22.818,156.088 22.719,155.84C22.522,155.445 22.249,154.876 22.052,154.43C21.953,154.208 21.854,153.985 21.804,153.837C21.73,153.688 21.705,153.589 21.705,153.589C21.705,153.589 21.656,153.49 21.581,153.292C21.507,153.119 21.408,152.872 21.309,152.6C21.111,152.055 20.889,151.437 20.74,151.041C20.617,150.645 20.542,150.447 20.518,150.324C20.246,149.631 20.072,149.235 19.949,148.642Z" style="fill:white;fill-opacity:0.1;fill-rule:nonzero;"/>
    <path d="M43.103,169.893C43.078,169.967 43.054,170.016 43.004,170.09C42.979,170.165 42.93,170.239 42.905,170.313C42.905,170.363 42.88,170.462 42.88,170.61C42.88,170.734 42.905,170.907 42.955,171.031C43.004,171.179 43.078,171.303 43.128,171.377C43.177,171.451 43.227,171.525 43.227,171.525C43.227,171.525 43.276,171.575 43.35,171.649C43.425,171.723 43.524,171.822 43.647,171.896C43.771,171.971 43.919,172.045 44.043,172.07C44.167,172.119 44.291,172.119 44.34,172.119C44.439,172.119 44.513,172.094 44.587,172.094C44.662,172.07 44.711,172.045 44.785,172.045C44.711,172.045 44.637,172.02 44.587,171.995C44.488,171.946 44.439,171.896 44.389,171.872C44.34,171.847 44.266,171.797 44.192,171.748C44.142,171.723 44.093,171.698 44.043,171.649C43.994,171.624 43.944,171.575 43.919,171.525C43.821,171.451 43.746,171.377 43.697,171.303C43.647,171.228 43.598,171.204 43.598,171.204C43.598,171.204 43.573,171.154 43.524,171.105C43.474,171.031 43.425,170.956 43.35,170.833C43.326,170.783 43.301,170.734 43.276,170.684C43.252,170.635 43.227,170.585 43.202,170.536C43.153,170.437 43.153,170.338 43.128,170.313C43.103,170.264 43.103,170.214 43.054,170.09C43.103,170.041 43.078,169.967 43.103,169.893Z" style="fill:white;fill-opacity:0.1;fill-rule:nonzero;"/>
    <path d="M25.662,175.237C25.737,175.286 25.761,175.361 25.836,175.435C25.86,175.46 25.91,175.484 25.984,175.509C26.058,175.534 26.132,175.559 26.207,175.559C26.38,175.583 26.528,175.534 26.528,175.534C26.528,175.534 26.677,175.509 26.825,175.41C26.899,175.361 26.949,175.311 26.998,175.237C27.048,175.187 27.072,175.113 27.072,175.089C27.122,174.99 27.097,174.891 27.122,174.816C27.072,174.866 26.974,174.866 26.899,174.891C26.875,174.891 26.825,174.915 26.776,174.94C26.726,174.965 26.652,174.965 26.602,174.99C26.504,175.014 26.405,175.039 26.405,175.039C26.405,175.039 26.306,175.064 26.207,175.089C26.157,175.113 26.083,175.113 26.034,175.138C25.984,175.138 25.935,175.163 25.91,175.163C25.811,175.212 25.737,175.262 25.662,175.237Z" style="fill:white;fill-opacity:0.1;fill-rule:nonzero;"/>
    <path d="M47.012,188.073C46.938,188.692 46.814,189.088 46.666,189.83C46.641,189.953 46.591,190.151 46.517,190.572C46.22,192.081 45.552,195.618 45.552,195.618C45.552,195.618 44.959,198.587 44.637,200.22C44.538,200.764 44.464,201.11 44.414,201.308C44.266,202.025 44.241,202.471 44.068,203.064C44.241,202.471 44.414,202.075 44.612,201.358C44.662,201.184 44.761,200.838 44.934,200.294C45.157,199.477 45.453,198.339 45.651,197.399C45.874,196.459 45.998,195.717 45.998,195.717C45.998,195.717 46.171,194.827 46.344,193.738C46.517,192.65 46.69,191.363 46.765,190.621C46.814,190.201 46.814,190.003 46.839,189.879C46.963,189.112 46.938,188.692 47.012,188.073Z" style="fill:white;fill-opacity:0.1;fill-rule:nonzero;"/>
    <path d="M21.78,188.372C21.928,188.966 21.928,189.411 22.077,190.128C22.101,190.252 22.126,190.45 22.225,190.871C22.349,191.464 22.547,192.479 22.744,193.32C22.942,194.161 23.116,194.878 23.116,194.878C23.116,194.878 23.264,195.472 23.437,196.214C23.635,196.956 23.858,197.871 24.056,198.515C24.204,199.059 24.303,199.405 24.352,199.578C24.575,200.296 24.748,200.692 24.897,201.285C24.748,200.692 24.748,200.246 24.6,199.529C24.575,199.356 24.501,199.009 24.402,198.44C24.278,197.797 24.08,196.882 23.907,196.115C23.734,195.373 23.586,194.779 23.586,194.779C23.586,194.779 23.412,194.087 23.215,193.245C22.992,192.404 22.72,191.415 22.571,190.846C22.448,190.45 22.398,190.252 22.349,190.128C22.101,189.362 21.928,188.991 21.78,188.372Z" style="fill:white;fill-opacity:0.1;fill-rule:nonzero;"/>
    <path d="M55.497,107.501C55.374,106.882 55.299,106.264 55.176,105.646C54.755,106.586 54.335,107.526 53.914,108.441C53.865,108.565 53.79,108.688 53.79,108.837C53.766,109.703 55.497,109.703 55.497,110.568C55.497,110.816 55.324,111.038 55.225,111.261C54.681,112.374 55.596,113.586 55.992,114.774C56.561,116.456 56.091,118.212 56.091,119.944C56.066,121.354 56.066,122.764 56.042,124.174C56.289,124.026 56.512,123.853 56.685,123.655C56.932,123.383 56.907,123.036 56.982,122.69C57.056,122.294 57.056,121.874 57.081,121.453C57.13,120.587 57.155,119.746 57.155,118.88C57.155,117.173 57.081,115.466 56.833,113.784C56.462,111.657 55.943,109.604 55.497,107.501Z" style="fill-opacity:0.28;fill-rule:nonzero;"/>
    <path d="M54.532,102.085C53.271,102.53 52.256,102.852 50.945,103.173C49.065,103.643 47.16,104.163 45.255,104.386C44.39,104.485 43.524,104.806 42.633,104.905C41.743,105.004 40.852,105.054 39.962,105.128C36.721,105.425 33.356,105.425 30.091,105.425C26.727,105.425 23.362,105.276 20.047,104.88C18.341,104.658 16.683,104.262 14.976,104.064C14.58,104.015 14.209,103.99 13.813,104.039C13.517,104.064 13.294,104.138 13.022,103.99C12.676,105.697 12.577,107.552 12.354,109.308C12.131,111.04 11.933,112.796 11.859,114.528C11.736,117.027 11.711,119.525 11.859,122.048C11.909,122.84 12.206,123.285 12.849,123.731C13.665,124.324 14.259,125.141 14.902,125.908C15.347,126.427 16.312,127.021 16.51,127.713C16.634,128.134 16.485,128.876 16.46,129.346C16.436,129.89 16.386,130.484 15.99,130.88C15.793,131.078 15.496,131.078 15.224,131.152C14.457,131.375 14.135,132.265 13.937,133.007C13.789,133.527 13.665,134.022 13.517,134.541C13.467,134.714 13.418,134.912 13.467,135.085C13.616,135.58 15.298,135.803 15.743,135.926C16.51,136.124 17.277,136.298 18.068,136.421C17.549,136.322 17.994,128.678 17.994,128.035C18.019,126.254 18.192,124.448 18.118,122.667C18.068,121.653 17.871,121.158 18.489,120.292C18.687,119.995 21.754,117.348 21.73,117.324C23.56,119.228 25.96,121.084 27.37,123.31C29.621,126.823 28.236,131.573 28.236,135.506C28.236,135.852 28.236,136.223 28.162,136.545C28.508,136.495 28.854,136.471 29.201,136.397C30.512,136.199 32.664,136.298 33.455,134.986C33.777,134.442 33.901,133.725 33.925,133.032C33.975,133.7 34.074,134.343 34.346,134.937C34.42,135.085 34.494,135.209 34.618,135.308C34.742,135.407 34.915,135.432 35.063,135.456C36.201,135.654 37.364,135.803 38.527,135.926C37.982,134.813 37.785,133.527 37.611,132.29C37.29,130.088 36.795,127.887 36.993,125.635C37.339,121.875 39.59,118.412 39.417,114.627C38.65,117.744 37.414,120.737 35.756,123.483C34.346,125.809 31.773,121.059 31.278,120.02C30.165,117.769 29.572,115.221 28.978,112.871C28.904,112.574 28.829,112.277 28.879,111.98C29.349,109.729 33.95,109.284 35.682,108.814C37.067,108.418 38.205,108.393 39.59,108.269C42.955,107.973 46.591,106.29 49.758,105.177C45.305,105.87 40.778,106.191 36.276,106.191C42.411,105.128 48.521,104.064 54.656,102.976C54.532,102.456 54.483,102.085 54.532,102.085Z" style="fill-opacity:0.28;fill-rule:nonzero;"/>
</svg>
