<svg id="Layer_1" enable-background="new 0 0 512 512" height="512" viewBox="0 0 512 512" width="512" xmlns="http://www.w3.org/2000/svg"><g><g><g><path d="m353.046 144.408v142.329h-129.46c-2.096-3.849-5.328-6.99-9.247-8.975l-52.939-34.345c-6.067-3.869-14.159-1.981-17.87 4.244-3.587 6.016-1.338 13.851 4.568 17.616l27.784 17.714v.068h-71.505c-5.786 0-10.831 4.458-11.005 10.242-.179 5.984 4.618 10.891 10.562 10.891h-11.925c-5.786 0-10.831 4.458-11.005 10.241-.18 5.984 4.618 10.891 10.562 10.891h12.368c-5.943 0-10.741 4.907-10.562 10.891.173 5.783 5.219 10.242 11.004 10.242h14.84c-5.944 0-10.741 4.907-10.562 10.891.174 5.783 5.219 10.241 11.005 10.241h56.223 28.721c8.145 0 15.231-4.513 18.91-11.171v.007h182.337c13.89 0 25.15-11.26 25.15-25.15v-44.541-142.326z" fill="#ffcca6"/><path d="m353.046 185.212v101.525h-103.846v69.691h156.65c13.89 0 25.15-11.26 25.15-25.15v-44.541-101.525z" fill="#55baff"/><g><path d="m374.447 356.421-.004.007h.004z" fill="#57d7ff"/></g><path d="m360.823 286.737h-7.802v-101.525h23.802v85.525c0 8.837-7.163 16-16 16z" fill="#8acfff"/><path d="m407.309 185.212v101.525 44.541c0 13.89-11.26 25.15-25.15 25.15h23.691c13.89 0 25.15-11.26 25.15-25.15v-44.541-101.525z" fill="#14a0ef"/><path d="m353.046 144.408h23.777v40.805h-23.777z" fill="#ffe5cc"/><path d="m407.223 144.408h23.777v40.805h-23.777z" fill="#f4ad7d"/></g></g><path d="m431 140.408h-77.954c-2.209 0-4 1.791-4 4v138.329h-123.214c-2.399-3.562-5.64-6.452-9.487-8.443l-52.794-34.25c-3.861-2.463-8.445-3.237-12.901-2.18-4.457 1.056-8.205 3.808-10.555 7.749-4.599 7.713-1.974 18.047 5.853 23.038l16.328 10.41h-57.898c-8.039 0-14.77 6.335-15.003 14.122-.074 2.491.47 4.897 1.567 7.048-7.559.531-13.711 6.645-13.935 14.084-.119 3.977 1.339 7.738 4.105 10.589 2.619 2.699 6.085 4.25 9.816 4.409-1.089 2.145-1.629 4.542-1.555 7.024.234 7.787 6.964 14.122 15.003 14.122h1.827c-1.084 2.141-1.622 4.534-1.548 7.011.234 7.786 6.964 14.121 15.003 14.121h84.944c8.497 0 16.391-4.222 21.135-11.164h180.113.001c14.566 0 26.671-10.74 28.813-24.717.221-1.446.336-2.926.336-4.433v-186.87c0-2.208-1.791-3.999-4-3.999zm-4 8v32.804h-69.954v-32.804zm-203.239 204.02c-1.503-.092-2.99.686-3.748 2.058-3.104 5.616-9.008 9.105-15.409 9.105h-84.944c-3.758 0-6.901-2.854-7.007-6.361-.054-1.796.604-3.493 1.852-4.778 1.248-1.286 2.922-1.994 4.713-1.994h44.673c2.209 0 4-1.791 4-4s-1.791-4-4-4h-44.673-.001-14.839c-3.758 0-6.901-2.854-7.007-6.361-.054-1.796.604-3.493 1.852-4.778 1.247-1.286 2.921-1.994 4.712-1.994h55.148c2.209 0 4-1.791 4-4s-1.791-4-4-4h-55.148-12.369c-1.791 0-3.465-.708-4.713-1.994-1.247-1.285-1.904-2.982-1.851-4.777.105-3.508 3.249-6.361 7.007-6.361h11.924 55.148c2.209 0 4-1.791 4-4s-1.791-4-4-4h-55.148c-1.791 0-3.465-.708-4.712-1.994-1.248-1.285-1.905-2.982-1.852-4.777.105-3.508 3.249-6.362 7.007-6.362h71.506c2.209 0 4-1.859 4-4.068 0-1.367-.697-2.638-1.85-3.373l-27.785-17.714c-4.216-2.689-5.688-8.159-3.282-12.196 1.231-2.066 3.195-3.508 5.528-4.061 2.336-.554 4.733-.148 6.73 1.124l52.938 34.344c.119.077.242.148.369.212 3.212 1.628 5.82 4.159 7.543 7.321.701 1.286 2.048 2.086 3.513 2.086h21.614v61.691h-21.439zm29.439 0v-61.691h99.846c2.209 0 4-1.791 4-4v-97.525h69.954v142.066c0 .729-.037 1.449-.109 2.159-1.085 10.652-10.108 18.99-21.041 18.99h-152.65z" fill="#402943"/></g></svg>