<svg id="Capa_1" enable-background="new 0 0 511.589 511.589" height="512" viewBox="0 0 511.589 511.589" width="512" xmlns="http://www.w3.org/2000/svg"><path d="m388.247 288.91h19.76c5.533 0 10.019-4.486 10.019-10.019v-29.631c0-5.533-4.486-10.019-10.019-10.019h-19.76z" fill="#fd6930"/><path d="m418.025 262.334v16.56c0 5.53-4.48 10.02-10.02 10.02h-19.76v-16.56h19.76c5.54 0 10.02-4.49 10.02-10.02z" fill="#fd5426"/><path d="m255.795 7.504c-137.13 0-248.29 111.16-248.29 248.29s111.16 248.29 248.29 248.29 248.29-111.16 248.29-248.29-111.16-248.29-248.29-248.29zm95.93 422.75c-28.39 15.65-61.01 24.57-95.71 24.6-109.77.13-199.29-89.29-199.29-199.06.01-30.24 6.75-58.9 18.82-84.57 7.95-16.96 18.24-32.6 30.44-46.52.01-.02.02-.03.04-.05 2.05-2.35 5.74-2.23 7.69.19l239.49 297.84c1.96 2.44 1.26 6.06-1.48 7.57zm53.88-43.37c-.01.02-.02.03-.04.05-2.05 2.35-5.74 2.23-7.69-.19l-239.49-297.84c-1.96-2.44-1.26-6.06 1.48-7.57 28.39-15.65 61.01-24.57 95.71-24.6 109.77-.12 199.29 89.29 199.29 199.06-.01 30.24-6.75 58.9-18.82 84.57-7.95 16.96-18.24 32.6-30.44 46.52z" fill="#fb2b3a"/><path d="m396.145 50.954c53.21 45.53 86.94 113.19 86.94 188.72 0 137.13-111.16 248.29-248.29 248.29-52.08 0-100.43-16.04-140.35-43.45 43.4 37.14 99.76 59.57 161.35 59.57 137.13 0 248.29-111.16 248.29-248.29 0-85.04-42.75-160.1-107.94-204.84z" fill="#e41f2d"/><path d="m170.884 288.91h-67.302c-5.533 0-10.019-4.486-10.019-10.019v-29.631c0-5.533 4.486-10.019 10.019-10.019h67.302z" fill="#e9b665"/><path d="m170.885 272.354v16.56h-67.3c-5.54 0-10.02-4.49-10.02-10.02v-16.56c0 5.53 4.48 10.02 10.02 10.02z" fill="#d8aa5e"/><path d="m170.884 239.241h217.363v49.669h-217.363z" fill="#ebebeb"/><path d="m170.884 272.354h217.361v16.555h-217.361z" fill="#d3d1d1"/><path d="m436.669 74.92c-48.314-48.313-112.549-74.92-180.874-74.92s-132.561 26.607-180.874 74.92-74.921 112.549-74.921 180.874 26.607 132.561 74.92 180.874 112.549 74.92 180.874 74.92c36.61 0 71.963-7.574 105.076-22.511 3.775-1.703 5.456-6.145 3.753-9.92s-6.142-5.457-9.921-3.752c-31.161 14.057-64.438 21.184-98.908 21.184-64.318 0-124.788-25.047-170.268-70.527s-70.526-105.949-70.526-170.268 25.047-124.787 70.527-170.267 105.949-70.527 170.268-70.527 124.787 25.047 170.267 70.527 70.527 105.949 70.527 170.268c0 41.358-10.658 82.148-30.822 117.961-19.556 34.731-47.713 64.362-81.428 85.689-3.5 2.214-4.543 6.847-2.328 10.348 2.214 3.501 6.848 4.544 10.348 2.329 35.806-22.65 65.71-54.119 86.479-91.007 21.427-38.055 32.752-81.39 32.752-125.321-.001-68.325-26.609-132.561-74.921-180.874z"/><path d="m401.684 109.748c-39.075-39.033-90.874-60.519-145.889-60.519h-.229c-34.739.038-69.084 8.868-99.324 25.536-3.244 1.789-5.517 4.901-6.235 8.541-.72 3.648.203 7.401 2.532 10.298l111.077 138.137h-54.324l-89.732-111.592c-2.334-2.904-5.811-4.612-9.538-4.687-3.699-.062-7.222 1.48-9.68 4.298-12.766 14.569-23.394 30.812-31.587 48.271-12.956 27.554-19.525 57.082-19.525 87.762 0 55.096 21.548 106.963 60.675 146.047 39.076 39.034 90.874 60.521 145.89 60.519h.231c34.739-.038 69.083-8.868 99.322-25.536 3.245-1.789 5.519-4.902 6.236-8.542.72-3.648-.203-7.401-2.532-10.297l-97.76-121.576h54.324l76.414 95.03c2.335 2.904 5.811 4.612 9.537 4.687.085.001.169.002.254.002 3.607 0 7.017-1.543 9.391-4.26l.005-.005c.01-.012.021-.023.03-.035 12.766-14.569 23.395-30.812 31.588-48.271 12.955-27.553 19.524-57.081 19.525-87.762 0-55.094-21.548-106.961-60.676-146.046zm-175.889 171.662c-4.142 0-7.5 3.358-7.5 7.5s3.358 7.5 7.5 7.5h16.249l103.472 128.679c-27.395 14.543-58.276 22.236-89.506 22.271h-.214c-51.008 0-99.048-19.929-135.289-56.131-36.291-36.251-56.277-84.35-56.277-135.436 0-28.457 6.089-55.837 18.102-81.384 7.178-15.296 16.372-29.583 27.391-42.558l80.321 99.889h-19.159-67.302c-9.66 0-17.519 7.859-17.519 17.519v29.631c0 9.66 7.859 17.519 17.519 17.519h67.302 20.244c4.142 0 7.5-3.358 7.5-7.5s-3.358-7.5-7.5-7.5h-12.744v-34.669h202.363v34.669h-154.953zm-62.411-34.669v34.669h-59.802c-1.389 0-2.519-1.13-2.519-2.519v-29.631c0-1.389 1.13-2.519 2.519-2.519zm265.875 90.439c-7.188 15.315-16.396 29.62-27.391 42.558l-67.005-83.328h73.144c9.66 0 17.52-7.859 17.52-17.519v-29.631c0-9.66-7.859-17.519-17.52-17.519h-125.145l-116.789-145.241c27.396-14.544 58.279-22.237 89.509-22.271h.212c51.008 0 99.049 19.93 135.289 56.131 36.29 36.251 56.276 84.35 56.276 135.435 0 28.459-6.09 55.839-18.1 81.385zm-33.512-55.77v-34.669h12.261c1.39 0 2.52 1.13 2.52 2.519v29.631c0 1.389-1.13 2.519-2.52 2.519z"/><path d="m382.506 183.07h-60.211c-8.822 0-16-7.178-16-16s7.178-16 16-16h51.5c4.143 0 7.5-3.358 7.5-7.5s-3.357-7.5-7.5-7.5h-51.5c-17.094 0-31 13.907-31 31s13.906 31 31 31h60.211c6.776 0 12.289 5.513 12.289 12.289v6.211c0 4.142 3.357 7.5 7.5 7.5s7.5-3.358 7.5-7.5v-6.211c0-15.047-12.243-27.289-27.289-27.289z"/></svg>