<?xml version="1.0" encoding="iso-8859-1"?>
<!-- Generator: Adobe Illustrator 19.0.0, SVG Export Plug-In . SVG Version: 6.00 Build 0)  -->
<svg version="1.1" id="Capa_1" xmlns="http://www.w3.org/2000/svg" xmlns:xlink="http://www.w3.org/1999/xlink" x="0px" y="0px"
	 viewBox="0 0 512.001 512.001" style="enable-background:new 0 0 512.001 512.001;" xml:space="preserve">
<g>
	<path style="fill:#455256;" d="M103.89,303.113C46.513,303.113,0,349.626,0,407.003s46.513,103.89,103.89,103.89
		s103.89-46.513,103.89-103.89S161.266,303.113,103.89,303.113z M103.89,485.576c-43.395,0-78.573-35.178-78.573-78.573
		s35.179-78.573,78.573-78.573s78.573,35.178,78.573,78.573S147.284,485.576,103.89,485.576z"/>
	<path style="fill:#455256;" d="M408.111,303.113c-57.377,0-103.89,46.513-103.89,103.89s46.513,103.89,103.89,103.89
		s103.89-46.513,103.89-103.89S465.487,303.113,408.111,303.113z M408.111,485.576c-43.395,0-78.573-35.178-78.573-78.573
		s35.179-78.573,78.573-78.573s78.573,35.178,78.573,78.573C486.684,450.398,451.505,485.576,408.111,485.576z"/>
</g>
<path style="fill:#5F6D70;" d="M408.111,493.407c-47.644,0-86.404-38.761-86.404-86.404s38.761-86.404,86.404-86.404
	s86.404,38.761,86.404,86.404C494.515,454.647,455.755,493.407,408.111,493.407z M408.111,336.261
	c-39.008,0-70.742,31.735-70.742,70.742c0,39.008,31.735,70.742,70.742,70.742s70.742-31.735,70.742-70.742
	C478.853,367.995,447.119,336.261,408.111,336.261z"/>
<g>
	<path style="fill:#8D4AD3;" d="M408.119,414.831c-2.839,0-5.578-1.547-6.968-4.244l-92.792-180.03
		c-1.982-3.844-0.472-8.567,3.373-10.549c3.845-1.983,8.567-0.471,10.549,3.373l92.792,180.03c1.982,3.844,0.472,8.567-3.373,10.549
		C410.554,414.551,409.327,414.831,408.119,414.831z"/>
	<path style="fill:#8D4AD3;" d="M265.986,414.83H103.894c-2.867,0-5.505-1.566-6.877-4.085c-1.372-2.518-1.258-5.584,0.298-7.993
		L182.099,271.4c1.442-2.234,3.92-3.585,6.579-3.585h151.963c2.788,0,5.367,1.483,6.768,3.893c1.402,2.41,1.417,5.384,0.04,7.808
		l-74.656,131.352C271.401,413.317,268.803,414.83,265.986,414.83z M118.27,399.168h143.159l65.753-115.69H192.943L118.27,399.168z"
		/>
	
		<rect x="114.977" y="311.406" transform="matrix(-0.495 -0.8689 0.8689 -0.495 45.517 664.9293)" style="fill:#8D4AD3;" width="202.02" height="15.662"/>
</g>
<path style="fill:#455256;" d="M280.368,40.181c0,0-26.641-14.187-48.568,7.74s-44.898,15.662-44.898,15.662
	s19.673,25.65,76.66,15.493l23.068,6.663l27.147-9.745l-22.971-32.716L280.368,40.181z"/>
<path style="fill:#8D4AD3;" d="M291.013,70.642c-18.178,2.391-35.751,10.577-49.722,24.537c0,0-50.599,50.63-51.183,51.277
	c-17.541,19.484-16.936,49.513,1.817,68.265l99.391-28.975l30.995-86.602L291.013,70.642z"/>
<path style="fill:#F9DCA2;" d="M290.978,68.92c0,32.55,26.387,58.936,58.936,58.936S408.85,101.47,408.85,68.92l-53.715-34.572
	L290.978,68.92z"/>
<path style="fill:#E5C691;" d="M319.205,68.92l48.813-26.304l-12.847-8.268L291.014,68.92c0,32.55,26.386,58.936,58.936,58.936
	c4.86,0,9.578-0.6,14.096-1.709C338.305,119.828,319.205,96.609,319.205,68.92z"/>
<path style="fill:#713BB7;" d="M215.168,146.456c0.585-0.647,51.183-51.277,51.183-51.277c7.369-7.364,15.748-13.104,24.681-17.251
	l-0.019-7.286c-18.178,2.391-35.751,10.577-49.722,24.537c0,0-50.599,50.63-51.183,51.277
	c-17.541,19.484-16.936,49.513,1.817,68.265l20.057-5.847C198.295,190.157,199.353,164.022,215.168,146.456z"/>
<path style="fill:#F9DCA2;" d="M311.426,128.248l-1.315,57.498l63.066,25.965c13.578,5.591,20.442,21.414,14.595,34.883
	c-5.669,13.057-20.776,19.224-33.996,13.779l-80.275-33.052c-1.601-0.659-3.112-1.465-4.517-2.398
	c-7.405-4.916-11.923-13.36-11.693-22.479l1.767-75.514c0.363-14.461,12.381-25.889,26.843-25.526l0,0
	C300.362,101.77,311.79,113.786,311.426,128.248z"/>
<path style="fill:#E5C691;" d="M377.791,257.242l-80.275-33.052c-1.601-0.659-3.112-1.465-4.517-2.398
	c-7.405-4.916-11.923-13.36-11.693-22.478l1.767-75.514c0.217-8.641,4.598-16.198,11.173-20.804
	c-2.61-0.955-5.414-1.515-8.347-1.588l0,0c-14.461-0.363-26.478,11.065-26.843,25.526l-1.767,75.514
	c-0.23,9.118,4.288,17.562,11.693,22.478c1.405,0.933,2.916,1.74,4.517,2.398l80.275,33.052c8.564,3.527,17.918,2.176,24.987-2.76
	C378.439,257.496,378.114,257.376,377.791,257.242z"/>
<path style="fill:#F9DCA2;" d="M285.114,241.462c5.753,5.753,8.123,14.075,6.254,22l-23.493,99.84
	c-2.934,12.467-15.161,20.778-27.711,18.199c-4.688-0.961-8.75-3.258-11.893-6.39c-5.565-5.555-8.196-13.783-6.265-22.01
	l20.632-87.665l-50.714-50.714c-18.753-18.753-19.358-48.782-1.817-68.265L285.114,241.462z"/>
<path style="fill:#E5C691;" d="M243.933,375.111c-5.565-5.555-8.196-13.783-6.265-22.01l20.632-87.665l-50.714-50.714
	c-16.014-16.014-18.783-40.246-8.33-59.117l-9.149-9.149c-17.541,19.484-16.936,49.513,1.817,68.265l50.714,50.714l-20.632,87.665
	c-1.932,8.228,0.7,16.456,6.265,22.01c3.143,3.132,7.204,5.43,11.893,6.39c4.299,0.883,8.56,0.488,12.422-0.914
	C249.256,379.392,246.327,377.496,243.933,375.111z"/>
<path style="fill:#EFBC4B;" d="M285.114,241.462l-32.462,18.325l-10.013,5.649l-50.714-50.714
	c-18.753-18.753-19.358-48.782-1.817-68.265L285.114,241.462z"/>
<path style="fill:#C49433;" d="M252.652,259.787l-10.013,5.649l-50.714-50.714c-18.753-18.753-19.358-48.782-1.817-68.265
	l9.147,9.147c-10.452,18.878-7.685,43.102,8.332,59.119L252.652,259.787z"/>
<path style="fill:#455256;" d="M201.809,239.295h-59.707c-4.325,0-7.831-3.506-7.831-7.831c0-4.325,3.506-7.831,7.831-7.831h59.707
	c4.325,0,7.831,3.506,7.831,7.831C209.64,235.789,206.134,239.295,201.809,239.295z"/>
<path style="fill:#8D4AD3;" d="M408.259,243.696h-43.854c-4.325,0-7.831-3.506-7.831-7.831c0-4.325,3.506-7.831,7.831-7.831h43.854
	c4.325,0,7.831,3.506,7.831,7.831C416.09,240.19,412.584,243.696,408.259,243.696z"/>
<path style="fill:#2D373A;" d="M375.891,91.253c-4.325,0-7.831-3.506-7.831-7.831V68.92c0-4.325,3.506-7.831,7.831-7.831
	s7.831,3.506,7.831,7.831v14.502C383.722,87.747,380.216,91.253,375.891,91.253z"/>
<path style="fill:#8D4AD3;" d="M335.17,133.573c-4.325,0-7.831-3.506-7.831-7.831V68.92c0-4.325,3.506-7.831,7.831-7.831
	s7.831,3.506,7.831,7.831v56.822C343.001,130.067,339.495,133.573,335.17,133.573z"/>
<path style="fill:#EFBC4B;" d="M281.929,68.92h122.253c12.512,0,21.274-12.402,17.039-24.176
	c-7.005-19.478-25.023-43.636-71.308-43.636c-35.715,0-62.98,29.204-77.505,49.282C266.822,58.113,272.398,68.92,281.929,68.92z"/>
<path style="fill:#C49433;" d="M310.676,50.39c10.783-17.848,29.978-42.892,55.057-48.237c-4.868-0.677-10.127-1.045-15.818-1.045
	c-35.715,0-62.98,29.204-77.505,49.282c-5.587,7.723-0.011,18.53,9.52,18.53h36.695C310.665,68.92,306.009,58.113,310.676,50.39z"/>
<g>
</g>
<g>
</g>
<g>
</g>
<g>
</g>
<g>
</g>
<g>
</g>
<g>
</g>
<g>
</g>
<g>
</g>
<g>
</g>
<g>
</g>
<g>
</g>
<g>
</g>
<g>
</g>
<g>
</g>
</svg>
