<svg id="Capa_1" enable-background="new 0 0 512.003 512.003" height="512" viewBox="0 0 512.003 512.003" width="512" xmlns="http://www.w3.org/2000/svg"><g><path d="m351.461 211 99.254-99.254c11.716-11.716 11.716-30.71 0-42.426l-53.033-53.033c-11.716-11.715-30.711-11.715-42.427 0l-99.254 99.254-99.254-99.253c-11.715-11.716-30.71-11.716-42.426 0l-53.033 53.032c-11.715 11.716-11.715 30.71 0 42.426l99.254 99.254-99.254 99.254c-11.716 11.715-11.716 30.71 0 42.426l53.033 53.033c11.716 11.715 30.711 11.715 42.427 0l99.254-99.254 99.254 99.253c11.716 11.716 30.71 11.716 42.426 0l53.033-53.033c11.715-11.716 11.715-30.71 0-42.426z" fill="#fffbdb"/><path d="m309.033 211 120.468-120.467-21.213-21.213h-30l-141.681 141.68 141.681 141.68h30l21.213-21.213z" fill="#e85241"/><path d="m408.288 69.32-31.82-31.82-120.467 120.467-120.467-120.467-53.033 53.033 120.468 120.467-120.468 120.467 53.004 53.031c.029.003 120.496-120.464 120.496-120.464l120.467 120.466 31.82-31.819-131.075-131.074c-5.858-5.858-5.858-15.355 0-21.213z" fill="#fc6749"/><path d="m480.286 437h-16.982c-4.143 0-7.5 3.358-7.5 7.5v59.962c0 4.123 3.327 7.472 7.45 7.5.341.002 5.754.038 10.811.038 2.637 0 5.178-.01 6.85-.039 18.013-.315 31.087-16.078 31.087-37.48-.001-22.418-12.746-37.481-31.716-37.481zm.367 59.963c-2.241.039-6.251.04-9.849.032v-44.995h9.482c12.324 0 16.715 11.613 16.715 22.481 0 10.69-5.116 22.286-16.348 22.482z"/><path d="m438.509 452c4.143 0 7.5-3.358 7.5-7.5s-3.357-7.5-7.5-7.5h-25.281c-4.143 0-7.5 3.358-7.5 7.5v60c0 4.142 3.357 7.5 7.5 7.5h25.281c4.143 0 7.5-3.358 7.5-7.5s-3.357-7.5-7.5-7.5h-17.781v-15h15.917c4.143 0 7.5-3.358 7.5-7.5s-3.357-7.5-7.5-7.5h-15.917v-15z"/><path d="m61.216 490.281c-3.175-2.661-7.905-2.242-10.565.934-.519.62-1.082 1.201-1.673 1.728-3.024 2.692-6.885 4.057-11.477 4.057-12.406 0-22.5-10.093-22.5-22.5s10.094-22.5 22.5-22.5c4.51 0 8.858 1.327 12.575 3.838 3.433 2.319 8.095 1.417 10.413-2.016 2.318-3.432 1.416-8.095-2.017-10.414-6.204-4.192-13.457-6.408-20.971-6.408-20.678 0-37.5 16.822-37.5 37.5s16.822 37.5 37.5 37.5c8.264 0 15.683-2.717 21.452-7.856 1.135-1.01 2.21-2.12 3.197-3.297 2.66-3.176 2.242-7.906-.934-10.566z"/><path d="m261.355 490.281c-3.175-2.661-7.905-2.242-10.565.934-.519.62-1.082 1.201-1.673 1.728-3.023 2.692-6.885 4.058-11.477 4.058-12.406 0-22.5-10.093-22.5-22.5s10.094-22.5 22.5-22.5c4.51 0 8.858 1.327 12.575 3.838 3.432 2.319 8.094 1.417 10.413-2.016 2.318-3.432 1.416-8.095-2.017-10.414-6.205-4.192-13.458-6.409-20.972-6.409-20.678 0-37.5 16.822-37.5 37.5s16.822 37.5 37.5 37.5c8.264 0 15.683-2.717 21.452-7.856 1.135-1.01 2.21-2.12 3.197-3.297 2.661-3.176 2.243-7.906-.933-10.566z"/><path d="m184.879 437c-4.143 0-7.5 3.358-7.5 7.5v35.941l-27.765-40.203c-1.865-2.701-5.266-3.874-8.403-2.898-3.133.977-5.268 3.878-5.268 7.16v60c0 4.142 3.357 7.5 7.5 7.5s7.5-3.358 7.5-7.5v-35.941l27.765 40.203c1.427 2.066 3.754 3.239 6.172 3.239.743 0 1.494-.111 2.231-.34 3.133-.977 5.268-3.878 5.268-7.16v-60c0-4.143-3.357-7.501-7.5-7.501z"/><path d="m306.207 452c4.143 0 7.5-3.358 7.5-7.5s-3.357-7.5-7.5-7.5h-25.281c-4.143 0-7.5 3.358-7.5 7.5v60c0 4.142 3.357 7.5 7.5 7.5h25.281c4.143 0 7.5-3.358 7.5-7.5s-3.357-7.5-7.5-7.5h-17.781v-15h15.917c4.143 0 7.5-3.358 7.5-7.5s-3.357-7.5-7.5-7.5h-15.917v-15z"/><path d="m352.235 497h-13.527v-52.5c0-4.142-3.357-7.5-7.5-7.5s-7.5 3.358-7.5 7.5v60c0 4.142 3.357 7.5 7.5 7.5h21.027c4.143 0 7.5-3.358 7.5-7.5s-3.358-7.5-7.5-7.5z"/><path d="m393.245 497h-13.528v-52.5c0-4.142-3.357-7.5-7.5-7.5s-7.5 3.358-7.5 7.5v60c0 4.142 3.357 7.5 7.5 7.5h21.028c4.143 0 7.5-3.358 7.5-7.5s-3.357-7.5-7.5-7.5z"/><path d="m106.136 442.694c-.025-.069-.053-.138-.081-.207-1.373-3.334-4.588-5.487-8.204-5.487-3.61.004-6.825 2.167-8.19 5.508-.023.056-.045.112-.066.168l-22.53 59.155c-1.475 3.871.469 8.204 4.339 9.678 3.87 1.476 8.204-.468 9.679-4.339l3.771-9.902h25.845l3.729 9.881c1.133 3.003 3.987 4.854 7.018 4.854.88 0 1.775-.156 2.647-.485 3.875-1.462 5.831-5.79 4.368-9.665zm-15.57 39.573 7.269-19.085 7.202 19.085z"/><path d="m467.001 331.467c0-10.017-3.901-19.434-10.983-26.517l-93.951-93.95 93.951-93.951c7.082-7.083 10.983-16.5 10.983-26.517 0-10.016-3.901-19.434-10.983-26.516l-53.033-53.033c-7.083-7.082-16.5-10.983-26.517-10.983s-19.434 3.901-26.517 10.983l-93.95 93.951-93.95-93.95c-7.083-7.083-16.5-10.984-26.517-10.984s-19.434 3.901-26.517 10.984l-53.032 53.033c-7.082 7.083-10.983 16.5-10.983 26.516 0 10.017 3.901 19.434 10.983 26.517l39.021 39.021c2.929 2.928 7.677 2.93 10.607 0 2.929-2.929 2.929-7.678 0-10.606l-39.021-39.021c-8.773-8.773-8.773-23.047 0-31.82l53.033-53.033c4.249-4.25 9.899-6.59 15.909-6.59s11.66 2.34 15.909 6.59l99.254 99.253c2.93 2.929 7.678 2.929 10.607 0l99.253-99.254c4.25-4.25 9.9-6.59 15.91-6.59 6.011 0 11.66 2.34 15.909 6.59l53.033 53.033c8.773 8.773 8.773 23.047 0 31.82l-99.254 99.254c-2.929 2.929-2.929 7.678 0 10.606l99.254 99.254c8.773 8.773 8.773 23.047 0 31.82l-53.033 53.033c-4.249 4.25-9.899 6.59-15.909 6.59s-11.66-2.341-15.909-6.59l-99.254-99.253c-2.93-2.929-7.678-2.929-10.607 0l-99.253 99.254c-4.25 4.25-9.9 6.59-15.91 6.59-6.011 0-11.66-2.34-15.909-6.59l-53.033-53.033c-4.25-4.25-6.591-9.9-6.591-15.91s2.341-11.66 6.591-15.91l99.254-99.254c2.929-2.929 2.929-7.678 0-10.606l-39.021-39.021c-2.93-2.929-7.678-2.929-10.607 0s-2.929 7.678 0 10.606l33.718 33.717-93.95 93.951c-7.083 7.083-10.984 16.5-10.984 26.516s3.901 19.434 10.983 26.517l53.033 53.033c7.083 7.083 16.5 10.983 26.517 10.983s19.434-3.901 26.517-10.983l93.95-93.951 93.95 93.95c7.083 7.083 16.5 10.984 26.517 10.984s19.434-3.901 26.517-10.984l53.033-53.033c7.081-7.082 10.982-16.5 10.982-26.516z"/><path d="m77.198 326.164c-2.928 2.928-2.929 7.676-.001 10.605l53.004 53.031c1.225 1.225 2.835 1.989 4.559 2.161.303.03.593.045.871.045 2.973 0 4.634-1.658 6.531-3.552l113.84-113.814 115.163 115.163c2.929 2.929 7.677 2.929 10.607 0l53.033-53.032c1.406-1.406 2.196-3.314 2.196-5.303s-.79-3.897-2.196-5.303l-115.165-115.165 115.165-115.164c2.929-2.929 2.929-7.678 0-10.606l-53.033-53.034c-1.407-1.406-3.315-2.196-5.304-2.196s-3.896.79-5.304 2.197l-115.163 115.163-115.163-115.163c-2.929-2.929-7.677-2.929-10.607 0l-53.033 53.032c-1.406 1.406-2.196 3.314-2.196 5.303s.79 3.897 2.196 5.303l115.165 115.165zm15.91-235.631 42.427-42.426 115.163 115.163c2.929 2.928 7.677 2.929 10.607 0l115.163-115.164 42.427 42.427-115.165 115.164c-1.406 1.406-2.196 3.314-2.196 5.303s.79 3.897 2.196 5.303l115.165 115.164-42.427 42.426-115.163-115.163c-1.407-1.407-3.314-2.197-5.304-2.197s-3.896.79-5.304 2.197c-1.043 1.043-92.117 92.118-115.186 115.165l-42.405-42.427 115.166-115.165c1.406-1.406 2.196-3.314 2.196-5.303s-.79-3.897-2.196-5.303z"/></g></svg>