<svg id="Capa_1" enable-background="new 0 0 512 512" height="512" viewBox="0 0 512 512" width="512" xmlns="http://www.w3.org/2000/svg"><g><g fill="#62dbfb"><path d="m12.862 361.417c16.761-1.723 31.149-11.437 39.303-25.267 2.243-3.804 7.829-3.804 10.072 0 7.091 12.027 18.897 20.937 32.878 24.19l67.826-67.826c.17-.17.323-.348.463-.531-.617-.91-1.207-1.84-1.767-2.789-2.243-3.805-7.829-3.805-10.072 0-9.011 15.284-25.636 25.541-44.664 25.541s-35.653-10.257-44.664-25.541c-2.243-3.805-7.829-3.805-10.072 0-8.154 13.83-22.542 23.544-39.303 25.267-3.034.312-5.362 2.823-5.362 5.874v46.956c0-3.051 2.328-5.562 5.362-5.874z"/><path d="m499.138 314.461c-16.761-1.723-31.149-11.437-39.302-25.267-2.243-3.805-7.829-3.805-10.072 0-9.011 15.284-25.636 25.541-44.664 25.541-13.58 0-25.933-5.226-35.171-13.774-9.307 3.009-19.406 2.881-28.641-.401-4.922 4.655-10.749 8.363-17.198 10.813l21.765 21.765c1.362 1.362 2.598 2.803 3.722 4.3l.788-1.288c2.243-3.804 7.829-3.804 10.072 0 9.011 15.284 25.636 25.541 44.664 25.541s35.653-10.257 44.664-25.541c2.243-3.804 7.829-3.804 10.072 0 8.154 13.83 22.542 23.544 39.302 25.267 3.034.312 5.362 2.823 5.362 5.874v-46.956c-.001-3.051-2.329-5.562-5.363-5.874z"/></g><path d="m12.862 361.417c10.225-1.051 19.556-5.088 27.138-11.207v-21.216c0-3.05 2.328-5.562 5.362-5.874 13.114-1.348 24.759-7.603 33.118-16.878-6.631-4.36-12.204-10.197-16.244-17.049-2.243-3.805-7.829-3.805-10.072 0-8.154 13.83-22.542 23.544-39.303 25.267-3.034.312-5.362 2.823-5.362 5.874v46.956c.001-3.05 2.329-5.561 5.363-5.873z" fill="#01d0fb"/><g><g fill="#fed2a4"><path d="m299.616 207.479c.818-.971 1.673-1.921 2.587-2.836l13.078-13.078c-6.01-10.61-6.418-22.495-.537-30.463-8.066-2.907-17.435-1.154-23.899 5.31-8.918 8.918-8.918 23.377 0 32.295z"/><path d="m401.067 276.703-13.402 13.402c-.914.914-1.865 1.769-2.836 2.588l8.771 8.771c8.918 8.918 23.377 8.918 32.295 0 6.862-6.861 8.421-16.995 4.724-25.37-7.62 6.008-19.085 5.996-29.552.609z"/></g><path d="m320.944 308.226c-1.953-1.953-1.953-5.118 0-7.071l7.647-7.647c-1.323-1.052-2.606-2.179-3.83-3.403l-22.557-22.557c-1.224-1.224-2.352-2.507-3.403-3.83l-7.647 7.647c-1.953 1.953-5.118 1.953-7.071 0l-24.912-24.912c-10.794-10.794-26.241-14.087-39.882-9.896l-67.533-18.492 22.348-85.281c1.98-7.558 7.778-13.525 15.275-15.723l11.516-3.376c7.74 0 13.975-6.445 13.631-14.262-.316-7.179-6.873-13.028-14.059-13.028h-6.22v-19.528c0-11.599-9.403-21.002-21.002-21.002h-22.585c-11.599 0-21.002 9.403-21.002 21.002l2.144 39.261c.126 2.308-.108 4.622-.694 6.858l-33.115 126.37c-3.474 13.258 4.493 26.958 17.796 30.6l45.122 14.254c3.577 1.13 4.682 5.651 2.029 8.303l-67.826 67.827c3.786.881 7.731 1.351 11.786 1.351 19.028 0 35.653-10.257 44.664-25.541 2.243-3.804 7.829-3.804 10.072 0 9.011 15.284 25.636 25.541 44.664 25.541s35.653-10.257 44.664-25.541c2.243-3.804 7.828-3.804 10.072 0 9.011 15.284 25.636 25.541 44.664 25.541 18.488 0 34.705-9.684 43.877-24.253-1.124-1.498-2.359-2.938-3.722-4.3z" fill="#fed2a4"/><g><g><path d="m115.789 269.956 5.287 1.67c-2.15-4.963-2.727-10.633-1.261-16.227l36.417-142.413c.586-2.236.82-4.55.694-6.858l-2.144-39.261c0-11.17 8.728-20.278 19.732-20.938-.422-.025-.841-.064-1.27-.064h-22.584c-11.599 0-21.002 9.403-21.002 21.002l2.144 39.261c.126 2.308-.108 4.622-.694 6.858l-33.115 126.37c-3.474 13.258 4.493 26.958 17.796 30.6z" fill="#ffbd86"/></g></g><g><path d="m390.475 268.924c-9.028-9.028-13.035-20.723-11.395-30.405-.001.007-.003.013-.004.02l-26.395-26.395c.004-.001.008-.002.011-.002-9.68 1.637-21.372-2.371-30.397-11.396-2.844-2.844-5.187-5.952-7.015-9.179l-13.078 13.078c-17.37 17.37-17.37 45.534 0 62.904l22.557 22.557c17.371 17.37 45.533 17.37 62.904 0l13.402-13.402c-3.729-1.922-7.333-4.524-10.59-7.78z" fill="#fed2a4"/></g><g><path d="m328.028 267.548c-17.189-17.189-17.357-44.94-.527-62.35-1.805-1.313-3.55-2.798-5.204-4.453-2.844-2.844-5.187-5.952-7.015-9.179l-13.078 13.078c-17.37 17.37-17.37 45.534 0 62.904l22.557 22.557c12.008 12.008 29.172 15.71 44.364 11.116-6.785-2.052-13.177-5.753-18.54-11.116z" fill="#ffbd86"/></g><path d="m384.855 227.026c3.321-3.321 7.606-5.257 12.325-5.893l-27.093-27.092c-.636 4.719-2.571 9.004-5.893 12.325-3.13 3.13-7.114 5.037-11.513 5.778l26.395 26.395c.742-4.399 2.649-8.383 5.779-11.513z" fill="#01d0fb"/><path d="m450.777 141.532c-30.024-30.024-78.702-30.024-108.726 0l-11.237 11.237c9.109-.578 19.541 3.479 27.761 11.699 8.771 8.771 12.795 20.059 11.513 29.573l27.093 27.092c9.514-1.283 20.802 2.741 29.573 11.513 8.771 8.771 12.796 20.059 11.513 29.573l.275.275 12.236-12.236c30.023-30.024 30.023-78.702-.001-108.726z" fill="#fb2b3a"/><path d="m357.663 129.481c-5.575 3.258-10.832 7.27-15.613 12.05l-11.237 11.237c9.109-.578 19.541 3.479 27.761 11.699 8.771 8.771 12.795 20.059 11.513 29.573l27.093 27.092c9.514-1.283 20.802 2.741 29.573 11.513 8.771 8.771 12.795 20.059 11.513 29.573l.275.275 12.236-12.236c4.781-4.781 8.792-10.037 12.05-15.613z" fill="#fd4755"/><g><g><ellipse cx="340.436" cy="182.606" fill="#c8effe" rx="25.652" ry="33.601" transform="matrix(.707 -.707 .707 .707 -29.411 294.208)"/></g><g><path d="m338.968 209.032c-13.122-13.122-15.638-31.88-5.62-41.898 5.53-5.53 13.724-7.233 22.162-5.449-12.842-10.641-29.571-12.1-38.833-2.838-10.018 10.018-7.501 28.776 5.62 41.898 5.878 5.879 12.888 9.621 19.736 11.069-1.049-.869-2.075-1.791-3.065-2.782z" fill="#99e6fc"/></g><g><ellipse cx="408.614" cy="250.785" fill="#c8effe" rx="25.652" ry="33.601" transform="matrix(.707 -.707 .707 .707 -57.651 362.387)"/></g><g><path d="m406.968 277.032c-13.122-13.122-15.638-31.88-5.62-41.898 5.519-5.519 13.691-7.226 22.111-5.459-12.812-10.469-29.397-11.856-38.603-2.649-10.018 10.018-7.501 28.776 5.62 41.898 5.893 5.893 12.923 9.639 19.787 11.08-1.13-.923-2.233-1.909-3.295-2.972z" fill="#99e6fc"/></g></g></g><path d="m499.138 361.417c-16.761-1.723-31.149-11.437-39.302-25.267-2.243-3.804-7.829-3.804-10.072 0-9.011 15.284-25.636 25.541-44.664 25.541s-35.653-10.257-44.664-25.541c-2.243-3.804-7.829-3.804-10.072 0-9.011 15.284-25.636 25.541-44.664 25.541s-35.653-10.257-44.664-25.541c-2.243-3.804-7.828-3.804-10.072 0-9.011 15.284-25.636 25.541-44.664 25.541s-35.653-10.257-44.664-25.541c-2.243-3.804-7.829-3.804-10.072 0-9.011 15.284-25.636 25.541-44.664 25.541s-35.653-10.257-44.664-25.541c-2.243-3.804-7.829-3.804-10.072 0-8.154 13.83-22.542 23.544-39.303 25.267-3.034.312-5.362 2.823-5.362 5.874v47.091h1c0-2.52 1.919-4.617 4.465-4.879 16.582-1.705 31.558-11.333 40.061-25.754.89-1.508 2.45-2.408 4.175-2.408s3.285.9 4.175 2.408c9.467 16.058 26.911 26.033 45.524 26.033 18.614 0 36.059-9.975 45.525-26.033.89-1.508 2.45-2.408 4.175-2.408s3.285.9 4.175 2.408c9.468 16.058 26.912 26.033 45.525 26.033 18.614 0 36.059-9.975 45.525-26.033.89-1.508 2.45-2.408 4.175-2.408s3.285.9 4.175 2.408c9.467 16.058 26.911 26.033 45.525 26.033 18.613 0 36.058-9.975 45.525-26.033.889-1.508 2.449-2.408 4.175-2.408 1.725 0 3.285.9 4.175 2.408 9.467 16.058 26.911 26.033 45.525 26.033 18.613 0 36.058-9.975 45.524-26.033.89-1.508 2.45-2.408 4.175-2.408s3.285.9 4.175 2.408c8.503 14.421 23.479 24.049 40.061 25.754 2.546.262 4.465 2.359 4.465 4.879h1v-47.091c.001-3.051-2.327-5.562-5.361-5.874z" fill="#01d0fb"/><path d="m12.862 408.507c10.225-1.051 19.556-5.088 27.138-11.207v-21.391c0-3.05 2.328-5.562 5.362-5.874 13.102-1.347 24.737-7.591 33.095-16.852-6.62-4.358-12.185-10.19-16.22-17.034-2.243-3.804-7.829-3.804-10.072 0-8.154 13.83-22.542 23.544-39.303 25.267-3.034.312-5.362 2.823-5.362 5.874v47.091c0-3.05 2.328-5.562 5.362-5.874z" fill="#01c0fa"/><g><path d="m504.5 456.135v-41.754c0-3.05-2.328-5.562-5.362-5.874-16.761-1.723-31.148-11.437-39.302-25.267-2.28-3.867-7.792-3.867-10.072 0-9.011 15.284-25.636 25.541-44.664 25.541s-35.653-10.257-44.664-25.541c-2.28-3.867-7.792-3.867-10.072 0-9.011 15.284-25.636 25.541-44.664 25.541s-35.653-10.257-44.664-25.541c-2.28-3.867-7.792-3.867-10.072 0-9.011 15.284-25.636 25.541-44.664 25.541s-35.653-10.257-44.664-25.541c-2.28-3.867-7.792-3.867-10.072 0-9.011 15.284-25.636 25.541-44.664 25.541s-35.653-10.257-44.664-25.541c-2.28-3.867-7.792-3.867-10.072 0-8.154 13.83-22.541 23.544-39.302 25.267-3.034.312-5.362 2.824-5.362 5.874v41.754c0 5.523 4.477 10 10 10h477c5.523 0 10-4.477 10-10z" fill="#99e6fc"/></g><g><g><path d="m40 464.795v-41.754c0-3.05 2.328-5.562 5.362-5.874 13.114-1.348 24.759-7.603 33.118-16.878-6.631-4.36-12.204-10.197-16.244-17.049-2.28-3.867-7.792-3.867-10.072 0-8.154 13.83-22.541 23.544-39.302 25.267-3.034.312-5.362 2.824-5.362 5.874v41.754c0 5.523 4.477 10 10 10h22.6c-.059-.439-.1-.884-.1-1.34z" fill="#62dbfb"/></g></g><g><path d="m266.038 306.678c1.919 0 3.839-.732 5.304-2.197 2.929-2.929 2.929-7.678 0-10.606l-28.934-28.933c-2.93-2.929-7.678-2.929-10.607 0s-2.929 7.678 0 10.606l28.934 28.933c1.464 1.465 3.384 2.197 5.303 2.197z"/><path d="m364.856 261.298c0-4.142-3.357-7.5-7.5-7.5-10.392 0-18.846-8.454-18.846-18.846 0-4.142-3.357-7.5-7.5-7.5s-7.5 3.358-7.5 7.5c0 18.663 15.184 33.846 33.846 33.846 4.143 0 7.5-3.358 7.5-7.5z"/><path d="m499.906 307c-13.908-1.43-26.473-9.511-33.609-21.616-2.416-4.098-6.714-6.544-11.497-6.544s-9.081 2.446-11.497 6.544c-1.105 1.875-2.352 3.639-3.701 5.307.313-1.758.481-3.554.481-5.376 0-2.446-.304-4.843-.864-7.162 2.82-3.345 4.742-7.267 5.782-11.513l11.079-11.079c15.938-15.938 24.715-37.127 24.715-59.667 0-22.539-8.777-43.729-24.715-59.667s-37.128-24.715-59.666-24.715c-22.539 0-43.729 8.777-59.667 24.715l-9.366 9.366c-5.767.88-10.919 3.292-15.083 7.097-1.734-.305-3.507-.466-5.305-.466-8.104 0-15.721 3.155-21.451 8.885-5.729 5.729-8.885 13.348-8.885 21.451s3.155 15.721 8.885 21.45l4.226 4.226c-5.261 8.252-8.092 17.835-8.092 27.858 0 9.575 2.574 18.754 7.39 26.75l-1.448 1.448-23.144-23.144c-11.887-11.886-29.026-16.523-45.211-12.375l-58.372-15.984 7.452-28.44c1.05-4.007-1.347-8.106-5.354-9.156-4.014-1.051-8.107 1.348-9.156 5.354l-9.333 35.617c-1.042 3.976 1.31 8.049 5.274 9.135l67.532 18.492c1.371.375 2.822.353 4.184-.064 11.488-3.531 23.894-.453 32.376 8.03l24.912 24.912c4.874 4.872 12.804 4.873 17.678 0l2.13-2.13 19.183 19.184-2.132 2.132c-4.871 4.874-4.871 12.803.002 17.676l24.36 24.36c-8.35 10.18-20.96 16.302-34.3 16.302-15.619 0-30.258-8.373-38.203-21.851-2.416-4.098-6.714-6.544-11.497-6.544s-9.081 2.446-11.497 6.544c-7.945 13.478-22.584 21.851-38.203 21.851-15.618 0-30.257-8.373-38.203-21.851-2.417-4.098-6.715-6.545-11.498-6.544s-9.08 2.447-11.495 6.544c-7.038 11.938-19.329 19.856-32.897 21.514l56.038-56.038c3.114-3.115 4.349-7.529 3.303-11.807s-4.178-7.625-8.378-8.951l-45.12-14.254c-.093-.029-.186-.056-.279-.082-9.336-2.556-14.954-12.186-12.522-21.465l33.115-126.37c.784-2.994 1.097-6.078.929-9.167l-2.132-39.035c.07-5.24 3.145-9.755 7.57-11.931v23.584c0 4.142 3.357 7.5 7.5 7.5s7.5-3.358 7.5-7.5v-24.975h4.771v24.975c0 4.142 3.357 7.5 7.5 7.5s7.5-3.358 7.5-7.5v-23.428c4.302 2.26 7.246 6.767 7.246 11.955v19.529c0 4.142 3.357 7.5 7.5 7.5h6.221c3.301 0 6.431 2.792 6.565 5.858.075 1.701-.527 3.311-1.696 4.533-1.172 1.224-2.749 1.898-4.441 1.898-.714 0-1.425.102-2.109.303l-11.516 3.375c-9.964 2.921-17.789 10.975-20.421 21.019l-4.142 15.805c-1.05 4.007 1.347 8.106 5.354 9.156 4.01 1.051 8.106-1.348 9.156-5.354l4.142-15.805c1.306-4.982 5.188-8.978 10.13-10.426l10.6-3.107c5.312-.305 10.392-2.633 14.085-6.493 4.026-4.208 6.103-9.735 5.846-15.564-.473-10.718-9.444-19.512-20.272-20.16v-12.067c0-15.716-12.786-28.502-28.502-28.502h-22.587c-15.716 0-28.502 12.786-28.502 28.502 0 .136.004.273.011.409l2.144 39.262c.084 1.532-.071 3.062-.46 4.547l-33.116 126.37c-4.492 17.143 5.785 34.914 22.921 39.693l30.547 9.65c-8.117 12.638-22.246 20.436-37.305 20.436-15.619 0-30.258-8.373-38.203-21.85-2.416-4.098-6.714-6.544-11.497-6.544s-9.081 2.446-11.497 6.544c-7.137 12.106-19.701 20.186-33.609 21.616-6.895.709-12.094 6.442-12.094 13.334v135.801c0 9.649 7.851 17.5 17.5 17.5h477c9.649 0 17.5-7.851 17.5-17.5v-135.801c0-6.892-5.199-12.625-12.094-13.334zm-152.552-160.165c2.89-2.89 6.001-5.476 9.276-7.779l46.782 46.783c2.93 2.929 7.678 2.929 10.607 0s2.929-7.678 0-10.606l-43.667-43.667c8.17-3.309 16.979-5.052 26.059-5.052 18.533 0 35.956 7.217 49.06 20.322 13.105 13.104 20.322 30.527 20.322 49.06 0 9.08-1.743 17.89-5.052 26.06l-21.975-21.974c-2.93-2.929-7.678-2.929-10.607 0s-2.929 7.678 0 10.606l25.091 25.091c-2.303 3.276-4.889 6.387-7.78 9.277l-1.537 1.537c-2.195-6.791-6.177-13.447-11.879-19.149-7.503-7.502-16.885-12.339-26.419-13.618-1.903-.255-3.771-.364-5.593-.334l-22.301-22.301c.167-10.815-4.574-22.635-13.866-31.926-5.133-5.133-11.146-9.016-17.485-11.367zm48.425 116.786c-5.19-5.19-8.514-11.514-9.358-17.807-.743-5.542.584-10.331 3.738-13.485 2.581-2.581 6.258-3.939 10.547-3.939.95 0 1.932.067 2.938.202 6.293.844 12.616 4.167 17.806 9.357 10.005 10.004 12.579 24.334 5.622 31.292-6.958 6.956-21.29 4.384-31.293-5.62zm29.2 23.42c-.383 3.443-1.902 6.634-4.388 9.119-2.896 2.896-6.747 4.492-10.844 4.492-4.096 0-7.947-1.595-10.843-4.492l-3.344-3.344 7.234-7.234c4.58 1.668 9.249 2.526 13.755 2.526 2.901 0 5.732-.357 8.43-1.067zm-41.246-68.748c-1.49.998-2.89 2.139-4.18 3.429-1.131 1.131-2.144 2.349-3.051 3.634l-10.646-10.645c1.286-.898 2.507-1.907 3.642-3.042h.001c1.296-1.296 2.429-2.703 3.416-4.194zm-61.753-54.143c2.581-2.581 6.258-3.939 10.547-3.939.95 0 1.932.067 2.938.202 6.293.844 12.616 4.167 17.806 9.357 10.005 10.004 12.579 24.334 5.622 31.292-6.961 6.958-21.288 4.383-31.293-5.62-5.189-5.19-8.513-11.514-9.357-17.807-.744-5.542.583-10.332 3.737-13.485zm-25.831 29.255c-2.897-2.896-4.492-6.748-4.492-10.844 0-4.097 1.595-7.948 4.492-10.844 2.126-2.126 4.769-3.544 7.644-4.151-.827 3.77-.986 7.828-.417 12.063.472 3.519 1.432 7.017 2.828 10.407l-6.711 6.712zm11.358 68.839c-6.984-6.984-10.831-16.271-10.831-26.148 0-9.878 3.847-19.164 10.832-26.149l6.798-6.798c.853.994 1.75 1.961 2.688 2.899 9.135 9.134 20.714 13.881 31.378 13.881.489 0 .975-.011 1.459-.031l21.427 21.427c-.089 2.104 0 4.267.298 6.483 1.278 9.534 6.115 18.917 13.618 26.419 1.317 1.317 2.69 2.532 4.098 3.665l-6.909 6.909c-6.985 6.984-16.272 10.831-26.149 10.831-9.878 0-19.164-3.847-26.148-10.831zm-292.507 59.52c17.19-2.18 32.71-11.936 42.2-26.467 10.897 16.681 29.697 26.938 49.7 26.938 6.473 0 12.817-1.08 18.811-3.098l-32.769 32.769c-10.026-3.351-18.742-10.23-24.245-19.565-2.416-4.098-6.714-6.544-11.497-6.544s-9.081 2.446-11.497 6.544c-6.635 11.255-17.965 19.023-30.703 21.209zm482 78.876c-12.738-2.186-24.067-9.954-30.703-21.209-2.434-4.127-6.731-6.591-11.497-6.591s-9.063 2.464-11.497 6.591c-7.945 13.478-22.584 21.851-38.203 21.851-15.618 0-30.257-8.373-38.203-21.85-2.433-4.127-6.729-6.592-11.495-6.592h-.002c-4.766 0-9.063 2.464-11.497 6.591-5.129 8.7-13.139 15.449-22.554 19.005-3.875 1.463-5.829 5.792-4.366 9.667 1.464 3.875 5.79 5.828 9.667 4.366 11.758-4.441 21.877-12.6 28.75-23.125 10.898 16.681 29.697 26.938 49.699 26.938 20.004 0 38.803-10.255 49.7-26.938 9.49 14.531 25.01 24.286 42.2 26.467v40.325c0 1.378-1.121 2.5-2.5 2.5h-477c-1.379 0-2.5-1.122-2.5-2.5v-40.325c17.19-2.181 32.711-11.937 42.2-26.467 10.897 16.681 29.697 26.938 49.7 26.938 20.002 0 38.801-10.255 49.699-26.938 10.898 16.681 29.698 26.938 49.7 26.938 20.003 0 38.803-10.257 49.7-26.938 7.247 11.109 18.015 19.504 30.583 23.783 3.919 1.334 8.183-.762 9.517-4.683 1.335-3.921-.762-8.182-4.683-9.517-10.025-3.413-18.521-10.336-23.921-19.496-2.434-4.127-6.73-6.59-11.496-6.59s-9.062 2.463-11.497 6.591c-7.945 13.478-22.584 21.851-38.203 21.851-15.618 0-30.257-8.373-38.203-21.851-2.435-4.127-6.732-6.591-11.498-6.591s-9.062 2.465-11.495 6.591c-7.946 13.478-22.585 21.851-38.203 21.851-15.619 0-30.258-8.373-38.203-21.851-2.434-4.127-6.731-6.591-11.497-6.591s-9.063 2.464-11.497 6.591c-6.634 11.255-17.964 19.022-30.702 21.208v-31.92c17.19-2.18 32.71-11.936 42.2-26.467 10.897 16.681 29.697 26.938 49.7 26.938 20.002 0 38.8-10.255 49.699-26.938 10.899 16.681 29.699 26.938 49.7 26.938 20.003 0 38.803-10.257 49.7-26.938 10.897 16.681 29.697 26.938 49.7 26.938s38.802-10.256 49.7-26.938c10.898 16.681 29.697 26.938 49.699 26.938 20.003 0 38.803-10.257 49.7-26.938 9.49 14.531 25.01 24.287 42.2 26.467v31.92zm0-47.091c-12.737-2.185-24.067-9.953-30.703-21.209-2.416-4.098-6.714-6.544-11.497-6.544s-9.081 2.446-11.497 6.544c-7.945 13.478-22.584 21.851-38.203 21.851-15.618 0-30.257-8.373-38.202-21.85-2.416-4.098-6.713-6.545-11.496-6.545 0 0 0 0-.001 0-1.843 0-3.613.367-5.231 1.048l-13.434-13.433c2.195-1.348 4.304-2.838 6.312-4.46 4.248 1.104 8.662 1.682 13.166 1.682 4.067 0 8.059-.474 11.921-1.379 10.373 8.252 23.39 12.981 36.966 12.981 20.003 0 38.803-10.257 49.7-26.938 9.49 14.531 25.01 24.287 42.2 26.467v31.785z"/></g></g></svg>