<svg id="_x33_0" enable-background="new 0 0 64 64" height="512" viewBox="0 0 64 64" width="512" xmlns="http://www.w3.org/2000/svg"><g><g><g><path d="m46 25.32v35.68c0 .55-.45 1-1 1h-21l-1.33-4h13.33l6-6v-29.05c1.15 1.03 2.51 1.84 4 2.37z" fill="#f0d0b4"/></g><g><path d="m15 59 9 3h-19c-.55 0-1-.45-1-1v-13l3 3 1 1v5c0 .55.45 1 1 1h5z" fill="#f0d0b4"/></g><g><path d="m18 6v4h-10v30.38c-.55-.25-1.15-.38-1.76-.38-.82 0-1.59.24-2.24.65v-.01-33.64c0-.55.45-1 1-1z" fill="#f0d0b4"/></g><g><path d="m32 6h9.05c-1.03 1.15-1.84 2.51-2.37 4h-6.68z" fill="#f0d0b4"/></g><g><path d="m32 10v1c0 .55-.45 1-1 1h-1-11c-.55 0-1-.45-1-1v-1-4h2l.03-.12c.57-2.28 2.62-3.88 4.97-3.88 1.18 0 2.28.4 3.15 1.08.88.69 1.53 1.66 1.82 2.8l.03.12h2z" fill="#b4dd7f"/></g><g><path d="m38 14c0-1.4.24-2.75.68-4h-6.68v1c0 .55-.45 1-1 1h-1-11c-.55 0-1-.45-1-1v-1h-10v30.38c.46.21.88.5 1.24.86l.76.76 3 3 3 3 5 5 1.67 5h13.33v-6h6v-29.05c-2.46-2.2-4-5.39-4-8.95z" fill="#e6e9ed"/></g><g><path d="m14 58h-5c-.55 0-1-.45-1-1v-5z" fill="#e6e9ed"/></g><g><path d="m42 52-6 6v-6z" fill="#b4dd7f"/></g><g><path d="m10 42-6 6-.76-.76c-.79-.79-1.24-1.87-1.24-3 0-1.17.48-2.23 1.24-3 .23-.23.48-.43.76-.59.65-.41 1.42-.65 2.24-.65.61 0 1.21.13 1.76.38.46.21.88.5 1.24.86z" fill="#aab2bd"/></g><g><path d="m13 45-3 3-3 3-3-3 6-6z" fill="#ffeaa7"/></g><g><path d="m22.67 58 1.33 4-9-3 3-3 3-3z" fill="#aab2bd"/></g><g><path d="m18 56-3 3-1-1-6-6-1-1 3-3z" fill="#fcd770"/></g><g><path d="m21 53-3 3-8-8 3-3 3 3z" fill="#4fc1e9"/></g><g><path d="m34.24 21.76c-.59-.6-1.32-1.07-2.12-1.37-.66-.25-1.37-.39-2.12-.39s-1.46.14-2.12.39c-.8.3-1.53.77-2.12 1.37-1.09 1.08-1.76 2.58-1.76 4.24 0 2.82.2 5.64.59 8.43 3.15 1.07 5.41 4.06 5.41 7.57 0 2.43-1.08 4.6-2.79 6.07l.4 1.97c.23 1.14 1.23 1.96 2.39 1.96s2.16-.82 2.39-1.96l1.61-8.04.82-4.12c.13-.63.24-1.25.35-1.88.33-1.99.57-3.99.69-6 .1-1.33.14-2.66.14-4 0-1.66-.67-3.16-1.76-4.24z" fill="#ff826e"/></g><g><path d="m24.59 34.43c3.15 1.07 5.41 4.06 5.41 7.57 0 2.43-1.08 4.6-2.79 6.07-1.4 1.2-3.22 1.93-5.21 1.93-2.21 0-4.21-.9-5.66-2.34-1.44-1.45-2.34-3.45-2.34-5.66 0-4.42 3.58-8 8-8 .91 0 1.78.15 2.59.43z" fill="#b4dd7f"/></g><g><path d="m38.68 10c.53-1.49 1.34-2.85 2.37-4 2.2-2.46 5.39-4 8.95-4 6.63 0 12 5.37 12 12s-5.37 12-12 12c-1.4 0-2.75-.24-4-.68-1.49-.53-2.85-1.34-4-2.37-2.46-2.2-4-5.39-4-8.95 0-1.4.24-2.75.68-4zm11.32 12c4.42 0 8-3.58 8-8s-3.58-8-8-8-8 3.58-8 8 3.58 8 8 8z" fill="#ccd1d9"/></g><g><path d="m58 14c0 4.42-3.58 8-8 8s-8-3.58-8-8 3.58-8 8-8 8 3.58 8 8z" fill="#69d6f4"/></g><g><path d="m51.41 12.59c.37.36.59.86.59 1.41 0 1.1-.9 2-2 2s-2-.9-2-2c0-.55.22-1.05.59-1.41.36-.37.86-.59 1.41-.59s1.05.22 1.41.59z" fill="#fcd770"/></g></g><g><path d="m50 5c-4.962 0-9 4.037-9 9s4.038 9 9 9 9-4.037 9-9-4.038-9-9-9zm1 15.92v-1.92h-2v1.92c-3.059-.441-5.479-2.861-5.92-5.92h1.92v-2h-1.92c.441-3.059 2.861-5.479 5.92-5.92v1.92h2v-1.92c3.059.441 5.479 2.861 5.92 5.92h-1.92v2h1.92c-.441 3.059-2.861 5.479-5.92 5.92z"/><path d="m50 1c-3.675 0-6.992 1.54-9.359 4h-9.897c-.879-2.386-3.154-4-5.744-4s-4.865 1.614-5.744 4h-14.256c-1.103 0-2 .897-2 2v33.155c-1.209.961-2 2.426-2 4.087 0 1.401.545 2.718 1.536 3.707l.464.465v12.586c0 1.103.897 2 2 2h40c1.103 0 2-.897 2-2v-34.363c.965.229 1.966.363 3 .363 7.168 0 13-5.832 13-13s-5.832-13-13-13zm-9 50h-6v6h-11.612l-1.439-4.316c-.049-.147-.132-.281-.242-.391l-1.468-1.468c.57.113 1.158.175 1.761.175 1.654 0 3.2-.456 4.533-1.238l.095.473c.32 1.602 1.738 2.765 3.372 2.765s3.052-1.163 3.373-2.765l2.431-12.156c.794-3.969 1.196-8.032 1.196-12.079 0-2.618-1.448-4.903-3.582-6.103l1.501-3.504-1.838-.787-1.531 3.572c-.181-.041-.365-.072-.55-.099v-4.079h-2v4.08c-.186.027-.369.058-.55.099l-1.531-3.572-1.838.787 1.501 3.504c-2.134 1.199-3.582 3.484-3.582 6.102 0 2.372.147 4.761.422 7.124-.464-.075-.937-.124-1.422-.124-4.962 0-9 4.037-9 9 0 .603.062 1.191.175 1.761l-3.226-3.226c-.288-.289-.611-.527-.949-.738v-28.797h8c0 1.103.897 2 2 2h12c1.103 0 2-.897 2-2h4.363c-.229.965-.363 1.966-.363 3 0 3.675 1.54 6.992 4 9.359zm-1.414 2-2.586 2.586v-2.586zm-28-8-4.586 4.586-1.586-1.586 4.586-4.586zm13.414-19c0-2.757 2.243-5 5-5s5 2.243 5 5c0 1-.027 2-.077 3h-5.923v2h5.774c-.113 1.338-.26 2.673-.463 4h-3.311v2h2.962c-.043.228-.074.459-.12.687l-.662 3.313h-2.239c-.365-3.284-2.501-6.042-5.432-7.287-.333-2.553-.509-5.144-.509-7.713zm5.941 17h1.839l-1.368 6.843c-.135.671-.728 1.157-1.412 1.157s-1.277-.486-1.412-1.157l-.286-1.429c1.439-1.413 2.404-3.304 2.639-5.414zm-1.941-1c0 3.859-3.14 7-7 7s-7-3.141-7-7 3.14-7 7-7 7 3.141 7 7zm-6.581 18.419-1.818-.606 1.212-1.212zm-4.419-5.833-6.586-6.586 1.586-1.586 6.586 6.586zm-9-.172 2.586 2.586h-2.586zm-.586-3.414 1.586-1.586 6.586 6.586-1.586 1.586zm12.149 3.851.543 1.629-2.626 2.626-1.629-.543zm17.44-45.851h-5.003v-2h6.063c-.407.633-.767 1.299-1.06 2zm-17.222-2 .219-.877c.459-1.839 2.104-3.123 4-3.123s3.541 1.284 4 3.123l.219.877h1.781v4h-12v-4zm-15.781 0h12v2h-10v30.074c-.25-.036-.5-.074-.757-.074-.431 0-.843.067-1.243.165zm1.243 34c.866 0 1.68.337 2.293.949l.05.051-4.586 4.585-.051-.051c-.612-.611-.949-1.425-.949-2.292 0-1.788 1.455-3.242 3.243-3.242zm-1.243 9.414 2 2v4.586c0 1.103.897 2 2 2h4.586l.707.707c.11.109.244.192.391.241l3.155 1.052h-12.839zm40 10.586h-20.279l-.667-2h12.36l6.586-6.586v-27.477c.633.407 1.298.767 2 1.06zm5-36c-6.065 0-11-4.935-11-11s4.935-11 11-11 11 4.935 11 11-4.935 11-11 11z"/><path d="m52.293 10.293-1.008 1.008c-.391-.188-.823-.301-1.285-.301s-.894.113-1.285.301l-2.008-2.008-1.414 1.414 2.008 2.008c-.188.391-.301.823-.301 1.285 0 1.654 1.346 3 3 3s3-1.346 3-3c0-.462-.113-.894-.301-1.285l1.008-1.008zm-2.293 4.707c-.551 0-1-.448-1-1s.449-1 1-1 1 .448 1 1-.449 1-1 1z"/><path d="m20.707 36.293-1.414 1.414.292.293c.645.645 1.502 1 2.415 1s1.77-.355 2.414-1l.293-.293-1.414-1.414-.293.293c-.533.535-1.465.535-2 0z"/><path d="m11 15h10v2h-10z"/><path d="m11 19h10v2h-10z"/><path d="m11 23h10v2h-10z"/><path d="m11 27h2v2h-2z"/><path d="m15 27h2v2h-2z"/></g></g></svg>