<svg height="480pt" viewBox="0 -5 480 480" width="480pt" xmlns="http://www.w3.org/2000/svg"><path d="m416 466.96875s-15.601562-40.160156-30.398438-95.761719c-2.640624-10.078125-5.28125-20.71875-7.839843-31.679687-6.203125-26.574219-10.957031-53.46875-14.242188-80.558594l-3.441406-48c-.078125-2.640625-.078125-5.359375-.078125-8 0-22.082031 1.039062-42.722656 2.878906-61.839844 1.042969-11.519531 2.320313-22.480468 3.839844-32.722656 4.601562-35.953125 13.078125-71.304688 25.28125-105.4375h-304c12.203125 34.132812 20.679688 69.484375 25.28125 105.4375 1.519531 10.242188 2.796875 21.203125 3.839844 32.722656 1.839844 19.117188 2.878906 39.757813 2.878906 61.839844 0 2.640625 0 5.359375-.078125 8l-3.441406 48c-3.285157 27.089844-8.039063 53.984375-14.242188 80.558594-2.558593 10.960937-5.199219 21.601562-7.839843 31.679687-14.796876 55.601563-30.398438 95.761719-30.398438 95.761719zm0 0" fill="#f6bf9b"/><path d="m184 258.96875h-112v24l-64-48 64-48v24h112zm0 0" fill="#ec4042"/><path d="m296 258.96875h112v24l64-48-64-48v24h-112zm0 0" fill="#ec4042"/><path d="m94.398438 371.207031c-14.796876 55.601563-30.398438 95.761719-30.398438 95.761719h352s-15.601562-40.160156-30.398438-95.761719c-46.785156 16.316407-96.054687 24.359375-145.601562 23.761719-49.546875.597656-98.816406-7.445312-145.601562-23.761719zm0 0" fill="#8ac03f"/><path d="m102.238281 339.527344c-2.558593 10.960937-5.199219 21.601562-7.839843 31.679687 46.785156 16.316407 96.054687 24.359375 145.601562 23.761719 49.546875.597656 98.816406-7.445312 145.601562-23.761719-2.640624-10.078125-5.28125-20.71875-7.839843-31.679687-44.144531 16.007812-90.808594 23.945312-137.761719 23.441406-46.953125.503906-93.617188-7.433594-137.761719-23.441406zm0 0" fill="#89b33b"/><path d="m73.367188 109.574219c1.480468 10 2.753906 20.867187 3.792968 32.3125.425782 4.480469.808594 9.035156 1.152344 13.664062l15.953125-1.167969c-.34375-4.757812-.746094-9.4375-1.175781-13.976562-1.058594-11.710938-2.402344-22.871094-3.890625-33.132812-3.523438-25.097657-8.625-49.949219-15.277344-74.402344l-15.425781 4.257812c6.472656 23.8125 11.441406 48.007813 14.871094 72.445313zm0 0"/><path d="m446.953125 440.375c-1.601563-4.703125-3.394531-10.023438-5.289063-15.878906l-15.199218 4.945312c1.925781 5.941406 3.726562 11.34375 5.367187 16.117188zm0 0"/><path d="m417.550781 337.742188c-1.816406-7.941407-3.554687-16.050782-5.214843-24.335938l-15.6875 3.121094c1.679687 8.421875 3.453124 16.6875 5.320312 24.800781 2.574219 11.03125 5.230469 21.734375 7.894531 31.910156 3.527344 13.226563 7.394531 26.699219 11.496094 40.058594l15.296875-4.703125c-4.046875-13.160156-7.855469-26.402344-11.3125-39.433594-2.625-10-5.246094-20.59375-7.792969-31.417968zm0 0"/><path d="m232 290.96875h16v16h-16zm0 0"/><path d="m412.800781 180.566406c-2.425781-1.816406-5.667969-2.109375-8.378906-.753906s-4.421875 4.125-4.421875 7.15625v16h-32c0-20.9375.960938-41.488281 2.847656-61.128906 1.03125-11.398438 2.304688-22.265625 3.792969-32.304688 4.566406-35.316406 12.878906-70.050781 24.800781-103.605468l-14.867187-5.929688c-12.460938 34.6875-21.097657 70.636719-25.757813 107.199219-1.527344 10.304687-2.839844 21.464843-3.886718 33.128906-1.945313 20.128906-2.929688 41.183594-2.929688 62.640625h-56c-4.417969 0-8 3.582031-8 8v48c0 4.417969 3.582031 8 8 8h60.511719c2.679687 20.933594 6.671875 43.503906 11.9375 67.351562-41.347657 14.074219-84.777344 21.054688-128.449219 20.648438-43.671875.40625-87.101562-6.574219-128.449219-20.648438 5.25-23.832031 9.25-46.398437 11.9375-67.351562h60.511719c4.417969 0 8-3.582031 8-8v-48c0-4.417969-3.582031-8-8-8h-56c0-21.457031-.984375-42.511719-2.910156-62.5625-1.058594-11.710938-2.402344-22.871094-3.890625-33.132812-4.65625-36.589844-13.296875-72.5625-25.765625-107.273438l-14.867188 5.929688c11.921875 33.570312 20.238282 68.316406 24.800782 103.644531 1.480468 10 2.753906 20.867187 3.792968 32.3125 1.878906 19.59375 2.839844 40.144531 2.839844 61.082031h-32v-16c0-3.03125-1.710938-5.800781-4.421875-7.15625s-5.953125-1.0625-8.378906.753906l-64 48c-2.011719 1.511719-3.199219 3.882813-3.199219 6.402344 0 2.515625 1.1875 4.886719 3.199219 6.398438l64 48c1.386719 1.039062 3.070312 1.601562 4.800781 1.601562 4.417969 0 8-3.582031 8-8v-16h27.351562c-2.886718 21.933594-7.152343 45.597656-12.894531 70.742188-1.28125 5.441406-2.570312 10.808593-3.871093 16.066406-1.304688 5.253906-2.609376 10.398437-3.921876 15.375-14.496093 54.480468-29.96875 94.519531-30.128906 94.917968l14.921875 5.792969c.152344-.382812 14.398438-37.207031 28.4375-88.359375 45.246094 14.632813 92.554688 21.878906 140.105469 21.464844 47.550781.414062 94.859375-6.832031 140.105469-21.464844 14.054687 51.136719 28.285156 88 28.4375 88.359375l14.921875-5.792969c-.160156-.398437-15.632813-40.4375-30.121094-94.886718-2.625-10.023438-5.246094-20.582032-7.800781-31.472656-5.742188-25.144532-10.015625-48.800782-12.894531-70.734376h27.351562v16c0 3.03125 1.710938 5.800782 4.421875 7.15625 2.710937 1.355469 5.953125 1.0625 8.378906-.757812l64-48c2.011719-1.511719 3.199219-3.882812 3.199219-6.398438 0-2.519531-1.1875-4.890624-3.199219-6.402343zm-340.800781 70.402344c-4.417969 0-8 3.582031-8 8v8l-42.664062-32 42.664062-32v8c0 4.417969 3.582031 8 8 8h104v32zm168 136c-46.164062.457031-92.09375-6.585938-136-20.847656.3125-1.21875.617188-2.496094.929688-3.730469.726562-2.902344 1.453124-5.832031 2.183593-8.796875.285157-1.160156.574219-2.28125.855469-3.449219 42.554688 14.195313 87.171875 21.230469 132.03125 20.824219 44.867188.417969 89.492188-6.609375 132.054688-20.800781.28125 1.144531.5625 2.238281.839843 3.382812.738281 3.007813 1.476563 5.984375 2.21875 8.921875.300781 1.214844.597657 2.480469.910157 3.6875-43.914063 14.253906-89.855469 21.28125-136.023438 20.808594zm176-120v-8c0-4.417969-3.582031-8-8-8h-104v-32h104c4.417969 0 8-3.582031 8-8v-8l42.664062 32zm0 0"/></svg>