<svg id="Layer_1" enable-background="new 0 0 512 512" height="512" viewBox="0 0 512 512" width="512" xmlns="http://www.w3.org/2000/svg"><g><path d="m150.674 236.915c-14.557 0-26.408-14.317-26.587-32.119-.182-18.114 11.775-32.917 26.587-32.917z" fill="#ffab8a"/><g><path d="m462.774 482.62v21.88h-413.54v-21.88c0-29.35 20.82-54.58 49.65-60.15l16.79-3.33 41.14-8.15 61.4-12.16h74.62l34.94 6.87 27 5.3 41.13 8.08 17.23 3.39c28.82 5.57 49.64 30.8 49.64 60.15z" fill="#3eb1ff"/><path d="m462.774 482.62v21.88h-25v-21.88c0-29.35-13.05-57.97-41.87-63.54l17.23 3.39c28.82 5.57 49.64 30.8 49.64 60.15z" fill="#4390ff"/><path d="m354.774 411v93.5h-27v-98.8z" fill="#4390ff"/><path d="m156.814 467.63h197.96v36.74h-197.96z" fill="#668fa3"/><path d="m327.774 467.63h27v36.74h-27z" fill="#4c7889"/><g fill="#668fa3"><path d="m156.814 410.99v93.38h-41.14v-85.23z"/><path d="m395.904 419.08v85.29h-41.13v-93.37l20.7 4.07z"/></g><path d="m395.904 419.08v85.29h-20.43v-89.3z" fill="#4c7889"/><path d="m354.774 467.63h41.13v36.74h-41.13z" fill="#d4efff"/><path d="m115.677 467.634h41.137v36.736h-41.137z" fill="#d4efff"/><path d="m375.474 467.63h20.43v36.74h-20.43z" fill="#b7d4e2"/><path d="m287.834 382.79c.76 5.53 2.44 10.95 5 16.04 0 10.3-4.17 19.63-10.93 26.37-6.75 6.76-16.08 10.93-26.38 10.93-5.06 0-9.88-1.01-14.28-2.83-4.4-1.83-8.38-4.47-11.74-7.74-6.96-6.77-11.29-16.24-11.29-26.73 1.29-2.54 2.35-5.17 3.18-7.85s1.44-5.42 1.82-8.18c.11-.78.2-1.56.26-2.35.68-7.46-.29-15.07-2.94-22.25l-2.32-6.3h74.62l-2.32 6.3c-2.64 7.18-3.61 14.78-2.93 22.25.06.78.14 1.56.25 2.34z" fill="#ffd9c0"/><g><path d="m361.182 236.915c14.557 0 26.408-14.317 26.587-32.119.182-18.114-11.775-32.917-26.587-32.917z" fill="#ffab8a"/></g><path d="m290.514 358.2c-2.64 7.18-3.61 14.78-2.93 22.25-9.86 4.73-20.7 7.34-32.06 7.34s-22.19-2.61-32.05-7.34c.68-7.46-.29-15.07-2.94-22.25l-2.32-6.3h74.62z" fill="#ffbca1"/><path d="m361.974 258.63c0 25.32-21.53 55.57-64.01 89.93-11.58 9.4-25.97 14.66-40.87 14.9-.43.02-.86.02-1.29.02-15.38.03-30.29-5.25-42.21-14.95-42.45-34.34-63.98-64.59-63.98-89.9 0-2.69.1-5.38.33-7.96 1.1-11.2 1.34-45.84.73-78.79l189.49.04h21.02c-.58 32.56-.63 67.63.46 78.68.22 2.65.33 5.34.33 8.03z" fill="#ffd9c0"/><path d="m361.974 258.63c0 25.32-21.53 55.57-64.01 89.93-11.58 9.4-25.97 14.66-40.87 14.9 11.83-.31 23.26-5.56 32.46-14.9 34-34.36 51.24-64.61 51.24-89.93 0-2.69-.09-5.38-.27-8.03-.87-11.05-.83-46.12-.36-78.68h21.02c-.58 32.56-.63 67.63.46 78.68.22 2.65.33 5.34.33 8.03z" fill="#ffbca1"/></g><g><g><path d="m373.564 117.37v39.06h-236.53v-39.06c0-51.49 41.75-93.24 93.26-93.24h50.01c51.51 0 93.26 41.75 93.26 93.24z" fill="#ffc73b"/><g><path d="m373.564 117.37v39.06h-29.26v-39.06c0-51.49-30.39-93.24-71.77-93.24h7.77c51.51 0 93.26 41.75 93.26 93.24z" fill="#ffa73e"/></g></g><path d="m137.034 117.37h236.53v39.06h-236.53z" fill="#ffa73e"/><g><path d="m344.304 117.37h29.26v39.06h-29.26z" fill="#ff8440"/></g><path d="m403.504 156.43v13.31c0 11.07-8.98 20.05-20.06 20.05h-255.84c-11.08 0-20.06-8.98-20.06-20.05v-13.31z" fill="#ffc73b"/><path d="m403.504 156.43v13.31c0 11.07-8.98 20.05-20.06 20.05h-30c11.08 0 20.06-8.98 20.06-20.06v-13.3z" fill="#ffa73e"/><path d="m239.614 7.5h32.92v148.93h-32.92z" fill="#ffa73e"/><path d="m239.614 117.37h32.92v39.06h-32.92z" fill="#ff8440"/></g></g><g><path d="m414.571 415.106-116.514-22.891c-1.361-3.35-2.298-6.851-2.791-10.449-.968-7.047-.179-14.299 2.282-20.973l1.283-3.479c1.311-.929 2.593-1.902 3.844-2.919 44.32-35.851 66.793-68.071 66.793-95.768 0-2.892-.12-5.801-.355-8.648-.004-.039-.007-.078-.011-.116-.155-1.565-.288-3.732-.4-6.439 15.012-4.018 26.375-19.778 26.564-38.553.033-3.357-.276-6.641-.924-9.827 9.791-4.232 16.66-13.983 16.66-25.308v-13.301c0-4.142-3.357-7.5-7.5-7.5h-22.435v-31.565c0-55.548-45.203-100.74-100.765-100.74h-.265v-9.13c0-4.142-3.357-7.5-7.5-7.5h-32.921c-4.142 0-7.5 3.358-7.5 7.5v9.13h-1.823c-55.562 0-100.764 45.191-100.764 100.74v31.564h-21.986c-4.142 0-7.5 3.358-7.5 7.5v13.301c0 11.616 7.226 21.575 17.419 25.623-.609 3.109-.906 6.31-.874 9.513.187 18.671 11.426 34.36 26.316 38.484-.127 2.738-.273 4.981-.437 6.647-.238 2.673-.359 5.575-.359 8.624 0 27.689 22.462 59.899 66.747 95.724 1.035.842 2.091 1.654 3.167 2.436l1.477 4.005c2.462 6.678 3.251 13.935 2.28 20.986-.495 3.596-1.431 7.095-2.792 10.443l-115.537 22.883c-32.284 6.247-55.716 34.643-55.716 67.519v21.878c0 4.142 3.358 7.5 7.5 7.5h238.3c4.143 0 7.5-3.358 7.5-7.5s-3.357-7.5-7.5-7.5h-123.225v-21.866h182.956v21.866h-24.537c-4.143 0-7.5 3.358-7.5 7.5s3.357 7.5 7.5 7.5h140.038c4.143 0 7.5-3.358 7.5-7.5v-21.879c0-32.875-23.433-61.271-55.695-67.515zm-26.168 45.028h-26.138v-40.017l26.138 5.135zm-8.138-255.413c-.104 10.304-5.032 19.154-11.925 22.85-.091-8.447-.092-18.703.004-30.279h11.128c.548 2.4.818 4.909.793 7.429zm-99.963-173.091c44.764 0 81.627 34.462 85.439 78.24h-32.043c-4.143 0-7.5 3.358-7.5 7.5s3.357 7.5 7.5 7.5h32.368v24.064h-86.029v-117.304zm-33.185 93.24h17.921v24.064h-17.921zm17.921-109.87v94.87h-17.921v-94.87zm-120.508 109.87h32.368c4.142 0 7.5-3.358 7.5-7.5s-3.358-7.5-7.5-7.5h-32.043c3.812-43.778 40.676-78.24 85.439-78.24h1.823v117.304h-87.587zm-12.943 79.852c-.025-2.522.246-5.03.793-7.43h11.094c.06 11.245.015 21.558-.124 30.191-6.808-3.747-11.66-12.539-11.763-22.761zm25.52 53.905c0-2.606.101-5.06.293-7.224.951-9.666 1.181-33.03 1.072-54.112h16.989c4.142 0 7.5-3.358 7.5-7.5s-3.358-7.5-7.5-7.5h-47.856c-6.927 0-12.562-5.633-12.562-12.557v-5.801h280.958v5.801c0 6.924-5.635 12.557-12.562 12.557h-172.908c-4.142 0-7.5 3.358-7.5 7.5s3.358 7.5 7.5 7.5h142.813c-.134 16.747-.173 43.782.823 53.982.199 2.418.3 4.892.3 7.353 0 22.622-21.172 51.706-61.239 84.116-10.51 8.54-23.735 13.237-37.293 13.237h-.152c-13.6-.02-26.916-4.685-37.479-13.277-40.035-32.387-61.197-61.459-61.197-84.075zm98.528 112.353h.333c8.419 0 16.746-1.452 24.609-4.223-.884 5.632-.95 11.39-.173 17.049.794 5.779 2.435 11.372 4.885 16.653-.848 15.679-13.875 28.174-29.767 28.174-7.811 0-15.194-2.999-20.79-8.444-5.425-5.279-8.577-12.234-8.977-19.729 2.448-5.276 4.089-10.864 4.883-16.637.789-5.735.713-11.57-.203-17.274 8.039 2.907 16.573 4.431 25.2 4.431zm-132.464 54.32 26.138-5.176v40.01h-26.138zm-66.437 71.7v-14.378c0-25.705 18.322-47.907 43.598-52.798l7.839-1.552v68.728zm92.575-.13h-26.138v-21.736h26.138zm15-36.736v-42.981l47.29-9.365c1.763 8.755 6.112 16.768 12.672 23.152 8.412 8.186 19.511 12.694 31.252 12.694 21.647 0 39.757-15.426 43.913-35.86l47.829 9.397v42.964h-182.956zm224.094 15v21.736h-26.138v-21.736zm66.863 21.866h-51.863v-68.801l8.297 1.63c25.244 4.885 43.566 27.087 43.566 52.792z"/><path d="m255.52 311.369c15.935 0 29.938-10.735 34.055-26.105 1.071-4.001-1.304-8.113-5.305-9.185-4.002-1.074-8.114 1.303-9.186 5.305-2.362 8.823-10.408 14.985-19.564 14.985-9.151 0-17.193-6.162-19.556-14.985-1.072-4.002-5.189-6.378-9.185-5.305-4.001 1.071-6.376 5.184-5.305 9.185 4.117 15.37 18.117 26.105 34.046 26.105z"/></g></svg>