<?xml version="1.0" encoding="iso-8859-1"?>
<!-- Generator: Adobe Illustrator 19.0.0, SVG Export Plug-In . SVG Version: 6.00 Build 0)  -->
<svg version="1.1" id="Capa_1" xmlns="http://www.w3.org/2000/svg" xmlns:xlink="http://www.w3.org/1999/xlink" x="0px" y="0px"
	 viewBox="0 0 512.003 512.003" style="enable-background:new 0 0 512.003 512.003;" xml:space="preserve">
<path style="fill:#4398D1;" d="M494.938,184.717c-38.519-2.543-76.971,5.837-110.933,24.175v206.225h34.133l85.333,85.333V184.717
	H494.938z"/>
<path style="fill:#F2BB80;" d="M354.24,229.466l-40.619-17.613c-41.634-17.843-89.685-11.657-125.44,16.154l-43.11,33.51
	l93.867-179.2l17.067,25.6h85.333V14.051H230.404L59.738,133.517l-51.2,153.6l128,128h247.467V208.892
	C373.423,214.729,363.448,221.624,354.24,229.466z"/>
<polygon style="fill:#3E8CC7;" points="384.004,415.117 418.138,415.117 503.471,500.451 503.471,338.317 384.004,338.317 "/>
<polygon style="fill:#EBB071;" points="59.738,338.317 136.538,415.117 384.004,415.117 384.004,338.317 "/>
<path style="fill:#E39D54;" d="M281.604,355.384h-57.66c-25.455,0.068-49.886-10.052-67.84-28.1l12.066-12.066
	c14.763,14.839,34.842,23.159,55.774,23.1h57.66V355.384z"/>
<path d="M352.883,219.397l-35.9-15.36c-16.546-7.134-34.381-10.803-52.403-10.786c-29.577,0.043-58.291,9.899-81.664,28.023
	l-12.032,9.387l68.907-131.635l9.079,13.653c1.596,2.372,4.275,3.789,7.134,3.772h85.333c4.71,0,8.533-3.823,8.533-8.533V14.051
	c0-4.71-3.823-8.533-8.533-8.533H230.404c-1.749,0-3.456,0.538-4.89,1.545L54.848,126.529c-1.502,1.041-2.628,2.534-3.209,4.267
	l-51.2,153.6c-1.024,3.064-0.222,6.443,2.065,8.73l128,128c1.596,1.613,3.763,2.517,6.033,2.526h278.067l82.833,82.833
	l12.066-12.066l-85.333-85.333c-1.596-1.604-3.772-2.5-6.033-2.5h-25.6V214.285c31.642-16.043,67.004-23.305,102.4-21.035h17.067
	v-17.067h-16.529C444.233,172.387,393.4,187.789,352.883,219.397z M375.471,406.584H140.07L18.3,284.805l48.64-145.92
	L233.092,22.584h99.712v76.8h-72.235l-14.507-21.803c-1.664-2.526-4.557-3.977-7.578-3.797c-3.012,0.162-5.709,1.894-7.108,4.565
	l-93.867,179.2c-2.185,4.173-0.572,9.335,3.601,11.52c2.961,1.553,6.554,1.229,9.199-0.828l43.085-33.51
	c33.468-25.54,78.02-31.266,116.864-15.027l28.57,12.237c-4.437,4.343-8.636,8.917-12.595,13.705l-8.533,10.462l13.21,10.82
	l8.533-10.479c10.325-12.484,22.468-23.339,36.028-32.196L375.471,406.584L375.471,406.584z"/>
<path d="M168.171,315.218l-12.066,12.066c17.954,18.048,42.385,28.169,67.84,28.1h57.66v-17.067h-57.66
	C203.012,338.369,182.933,330.057,168.171,315.218z"/>
<g>
</g>
<g>
</g>
<g>
</g>
<g>
</g>
<g>
</g>
<g>
</g>
<g>
</g>
<g>
</g>
<g>
</g>
<g>
</g>
<g>
</g>
<g>
</g>
<g>
</g>
<g>
</g>
<g>
</g>
</svg>
