<svg id="Layer_1" enable-background="new 0 0 496.001 496.001" height="512" viewBox="0 0 496.001 496.001" width="512" xmlns="http://www.w3.org/2000/svg"><path d="m315.325 64.591-8.214-36.137c-1.655-7.285-8.131-12.454-15.602-12.454h-87.017c-7.47 0-13.946 5.169-15.602 12.454l-8.214 36.137c-1.266 5.569-5.405 10.042-10.86 11.735l-93.798 29.111c-6.695 2.078-11.257 8.271-11.257 15.281v120.092c0 9.338 4.079 18.21 11.168 24.288 17.736 15.208 19.377 17.274 26.032 19.782-.369.921-.524 1.914-.455 2.904l12.413 177.333c.587 8.383 7.558 14.883 15.961 14.883h236.242c8.403 0 15.374-6.5 15.961-14.883 13.274-189.636 12.791-178.155 11.958-180.237 3.45-1.3 6.69-3.2 9.54-5.64l16.492-14.142c7.089-6.078 11.168-14.95 11.168-24.288v-120.093c0-7.01-4.563-13.203-11.257-15.281l-93.798-29.111c-5.456-1.692-9.595-6.165-10.861-11.734z" fill="#ffdfba"/><path d="m392.731 312.98-10.65 152.14c-.58 8.38-7.56 14.88-15.96 14.88h-236.24c-8.4 0-15.38-6.5-15.96-14.88l-10.65-152.14c3.358.495-3.811.35 98.31.35 10.4 0 20.2-4.94 26.49-13.35l13.31-17.82c3.32-4.45 9.92-4.45 13.24 0l13.31 17.82c6.29 8.41 16.09 13.35 26.49 13.35 102.121 0 94.947.146 98.31-.35z" fill="#ffebd2"/><path d="m431.241 120.717v120.093c0 9.338-4.079 18.21-11.168 24.288-14.85 12.734-22.311 21.842-37.312 21.842h-90.07c-10.01 0-19.45-4.69-25.5-12.66l-12.816-16.897c-3.201-4.221-9.547-4.221-12.748 0l-12.816 16.897c-6.05 7.97-15.49 12.66-25.5 12.66-98.636 0-93.985.717-101.35-2.06-3.45-1.3-6.69-3.2-9.54-5.64l-16.492-14.142c-7.089-6.078-11.168-14.95-11.168-24.288v-120.093c0-7.01 4.563-13.203 11.257-15.281l93.798-29.111c5.455-1.693 9.594-6.165 10.86-11.735l8.214-36.137c1.656-7.284 8.132-12.453 15.602-12.453h87.017c7.47 0 13.946 5.169 15.602 12.454l8.214 36.137c1.266 5.569 5.405 10.042 10.86 11.735l93.798 29.111c6.695 2.077 11.258 8.27 11.258 15.28z" fill="#ffebd2"/><path d="m204.491 16c5.034 0 8.764 4.676 7.645 9.584l-13.455 59.006c-1.27 5.57-5.41 10.04-10.86 11.74l-93.8 29.11c-6.7 2.07-11.26 8.27-11.26 15.28 0 127.412-.01 120.321.017 121.138.117 3.588-4.122 5.579-6.847 3.242-7.09-6.08-11.17-14.954-11.17-24.295v-120.085c0-7.01 4.56-13.21 11.26-15.28l93.8-29.11c5.45-1.7 9.59-6.17 10.86-11.74l8.21-36.14c1.66-7.28 8.13-12.45 15.6-12.45z" fill="#fff3e4"/><path d="m431.241 120.72v120.09c0 9.34-4.08 18.21-11.17 24.29-17.736 15.208-19.375 17.272-26.03 19.78-7.314 2.758-2.556 2.06-101.35 2.06-9.586 0-18.914-4.183-25.64-12.84 2.87.329-3.625.23 99.33.23 4.12 0 8.15-.75 11.94-2.18 7.187-2.69 9.342-5.311 27.57-20.94 7.5-6.44 11.82-15.83 11.82-25.72v-120.75l2.27.7c6.7 2.07 11.26 8.27 11.26 15.28z" fill="#ffe6c7"/><path d="m435.987 93.649-105.059-32.604-11.043-48.591c-1.656-7.285-8.131-12.454-15.602-12.454h-112.565c-7.47 0-13.946 5.169-15.602 12.454l-11.043 48.591-105.059 32.604c-6.695 2.078-11.258 8.271-11.258 15.281v131.877c0 14.03 6.109 27.313 16.762 36.445 18.171 15.575 17.633 15.223 20.416 17.148l13.07 186.716c.614 8.776 8.218 15.459 17.078 14.844 8.815-.617 15.461-8.263 14.844-17.078l-12.316-175.943h84.705c14.925 0 29.22-7.099 38.241-18.99l6.444-8.495 6.445 8.496c9.021 11.89 23.316 18.989 38.24 18.989h84.704l-12.316 175.943c-.617 8.815 6.028 16.461 14.844 17.078 8.779.621 16.459-6.001 17.078-14.844l13.07-186.716c2.819-1.95 2.463-1.761 20.417-17.149 10.652-9.131 16.762-22.414 16.762-36.444v-131.876c.001-7.01-4.562-13.203-11.257-15.282zm-20.742 147.159c0 4.677-2.036 9.104-5.587 12.148-16.862 14.452-19.278 17.983-26.899 17.983h-90.072c-4.975 0-9.74-2.367-12.747-6.33l-19.191-25.298c-6.404-8.441-19.102-8.427-25.494 0l-19.191 25.298c-3.007 3.964-7.772 6.33-12.747 6.33h-90.072c-7.541 0-9.819-3.343-26.899-17.983-3.551-3.044-5.587-7.472-5.587-12.148v-120.09l102.615-31.846c5.455-1.693 9.594-6.165 10.86-11.735l10.256-45.137h87.021l10.258 45.137c1.267 5.57 5.405 10.042 10.86 11.735l102.615 31.846v120.09zm-253.244-4.808c0 8.836-7.164 16-16 16h-14c-8.836 0-16-7.164-16-16s7.164-16 16-16h14c8.836 0 16 7.164 16 16zm172 0c0-8.836 7.163-16 16-16h14c8.837 0 16 7.164 16 16s-7.163 16-16 16h-14c-8.837 0-16-7.164-16-16zm7.313 138.875-6.5 9.75c-8.925 13.385-23.854 21.375-39.939 21.375-12.359 0-30.801 1.959-46.874-15.065-16.047 16.996-34.42 15.065-46.874 15.065-16.086 0-31.016-7.991-39.938-21.375l-6.5-9.75c-4.902-7.353-2.915-17.287 4.437-22.188 7.351-4.903 17.287-2.915 22.188 4.437l6.5 9.75c2.975 4.462 7.951 7.125 13.313 7.125h11.982c17.774 0 15.356-22.251 28.816-27.794 3.892-1.595 8.213-1.606 12.131-.008 13.444 5.518 11.095 27.803 28.837 27.803h11.981c5.361 0 10.339-2.664 13.313-7.125l6.499-9.75c4.901-7.353 14.834-9.34 22.188-4.438 7.354 4.901 9.341 14.835 4.44 22.188zm0 80-6.5 9.75c-8.925 13.385-23.854 21.375-39.939 21.375-12.359 0-30.801 1.959-46.874-15.065-16.047 16.996-34.42 15.065-46.874 15.065-16.086 0-31.016-7.991-39.938-21.375l-6.5-9.75c-4.902-7.353-2.915-17.287 4.437-22.188 7.351-4.903 17.287-2.915 22.188 4.437l6.5 9.75c2.975 4.462 7.951 7.125 13.313 7.125h11.982c17.163 0 15.664-20.854 27.344-27.098 3.719-1.989 8.041-2.437 12.089-1.238 15.333 4.558 11.964 28.337 30.351 28.337h11.981c5.361 0 10.339-2.664 13.313-7.125l6.499-9.75c4.901-7.353 14.834-9.34 22.188-4.438 7.354 4.901 9.341 14.835 4.44 22.188z"/></svg>